<?xml version="1.0" standalone="no"?>
<!DOCTYPE svg PUBLIC "-//W3C//DTD SVG 1.1//EN" "http://www.w3.org/Graphics/SVG/1.1/DTD/svg11.dtd" >
<svg xmlns="http://www.w3.org/2000/svg" xmlns:xlink="http://www.w3.org/1999/xlink" version="1.1">
<metadata>
Created by FontForge 20170731 at Sat Jan  2 17:38:24 2021
 By Aleksey,,,
copyright missing
</metadata>
<defs>
<font id="Coconat-BoldExt" horiz-adv-x="1228" >
  <font-face 
    font-family="Coconat Ext"
    font-weight="400"
    font-stretch="normal"
    units-per-em="2048"
    panose-1="0 0 5 0 0 0 0 0 0 0"
    ascent="1638"
    descent="-410"
    x-height="1024"
    cap-height="1434"
    bbox="-1790 -553 3879 2183"
    underline-thickness="102"
    underline-position="-307"
    unicode-range="U+0020-2212"
  />
<missing-glyph horiz-adv-x="1024" 
d="M840 1638v-2048h-650v2048h650zM682 1501h-338v-67h133v-76h-135v-68h340v68h-135v76h135v67zM547 1237h-205v-213h340v70h-135v143zM477 1167v-73h-67v73h67zM682 969h-340v-68h135v-76h-135v-67h205v143h135v68zM682 846h-68v-135h-272v-70h340v205zM682 596h-205v-115
h70v47h67v-96h-204v164h-68v-231h340v231zM682 242h-340v-232h340v232zM614 174v-96h-204v96h204zM682 -37h-340v-67h143l-143 -97v-67h340v67h-209l143 97h66v67z" />
    <glyph glyph-name=".notdef" horiz-adv-x="1024" 
d="M840 1638v-2048h-650v2048h650zM682 1501h-338v-67h133v-76h-135v-68h340v68h-135v76h135v67zM547 1237h-205v-213h340v70h-135v143zM477 1167v-73h-67v73h67zM682 969h-340v-68h135v-76h-135v-67h205v143h135v68zM682 846h-68v-135h-272v-70h340v205zM682 596h-205v-115
h70v47h67v-96h-204v164h-68v-231h340v231zM682 242h-340v-232h340v232zM614 174v-96h-204v96h204zM682 -37h-340v-67h143l-143 -97v-67h340v67h-209l143 97h66v67z" />
    <glyph glyph-name=".null" horiz-adv-x="0" 
 />
    <glyph glyph-name="nonmarkingreturn" horiz-adv-x="682" 
 />
    <glyph glyph-name="space" unicode=" " horiz-adv-x="921" 
 />
    <glyph glyph-name="exclam" unicode="!" horiz-adv-x="888" 
d="M295 442q0 222 -31.5 496.5t-99.5 493.5h561q-117 -377 -117 -990h-313zM401 -16q-95 0 -143.5 35.5t-48.5 82.5q0 71 84.5 125t206.5 54q194 0 194 -119q0 -62 -84 -120t-209 -58z" />
    <glyph glyph-name="quotedbl" unicode="&#x22;" horiz-adv-x="1253" 
d="M236 954q0 157 -72 478h391q-25 -119 -42 -254.5t-17 -223.5h-260zM772 954q0 138 -72 478h390q-58 -292 -58 -478h-260z" />
    <glyph glyph-name="numbersign" unicode="#" horiz-adv-x="2217" 
d="M2157 954h-289l-158 -473h293v-94h-326l-35 -104q-52 -169 -57 -283h-416q58 137 134 387h-582l-35 -104q-52 -169 -57 -283h-416q55 129 133 387h-268v94h297l143 473h-287v95h316l33 106q53 171 77 285h418q-14 -32 -28.5 -70t-31 -88.5t-25.5 -78t-27.5 -87
t-20.5 -67.5h561l33 106q56 181 78 285h418q-42 -94 -134 -391h259v-95zM1331 481l144 473h-564l-157 -473h577z" />
    <glyph glyph-name="dollar" unicode="$" horiz-adv-x="2437" 
d="M2232 426q0 -90 -55.5 -168.5t-149 -134.5t-214.5 -96.5t-252 -60.5t-263 -21v-148h-94v150q-274 8 -532 75t-467 189l131 420q80 -154 221.5 -274t305 -189.5t341.5 -95.5v463q-6 0 -22 4q-97 22 -161 37t-144 35t-132 37t-113 38.5t-100 42.5t-80.5 47.5t-66 55
t-45.5 62.5t-30 73t-9 84q0 67 33.5 132.5t103.5 125.5t167.5 106t236.5 73.5t301 27.5h61v122h94v-127q447 -23 852 -196l-114 -402q-85 110 -183 196.5t-196.5 141t-184.5 88t-174 52.5v-476q49 -11 147 -32q118 -25 177.5 -38.5t159 -40t151 -48t119 -57t100 -73
t56.5 -89t24 -111.5zM694 1206q0 -37 17 -68t52.5 -56t77 -45t105 -39t120.5 -33t138 -31v473q-66 10 -131 10q-88 -3 -156.5 -18.5t-109.5 -37t-67.5 -49.5t-36 -53.5t-9.5 -52.5zM1397 57q183 0 296 57t113 138q0 94 -110.5 146.5t-397.5 115.5v-453q66 -4 99 -4z" />
    <glyph glyph-name="percent" unicode="%" horiz-adv-x="1949" 
d="M1712 1434h94l-1593 -1434h-94zM98 1038q0 141 128 231.5t315 90.5q179 0 308.5 -97t129.5 -225q0 -136 -127 -225.5t-311 -89.5q-181 0 -312 95.5t-131 219.5zM461 1274q-67 0 -107.5 -36.5t-40.5 -111.5q0 -43 20.5 -96t56.5 -103t96 -84t130 -34q64 0 106 41t42 106
q0 43 -20.5 96t-56.5 103.5t-96 84.5t-130 34zM967 391q0 141 127.5 231.5t314.5 90.5q179 0 308.5 -97t129.5 -225q0 -136 -127 -225.5t-311 -89.5q-181 0 -311.5 95.5t-130.5 219.5zM1329 627q-67 0 -107 -36.5t-40 -111.5q0 -43 20.5 -96t56.5 -103t96 -84t130 -34
q64 0 105.5 41t41.5 106q0 43 -20.5 96t-56.5 103.5t-96 84.5t-130 34z" />
    <glyph glyph-name="ampersand" unicode="&#x26;" horiz-adv-x="2488" 
d="M164 342q0 -83 57.5 -153.5t170.5 -124.5t297 -85t421 -32q341 0 616 131t420 332l60 -412l67 2l45 692l6 88h-663q-128 4 -231.5 13.5t-204.5 27.5t-175 47t-132 69.5t-87.5 98t-29.5 129.5q0 111 90 178t268 74q258 0 445 -138t294 -398l254 393q-408 242 -923 242
q-391 0 -626.5 -117t-235.5 -287q0 -42 15.5 -84t54 -87t97.5 -83.5t153 -71.5t212 -53q-735 -62 -735 -391zM715 397q0 61 24.5 108t74.5 79t115 53.5t157.5 33.5t189 16.5t221.5 4.5h350q5 -101 -18 -194.5t-75 -174.5t-129 -141t-188 -94.5t-243 -34.5q-221 0 -350 101
t-129 243z" />
    <glyph glyph-name="quotesingle" unicode="'" horiz-adv-x="718" 
d="M236 954q0 157 -72 478h391q-25 -119 -42 -254.5t-17 -223.5h-260z" />
    <glyph glyph-name="parenleft" unicode="(" horiz-adv-x="997" 
d="M936 -174l-199 -57q-86 35 -168 87t-164.5 131.5t-143.5 173.5t-99.5 220.5t-38.5 265.5q1 139 39.5 265.5t99.5 221t143 174t164 131.5t168 87l199 -56q-91 -69 -164 -149.5t-133.5 -181.5t-93.5 -227t-33 -265q0 -499 424 -821z" />
    <glyph glyph-name="parenright" unicode=")" horiz-adv-x="997" 
d="M61 -174q424 322 424 821q0 139 -33 265t-93.5 227t-133.5 181.5t-164 149.5l199 56q86 -35 168 -87t164 -131.5t143 -174t99.5 -221t39.5 -265.5q0 -139 -38.5 -265.5t-99.5 -220.5t-143.5 -173.5t-164.5 -131.5t-168 -87z" />
    <glyph glyph-name="asterisk" unicode="*" horiz-adv-x="735" 
d="M444 1040q88 -106 183 -180l-156 -106q-32 109 -100 233q-70 -128 -101 -233l-155 104q88 71 178 180q-155 29 -252 29l55 178q80 -57 226 -119q-15 147 -48 250h187q-32 -98 -47 -250q143 61 225 119l55 -178q-88 0 -250 -27z" />
    <glyph glyph-name="plus" unicode="+" 
d="M1110 621v-95h-457v-456h-94v456h-457v95h457v456h94v-456h457z" />
    <glyph glyph-name="comma" unicode="," horiz-adv-x="602" 
d="M485 141v-4q-3 -54 -39.5 -109.5t-89 -99t-115 -81.5t-115.5 -62t-93 -35q36 29 58 49.5t51 53t43.5 65.5t13.5 66h-6q-95 0 -144 35.5t-49 82.5q0 70 81 124.5t189 54.5q112 0 163.5 -40t51.5 -100z" />
    <glyph glyph-name="hyphen" unicode="-" 
d="M293 637h643v-94h-643v94z" />
    <glyph glyph-name="period" unicode="." horiz-adv-x="718" 
d="M309 -16q-95 0 -143.5 35.5t-48.5 82.5q0 71 84.5 125t206.5 54q194 0 194 -119q0 -62 -84 -120t-209 -58z" />
    <glyph glyph-name="slash" unicode="/" horiz-adv-x="956" 
d="M702 1587h119q-18 -42 -41 -107.5t-36 -105.5t-37.5 -121t-26.5 -86l-340 -1116q-36 -117 -80 -282h-117q58 138 144 421l338 1113q53 173 77 284z" />
    <glyph glyph-name="zero" unicode="0" horiz-adv-x="2269" 
d="M2187 745q0 -112 -41.5 -223.5t-127 -211.5t-203.5 -177t-283 -122.5t-354 -45.5q-219 0 -419 58.5t-349.5 161t-238.5 251t-89 318.5q0 96 34 188.5t96.5 174t156 150.5t207.5 118.5t256.5 77.5t297.5 28q194 0 365 -41.5t295.5 -113.5t215.5 -167t136 -203.5t45 -220.5
zM1268 68q98 0 177.5 29.5t133 80.5t90 123t52.5 154t16 176q0 156 -64 298.5t-167 242.5t-236 159.5t-269 59.5q-122 0 -214.5 -40t-147 -109.5t-81 -156t-26.5 -188.5q0 -171 64 -327t167 -265t236 -173t269 -64z" />
    <glyph glyph-name="one" unicode="1" horiz-adv-x="1058" 
d="M205 1081q122 49 311 176t283 218v-390v-739q0 -79 5.5 -143.5t13.5 -100.5t16.5 -60.5t13.5 -33.5l6 -8h-567l6 9t13.5 32.5t16.5 61t13 99.5t6 144l6 189v532h-143v14z" />
    <glyph glyph-name="two" unicode="2" horiz-adv-x="2058" 
d="M1849 500l25 -6l-90 -496h-1411h-97h-92q563 427 717 554q260 212 351 340q81 114 81 232q0 121 -70.5 187.5t-205.5 72.5q-54 0 -98 -3.5t-104 -16.5t-110.5 -35t-111 -62.5t-112 -96t-106 -138.5t-100.5 -186l-86 397q394 232 861 232q147 0 271 -18.5t227 -58.5
t161.5 -110.5t58.5 -165.5q0 -92 -33 -160t-94 -114t-138.5 -82.5t-177 -76.5t-197.5 -83.5t-211.5 -116t-208.5 -163.5q73 -3 141 -4.5t175 -0.5t197.5 6t192.5 17.5t177.5 32t135.5 51t82 72.5z" />
    <glyph glyph-name="three" unicode="3" horiz-adv-x="2060" 
d="M1841 1403l-878 -567q50 4 65 4q182 0 333.5 -23.5t268 -70.5t181.5 -124t65 -178q0 -91 -56 -170t-147.5 -133.5t-208 -93.5t-238.5 -57.5t-239 -18.5q-142 0 -271 20t-216.5 49t-158 64t-106.5 62.5t-51 48.5l62 309q87 -211 272.5 -334.5t454.5 -123.5
q120 0 219.5 37.5t161 113t61.5 174.5q0 94 -81 176t-216.5 130t-288.5 48q-19 0 -59 -6l4 4l449 396q-117 17 -234.5 24t-240.5 0t-222 -29.5t-172.5 -69.5t-97.5 -116l-25 6l91 480h1519v-31z" />
    <glyph glyph-name="four" unicode="4" horiz-adv-x="2048" 
d="M1946 362h-271v-16q0 -79 6 -143.5t14 -100.5t16 -60.5t14 -33.5l6 -8h-568q3 2 7 8t14.5 31t19 59.5t15 98.5t6.5 143v10v12h-1143v95l1001 999l744 -6l-1534 -993h932v370h450v-370h271v-95z" />
    <glyph glyph-name="five" unicode="5" horiz-adv-x="2101" 
d="M184 215l62 309q87 -211 272.5 -334.5t454.5 -123.5q201 0 332 91.5t131 254.5q0 125 -92.5 213.5t-237.5 124t-329 23t-361 -78.5h-90l77 748q138 0 348.5 -4.5t366.5 -7.5t315 -2.5t261.5 11.5t138.5 34l25 -7l-9 -336l-1370 29l-43 -362q281 84 592 84q131 0 239 -7.5
t211.5 -25t181 -49t137 -76.5t90 -110t30.5 -148q0 -97 -58.5 -180t-153.5 -139.5t-217.5 -97t-250 -59t-250.5 -18.5q-142 0 -271 20t-216.5 49t-158 64t-106.5 62.5t-51 48.5z" />
    <glyph glyph-name="six" unicode="6" horiz-adv-x="2355" 
d="M1282 907q153 0 281 -14t238.5 -45.5t186.5 -80.5t119 -122t43 -166q0 -103 -56 -190.5t-149 -147.5t-214.5 -102.5t-250.5 -62t-259 -19.5q-218 0 -420 48.5t-351 132t-238 201.5t-89 249q0 80 21.5 161t72.5 167.5t127.5 164.5t194 148t263.5 120.5t345 80.5t430 30
l283 -274q-97 10 -200.5 12.5t-224 -6t-232 -29.5t-220.5 -63t-193.5 -100t-145.5 -146t-83 -197q35 39 100.5 80.5t156 80.5t213 64t251.5 25zM1206 51q216 0 350 98t134 277q0 65 -30 123.5t-82.5 103t-125.5 76t-156.5 47t-179.5 11t-190 -27.5t-191.5 -72t-181.5 -120
q-8 -109 26 -198t97 -147t150.5 -97.5t182 -56.5t197.5 -17z" />
    <glyph glyph-name="seven" unicode="7" horiz-adv-x="1910" 
d="M1849 1434l-217 -332l-256 -471h236v-94h-287l-293 -537h-696l602 537h-563v94h669l527 469v2q-73 3 -162.5 5.5t-262.5 4t-328.5 -7.5t-312 -26t-263.5 -55t-136 -91l-24 6l90 496h1677z" />
    <glyph glyph-name="eight" unicode="8" horiz-adv-x="2428" 
d="M1829 758q205 -57 320.5 -149.5t115.5 -219.5q0 -122 -133.5 -218t-348.5 -146t-468 -50q-304 0 -567.5 60t-423.5 168t-160 239q0 308 594 377q-205 46 -324 127.5t-119 192.5q0 66 48 124.5t145.5 107t264.5 76.5t386 28q105 0 228.5 -13.5t251.5 -43.5t232 -71
t170 -102t66 -131q0 -118 -120.5 -199t-325.5 -120q78 -13 168 -37zM1122 1407q-197 0 -293 -57t-96 -158q0 -86 52 -156t137 -112.5t185 -65t204 -22.5q102 0 178 19.5t118.5 53t62.5 73.5t20 85q0 99 -75.5 177.5t-204.5 120.5t-288 42zM1323 72q235 0 342 78t107 208
q0 168 -195 286t-506 118q-202 0 -317 -69.5t-115 -184.5q0 -76 40.5 -145t109 -121t156.5 -91t185.5 -59t192.5 -20z" />
    <glyph glyph-name="nine" unicode="9" horiz-adv-x="2355" 
d="M1135 1475q218 0 419.5 -48.5t350.5 -132t238 -201.5t89 -249q0 -80 -21.5 -161t-72.5 -167.5t-127.5 -164.5t-194 -148.5t-263.5 -121t-345 -80.5t-430 -30l-282 275q97 -10 200 -12.5t224 6t232.5 29.5t220 62.5t193 99.5t145.5 146t83 197q-35 -39 -100.5 -80.5
t-156 -80.5t-213 -64t-251.5 -25q-153 0 -281 14t-238.5 45.5t-186.5 80.5t-119 122t-43 166q0 103 56.5 190.5t149.5 147.5t214.5 102.5t250.5 62.5t259 20zM666 1006q0 -74 38.5 -139.5t106.5 -111.5t156 -76t193.5 -33.5t213 14.5t220 70.5t208.5 133.5q8 109 -26 198
t-97 147t-150.5 97.5t-182 56.5t-197.5 17q-216 0 -349.5 -97.5t-133.5 -276.5z" />
    <glyph glyph-name="colon" unicode=":" horiz-adv-x="718" 
d="M309 764q-95 0 -143.5 36t-48.5 83q0 71 84.5 124.5t206.5 53.5q194 0 194 -119q0 -62 -84 -120t-209 -58zM309 -20q-95 0 -143.5 35.5t-48.5 82.5q0 71 84.5 124.5t206.5 53.5q194 0 194 -118q0 -62 -84 -120t-209 -58z" />
    <glyph glyph-name="semicolon" unicode=";" horiz-adv-x="718" 
d="M309 764q-95 0 -143.5 36t-48.5 83q0 71 84.5 124.5t206.5 53.5q194 0 194 -119q0 -62 -84 -120t-209 -58zM387 281q112 0 163.5 -40t51.5 -100v-4q-3 -54 -39.5 -109.5t-89 -99t-115 -81.5t-115.5 -62t-93 -35q35 29 57.5 49.5t51 52.5t43 65.5t13.5 66.5h-6
q-95 0 -143.5 35.5t-48.5 82.5q0 70 81 124.5t189 54.5z" />
    <glyph glyph-name="less" unicode="&#x3c;" horiz-adv-x="1120" 
d="M1038 997v95l-956 -461v-94l956 -465v94l-862 418z" />
    <glyph glyph-name="equal" unicode="=" 
d="M1077 840v-95h-921v95h921zM1077 420v-94h-921v94h921z" />
    <glyph glyph-name="greater" unicode="&#x3e;" horiz-adv-x="1120" 
d="M82 997l862 -413l-862 -418v-94l956 465v94l-956 461v-95z" />
    <glyph glyph-name="question" unicode="?" horiz-adv-x="2054" 
d="M209 1243q394 232 881 232q169 0 309 -18t252.5 -56t175.5 -103.5t63 -154.5q0 -65 -29 -119.5t-76.5 -91t-109.5 -69.5t-127 -56.5t-129.5 -51.5t-117 -54t-89 -65t-46.5 -83.5t12 -110.5h-396q-24 109 -4 179.5t75 125t125.5 87.5t148 66.5t141.5 63t105.5 76
t41.5 105.5q0 103 -101.5 168t-256.5 71q-58 0 -105 -3.5t-109.5 -16.5t-114.5 -35t-113 -62.5t-113 -96t-106.5 -138t-100.5 -186.5zM950 -20q125 0 209 58t84 120q0 118 -194 118q-122 0 -206.5 -53.5t-84.5 -124.5q0 -47 48.5 -82.5t143.5 -35.5z" />
    <glyph glyph-name="at" unicode="@" horiz-adv-x="2689" 
d="M1661 950l315 66q-9 -21 -14.5 -67t-8 -114.5t-4 -127t-2 -143t-1.5 -124.5q2 -94 40.5 -145t139.5 -51q48 0 106.5 29t112.5 80t90.5 131.5t36.5 172.5q0 124 -51 227.5t-131.5 173.5t-189.5 124t-216 85t-220 50.5t-192 26t-141 6.5q-161 0 -322 -32t-307 -97
t-259 -154.5t-179.5 -214t-66.5 -266.5q0 -138 64 -256.5t171.5 -202t248 -143.5t293.5 -88.5t308 -28.5q207 0 415.5 46.5t319.5 106.5l17 -94q-119 -60 -329.5 -106.5t-424.5 -46.5q-172 0 -337.5 29t-321 93.5t-272 157.5t-187 231t-70.5 304q0 116 38 222t106 191
t160.5 157t203 124t232.5 89t248.5 55t252.5 18q106 0 219.5 -12.5t236 -42t234.5 -72t213 -107t175.5 -143.5t118.5 -185t44 -227q0 -49 -16 -108.5t-59 -131.5t-107.5 -129.5t-174 -96.5t-245.5 -39q-142 0 -251 44.5t-150 141.5q-58 -85 -159 -134.5t-238 -49.5
q-75 0 -149.5 18t-143 54.5t-121.5 87.5t-83.5 122.5t-29.5 153.5q0 139 81.5 245t224 162t323.5 56q197 0 385 -101zM1356 291q135 0 200 121v168q0 53 -9 107t-32.5 111t-58 100.5t-91 71t-126.5 27.5q-98 0 -160.5 -71t-62.5 -221q0 -188 98.5 -301t241.5 -113z" />
    <glyph glyph-name="A" unicode="A" horiz-adv-x="2381" 
d="M61 0q151 137 345 436q95 149 267.5 425.5t239.5 383.5q-148 144 -288 178v11h733l549 -836l100 -156q93 -145 195 -277t159 -165h-741q45 55 -47 244l-115 190h-870l-137 -227q-70 -126 -35 -207h-355zM643 528h758l-277 455q-66 100 -112 156z" />
    <glyph glyph-name="B" unicode="B" horiz-adv-x="2217" 
d="M1458 754q152 -7 270.5 -29t194.5 -53.5t125 -74t69 -87.5t19 -96q0 -120 -117 -215.5t-322.5 -148t-459.5 -50.5q-348 -3 -645 0h-387l6 9t13.5 32.5t16.5 61t13 99.5t6 144l6 741q0 79 -6.5 143.5t-15 100.5t-17.5 61t-15 34l-7 8h567h385q243 0 423 -36.5t281 -109.5
t101 -176q0 -281 -504 -358zM956 1339q-106 0 -223 -20q-16 -106 -16 -234v-264q145 -56 393 -59q190 0 311 75t121 183q0 77 -29 134t-78 92.5t-126 56.5t-160 28.5t-193 7.5zM1171 94q110 0 194.5 13t151.5 42.5t102.5 82.5t35.5 128q0 73 -42.5 131t-117.5 96t-167 65
t-201 40t-209 18t-201 3v-367q0 -82 8 -172q186 -80 446 -80z" />
    <glyph glyph-name="C" unicode="C" horiz-adv-x="2134" 
d="M2073 463q-34 -60 -91.5 -125.5t-148.5 -136.5t-197 -126.5t-247 -91.5t-289 -36q-150 0 -293.5 35t-262.5 101t-209.5 154t-141 200.5t-50.5 234.5q0 192 87 354.5t236 272t350 170.5t427 61q147 0 285 -22t229 -53t161.5 -62.5t103.5 -53.5l32 -22l-100 -496
q-10 12 -27.5 31.5t-76 77t-121 110t-157.5 116t-189.5 109.5t-212.5 77.5t-232 31.5q-209 0 -350.5 -128t-141.5 -314q0 -113 50.5 -221.5t138 -194t198.5 -150.5t239 -100t253 -35q491 0 711 295z" />
    <glyph glyph-name="D" unicode="D" horiz-adv-x="2351" 
d="M1227 1434q161 0 303 -18.5t272 -62.5t223 -111t148 -169.5t55 -232.5q0 -129 -46.5 -251.5t-141 -229.5t-227 -187.5t-317 -127t-398.5 -46.5h-305h-568l6 9t13.5 33t17 62t13.5 100t6 144l6 741q0 79 -6.5 143.5t-15.5 100.5t-18 61t-15 34l-7 8h568h434zM1157 84
q152 0 268.5 45t188 127t107.5 191t36 243t-38 243.5t-103.5 184t-155 125t-190 73.5t-211.5 23q-176 4 -307 -39q-15 -96 -15 -215v-739q0 -105 8 -162q163 -100 412 -100z" />
    <glyph glyph-name="E" unicode="E" horiz-adv-x="2379" 
d="M2099 526l76 -8l-90 -526l-1880 8q2 3 5.5 9t11.5 32.5t14.5 61t12 99.5t5.5 144l6 741q0 125 -14 211.5t-28 111.5l-13 24h1798l90 -521l-76 -8q-69 113 -138.5 188.5t-150.5 124.5t-176.5 74t-215.5 36t-269 11.5t-336 -0.5q-20 -106 -20 -254v-280h1218v-94h-1218
v-365q0 -146 20 -252q66 0 188 -1q169 -2 303 -1.5t243 12.5t196.5 37t163 74.5t141.5 124.5t133 186z" />
    <glyph glyph-name="F" unicode="F" horiz-adv-x="2215" 
d="M731 1339q-20 -106 -20 -254v-362h1218v-94h-1218v-283q0 -79 5.5 -143.5t13.5 -100.5t16.5 -60.5t13.5 -33.5l6 -8h-561q2 3 5.5 9t11.5 32.5t14.5 61t12 99.5t5.5 144l6 741q0 125 -14 211.5t-28 111.5l-13 24h1798l90 -521l-76 -8q-69 113 -138.5 188.5t-150.5 124.5
t-176.5 74t-215.5 36t-269 11.5t-336 -0.5z" />
    <glyph glyph-name="G" unicode="G" horiz-adv-x="2242" 
d="M1339 700h740l-51 -700l-68 -2l-43 315q-66 -70 -149 -131.5t-190.5 -116t-242 -86.5t-276.5 -32q-187 0 -356 55.5t-292 150.5t-195.5 230.5t-72.5 288.5q0 193 80.5 354.5t221.5 271.5t336 171t421 61q147 0 285 -22t229 -53t161.5 -62.5t102.5 -53.5l33 -22l-100 -455
q-10 11 -27.5 29.5t-76 71.5t-121 101.5t-157.5 107.5t-189.5 101.5t-212.5 71.5t-232 29q-137 0 -250 -58.5t-177 -160t-64 -223.5q0 -142 58 -269t159 -220.5t245.5 -150.5t309.5 -61q332 5 466 107q82 63 57 136q-23 69 -126 108q-100 38 -236 30v88z" />
    <glyph glyph-name="H" unicode="H" horiz-adv-x="2557" 
d="M2257 1085v-739q0 -79 5.5 -143.5t13.5 -100.5t16.5 -60.5t13.5 -33.5l6 -8h-567l6 9t13.5 32.5t16.5 61t13 99.5t6 144l2 365h-1050v-365q0 -125 14 -211.5t28 -110.5l13 -24h-561q2 3 5.5 9t11.5 32.5t14.5 61t12 99.5t5.5 144l6 741q0 79 -5.5 143.5t-13.5 100.5
t-16.5 61t-13.5 34l-6 8h561l-6 -9t-13.5 -32.5t-16.5 -62t-13 -101t-6 -144.5v-280h1052l2 282q0 79 -6.5 143.5t-15 100.5t-17.5 61t-15 34l-7 8h567l-6 -9t-13.5 -32.5t-16.5 -62t-13 -101t-6 -144.5z" />
    <glyph glyph-name="I" unicode="I" horiz-adv-x="976" 
d="M205 1434h567l-6 -9t-13.5 -32.5t-16.5 -62t-13 -101t-6 -144.5v-739q0 -79 5.5 -143.5t13.5 -100.5t16.5 -60.5t13.5 -33.5l6 -8h-567l6 9t13.5 32.5t16.5 61t13 99.5t6 144l6 741q0 79 -6.5 143.5t-15 100.5t-17.5 61t-15 34z" />
    <glyph glyph-name="J" unicode="J" horiz-adv-x="1067" 
d="M862 1434q-2 -3 -5.5 -10t-13 -35.5t-16.5 -64t-12.5 -99.5t-5.5 -140l2 -749q0 -98 -33 -179.5t-86.5 -138t-129.5 -100t-155 -70t-169 -43t-166 -22.5t-152 -6l-2 41q211 0 321.5 119t110.5 337l8 811q0 76 -5.5 139.5t-13 100.5t-15.5 63t-14 36l-5 10h557z" />
    <glyph glyph-name="K" unicode="K" horiz-adv-x="2430" 
d="M1233 903q115 -111 202.5 -194.5t239 -220t262.5 -226t222.5 -160t169.5 -73.5v-33l-787 -2q0 20 -57 94.5t-149 171.5t-194.5 191.5t-208 164.5t-175.5 80v-329q0 -125 14 -216.5t28 -120.5l13 -30h-567l6 9t13.5 32.5t16.5 61t13 99.5t6 144l6 741q0 125 -15.5 211.5
t-30.5 111.5l-15 24h567l-6 -9t-13.5 -32.5t-16.5 -62t-13 -101t-6 -144.5v-303q172 83 448 246t466 284l190 122l340 4v-33q-60 0 -147 -32t-209 -99.5t-233.5 -135t-282.5 -174.5q-64 -41 -97 -61z" />
    <glyph glyph-name="L" unicode="L" horiz-adv-x="1949" 
d="M1839 500l39 -33l-90 -475l-1583 8l6 9t13.5 32.5t16.5 61t13 99.5t6 144l6 741q0 79 -6.5 143.5t-15 100.5t-17.5 61t-15 34l-7 8h567l-6 -9t-13.5 -32.5t-16.5 -62t-13 -101t-6 -144.5v-739q0 -144 20 -250q171 6 324 28.5t305.5 67t275.5 123t197 185.5z" />
    <glyph glyph-name="M" unicode="M" horiz-adv-x="2799" 
d="M2494 547q44 -116 76 -194t84.5 -181.5t104.5 -171.5h-594q2 79 -45 244l-211 606q-58 154 -107 260l-448 -1108h-60l-75 135v2l-404 733q-23 37 -71.5 118t-75.5 124l-244 -815q-52 -211 -39 -299l-258 -2q51 92 123 301l311 967q-61 80 -141 168h563q55 -132 147 -312
l297 -540l312 665q-58 112 -109 187h565q40 -187 111 -387z" />
    <glyph glyph-name="N" unicode="N" horiz-adv-x="2418" 
d="M2165 104l110 -104h-69h-273h-317q-179 174 -591 584.5t-579 572.5q-2 -23 -2 -72v-739q0 -79 6.5 -143.5t15.5 -100.5t18 -60.5t16 -33.5l6 -8h-273q3 3 7 9t14.5 32.5t19 61t15 99.5t6.5 144l6 741q0 120 -16 222q-92 85 -142 125h635l1215 -1164q2 23 2 76l6 741
q0 79 -6.5 143.5t-15.5 100.5t-18 61t-15 34l-7 8h267q-3 -3 -7 -9t-14.5 -32.5t-19 -62t-15 -101t-6.5 -144.5v-739q0 -131 21 -242z" />
    <glyph glyph-name="O" unicode="O" horiz-adv-x="2621" 
d="M1266 -55q-308 0 -559.5 95.5t-397 267.5t-145.5 386q0 128 47.5 243.5t131 206t197.5 163.5t248 121.5t281.5 74t298.5 25.5q309 0 551.5 -87.5t380 -251.5t137.5 -378q0 -153 -63.5 -290.5t-175.5 -241t-259.5 -180t-320 -115.5t-352.5 -39zM1495 119q105 0 191.5 27.5
t144.5 74t98 110t58 133t18 144.5q0 114 -37 220.5t-100.5 191t-149.5 154t-183.5 116t-202.5 71.5t-206 25q-137 0 -238 -39t-159 -108t-85.5 -154.5t-27.5 -187.5q0 -61 14.5 -129.5t47 -144.5t80.5 -147.5t120 -136.5t159.5 -113.5t205.5 -77.5t252 -29z" />
    <glyph glyph-name="P" unicode="P" horiz-adv-x="2238" 
d="M1329 1434q242 0 420.5 -46.5t282.5 -147t104 -247.5q0 -96 -39 -177t-105.5 -138t-150.5 -100.5t-180 -68.5t-187 -37.5t-178 -12.5q-323 0 -579 84v-197q0 -79 5.5 -143.5t13.5 -100.5t16.5 -60.5t13.5 -33.5l6 -8h-567l6 9t13.5 32.5t16.5 61t13 99.5t6 144l6 741
q0 79 -6.5 143.5t-15 100.5t-17.5 61t-15 34l-7 8h567h557zM1253 553q70 0 128 8t114 30.5t94.5 58t62 94t23.5 135.5q0 136 -83 242t-225 162t-318 56q-193 0 -318 -34q-14 -93 -14 -220v-413q190 -116 536 -119z" />
    <glyph glyph-name="Q" unicode="Q" horiz-adv-x="2621" 
d="M1075 -84q75 14 159.5 15t166 -12.5t170 -28t170.5 -31t168.5 -22.5t164 -1t156.5 32.5t146 78.5l20 -19q-230 -340 -463 -340q-67 0 -195 20.5t-255 45t-285 45t-286 21t-257 -28.5l-10 20l432 262q-252 26 -449.5 124t-310 254t-112.5 343q0 153 67.5 285.5t183.5 228
t269 164t327.5 102t356.5 33.5q311 0 552 -82t379 -241t138 -373q0 -152 -64.5 -286t-176 -232.5t-260 -171t-319 -111.5t-351.5 -45q-68 -3 -136 0zM657 897q0 -61 14.5 -129.5t47 -144.5t80.5 -147.5t120 -136.5t159.5 -113.5t205.5 -77.5t252 -29q105 0 191.5 27.5
t144.5 74t98 110t58 133t18 144.5q0 114 -37 220.5t-100.5 191t-149.5 154t-183.5 116t-202.5 71.5t-206 25q-137 0 -238 -39t-159 -108t-85.5 -154.5t-27.5 -187.5z" />
    <glyph glyph-name="R" unicode="R" horiz-adv-x="2473" 
d="M1542 594q32 -27 107 -91t114 -97.5t108.5 -90t112 -88.5t102 -73t101 -63t86 -39t78.5 -19v-33h-747q0 10 -12.5 31t-24.5 35q-305 349 -498 462q-207 119 -338 125v-307q0 -79 5.5 -143.5t13.5 -100.5t16.5 -60.5t13.5 -33.5l6 -8h-567q2 3 5.5 9t13 32.5t16.5 61
t13 99.5t7 144l7 741q1 90 -7 161t-19 108t-22.5 61t-19.5 31l-8 6h928q239 0 413.5 -18t284.5 -50.5t175 -84t89.5 -110t24.5 -138.5q0 -163 -161 -288.5t-417 -170.5zM731 1065v-289q97 -56 207.5 -88.5t267.5 -32.5q85 0 164.5 19.5t144.5 56t104.5 95.5t39.5 132
q0 104 -49.5 182.5t-137.5 125.5t-199 70.5t-243 23.5q-160 0 -282 -21q-17 -157 -17 -274z" />
    <glyph glyph-name="S" unicode="S" horiz-adv-x="2437" 
d="M301 1051q0 67 33.5 132.5t103.5 125.5t167.5 106t236.5 73.5t301 27.5q279 0 521.5 -49t485.5 -152l-114 -402q-96 126 -213.5 221.5t-220.5 147.5t-212.5 84t-181.5 41.5t-135 9.5q-88 -3 -156.5 -18.5t-109.5 -37t-67.5 -49.5t-36 -53.5t-9.5 -52.5q0 -106 160 -174
q107 -46 389 -105h1h1h1l1 -1h1h1l1 -1h1h1h1h1l1 -1h1h1h1h1l1 -1h1h1h1h1l1 -1h1h1h1l1 -1h1h1h1h1l1 -1h1h1h1h1l1 -1h1h1h1h1l2 -1h1q49 -11 147 -32q94 -20 140.5 -30t129.5 -30t126.5 -34.5t109.5 -38t100.5 -45.5t77.5 -53t64 -64t36 -75t15 -90q0 -91 -56.5 -170
t-151.5 -135t-217.5 -96.5t-255.5 -60t-265 -19.5q-295 0 -576.5 67.5t-504.5 198.5l131 420q72 -138 192.5 -249t263.5 -181t298.5 -107t306.5 -37q183 0 296 57t113 138q0 28 -8 51t-29 43.5t-44.5 36.5t-67.5 33t-85 30t-109.5 30t-128 30t-152.5 33q-97 22 -161 37
t-144 35t-132 37t-113 38.5t-100 42.5t-80.5 47.5t-66 55t-45.5 62.5t-30 73t-9 84z" />
    <glyph glyph-name="T" unicode="T" horiz-adv-x="2338" 
d="M2167 1440l90 -527l-35 -8q-79 128 -155 209t-169.5 129.5t-194.5 69t-247 26.5q-20 -106 -20 -254v-739q0 -125 14 -211.5t28 -110.5l13 -24h-561q2 3 5.5 9t11.5 32.5t14.5 61t12 99.5t5.5 144l6 741q0 146 -20 252q-147 -6 -248 -26.5t-194.5 -69t-169 -129.5
t-154.5 -209l-35 8l90 527l956 -6z" />
    <glyph glyph-name="U" unicode="U" horiz-adv-x="2207" 
d="M2032 1192v-107l2 -274q0 -90 -12 -173.5t-40.5 -169t-72.5 -158t-112 -136.5t-154.5 -109t-204.5 -70.5t-258 -25.5q-483 0 -711 194t-219 568l8 354q3 120 -11 207t-26 114.5t-16 27.5h577q-2 -3 -5.5 -10t-13 -35.5t-16.5 -64t-12.5 -99.5t-5.5 -140l2 -415
q0 -566 510 -566q140 0 250 37t183 102t121 158.5t69 200.5t22 234v84l2 167q0 79 -6 143.5t-14 100.5t-16.5 61t-14.5 34l-6 8h254q-5 -6 -12 -19t-21.5 -75t-19.5 -148z" />
    <glyph glyph-name="V" unicode="V" horiz-adv-x="2222" 
d="M1808 795l-10 -17l-463 -778h-372l-529 823q-34 53 -87.5 135.5t-170.5 248.5t-176 227h721q-14 -17 -14 -47.5t9 -63t26 -71t32 -67t31 -55.5l22 -36l506 -830l453 801q71 140 92.5 225.5t1.5 143.5h342q-141 -184 -309 -463z" />
    <glyph glyph-name="W" unicode="W" horiz-adv-x="3350" 
d="M3019 1434h311q-70 -93 -145 -220l-639 -1214h-363l-495 922q-4 6 -11 20l-495 -942h-363l-495 922q-12 22 -64.5 122t-80 150t-74 123t-85.5 117h639q-2 0 7 -42t39.5 -131t76.5 -184l389 -782l418 813q-118 227 -205 326h639q-2 0 7 -42t39.5 -131t76.5 -184l389 -782
l347 676q45 103 75.5 188.5t42 134t17 82.5t3.5 46z" />
    <glyph glyph-name="X" unicode="X" horiz-adv-x="2680" 
d="M1972 414q303 -278 504 -414h-88h-653h-154q0 48 -38.5 120t-98 145.5t-102.5 121t-80 84.5l-146 143l-467 -462q-93 -103 -76 -152h-342q195 140 361 287l428 426l-115 112l-44.5 44.5t-113 109.5t-165.5 153.5t-186.5 159t-190.5 144.5h874q0 -117 234 -365l112 -113
l82 -81l375 364q140 140 123 193h342q-216 -155 -405 -324l-338 -330z" />
    <glyph glyph-name="Y" unicode="Y" horiz-adv-x="2144" 
d="M0 1434h680q16 -76 84 -183.5t182 -226.5l309 -293l310 311q129 129 187 217.5t87 174.5h305q-79 -60 -163 -137.5t-136.5 -131.5t-138.5 -147q-303 -318 -350 -365v-307q0 -125 14 -211.5t28 -110.5l13 -24h-569l6 9t13.5 32.5t17 61t13.5 99.5t7 144l2 307l-391 355
q-116 105 -165.5 149t-151.5 128t-193 149z" />
    <glyph glyph-name="Z" unicode="Z" horiz-adv-x="2310" 
d="M2030 483l75 -8l-90 -475h-1239h-110h-461l1286 1364q-102 2 -199.5 -2.5t-215 -18t-222 -44t-203 -75t-177.5 -115.5t-126 -161l-76 8l90 480h1739l-1261 -1368q80 -1 168.5 -2t189 9.5t197.5 26t193.5 48.5t178.5 76t151.5 109.5t111.5 147.5z" />
    <glyph glyph-name="bracketleft" unicode="[" 
d="M612 1413v-1524h359v-94h-858q2 3 5.5 9t11.5 32.5t14.5 61t12 99.5t5.5 144v1016q0 79 -5 144.5t-12 102t-14.5 61.5t-12.5 33l-5 9h858v-94h-359z" />
    <glyph glyph-name="backslash" unicode="\" 
d="M262 1587q21 -100 78 -284l338 -1113q89 -292 143 -421h-116q-44 165 -80 282l-340 1116q-3 9 -20.5 67.5t-28.5 91.5t-28.5 86.5t-33.5 97t-31 77.5h119z" />
    <glyph glyph-name="bracketright" unicode="]" horiz-adv-x="1144" 
d="M932 1157v-1016q0 -79 5 -143.5t12 -100.5t14.5 -60.5t12.5 -32.5l5 -9h-858v94h358v252v1018v254h-358v94h858q-5 -8 -13.5 -26.5t-22 -108t-13.5 -215.5z" />
    <glyph glyph-name="asciicircum" unicode="^" 
d="M651 1430l-303 -525l303 234l303 -234z" />
    <glyph glyph-name="underscore" unicode="_" horiz-adv-x="1234" 
d="M102 -82h1031v-94h-1031v94z" />
    <glyph glyph-name="grave" unicode="`" 
d="M205 1503l182 197l588 -483l-12 -17z" />
    <glyph glyph-name="a" unicode="a" horiz-adv-x="2150" 
d="M1929 340q0 -234 58 -285v-6l-467 -67v309q-178 -113 -424.5 -222.5t-360.5 -109.5q-164 0 -283.5 21t-184.5 58.5t-94.5 81.5t-29.5 97q0 107 113.5 190t296 125.5t397.5 42.5q120 0 307.5 -6.5t262.5 -15.5v59q0 62 -60 114t-159 81t-214 29q-106 0 -210.5 -21
t-194 -58.5t-149.5 -68t-128 -72t-79 -47.5h-9l-67 297q151 99 415.5 167.5t487.5 68.5q181 0 317 -24t222.5 -66t140 -106t75 -137t21.5 -167v-262zM827 203q159 0 326.5 29.5t366.5 117.5v144q-283 0 -468 -11t-284.5 -35t-137.5 -54.5t-38 -76.5q0 -41 70 -77.5
t165 -36.5z" />
    <glyph glyph-name="b" unicode="b" horiz-adv-x="2242" 
d="M1333 1077q241 0 415.5 -52.5t273 -164t98.5 -274.5q0 -133 -91 -252t-239.5 -200t-339.5 -128t-389 -47q-108 0 -255.5 29t-275.5 86l-325 -105l-6 4q41 79 41 383v830q0 61 -9 108t-24 72.5t-27.5 38.5t-25.5 20v9l495 174v-846q178 126 379 220.5t305 94.5zM1278 94
q75 0 149 23t135.5 64t99.5 106.5t38 142.5q0 96 -41.5 173t-111 124.5t-155 72t-178.5 23.5q-329 4 -565 -143v-326q95 -114 256.5 -186.5t372.5 -73.5z" />
    <glyph glyph-name="c" unicode="c" horiz-adv-x="1984" 
d="M1604 553q-52 88 -134.5 168.5t-182 142t-217 96t-230.5 29.5q-182 0 -273.5 -80t-91.5 -229q0 -93 38.5 -173t110 -140t182.5 -94.5t247 -34.5q217 0 434.5 64t327.5 177l10 -8l-43 -272q-96 -87 -318 -157.5t-471 -70.5q-180 0 -338 38t-276.5 106.5t-187 172.5
t-68.5 228q0 129 85 242.5t220 188.5t300.5 118t330.5 43q92 0 150.5 -2t151 -12.5t163 -30t156.5 -57.5t161 -93l-225 -360h-12z" />
    <glyph glyph-name="d" unicode="d" horiz-adv-x="2256" 
d="M2056 369q0 -229 58 -287v-6l-467 -107v344q-183 -137 -404 -245.5t-334 -108.5q-241 0 -415 53t-272.5 164.5t-98.5 274.5q0 133 91 251.5t239.5 199.5t339.5 128t389 47q93 0 220 -22.5t245 -65.5v197q0 109 -25.5 165.5t-56.5 73.5v11l491 172v-1239zM1028 213
q370 -4 619 180v209q-76 143 -254.5 240t-427.5 100q-75 0 -149 -23t-135.5 -64t-99.5 -106.5t-38 -142.5q0 -96 41.5 -173t110.5 -124.5t154.5 -72t178.5 -23.5z" />
    <glyph glyph-name="e" unicode="e" horiz-adv-x="1966" 
d="M1057 238q187 0 412 56t346 150l8 -10l-150 -235q-142 -104 -341.5 -166.5t-403.5 -61.5q-168 0 -312.5 35t-255 102t-174 172t-63.5 236q0 117 78 226.5t207.5 189.5t304.5 128t360 48q167 0 303.5 -32.5t242.5 -99.5t165 -179.5t59 -261.5h-1339q58 -139 214.5 -218
t338.5 -79zM842 983q-182 0 -274.5 -79.5t-92.5 -223.5q0 -22 4 -62l938 50q-25 89 -83.5 152.5t-139.5 98t-167 49.5t-185 15z" />
    <glyph glyph-name="f" unicode="f" horiz-adv-x="1374" 
d="M735 1063v-14l594 49l-37 -236l-557 39v-555q0 -84 7 -151t16.5 -101.5t19 -57.5t16.5 -30l7 -6h-504q4 5 10.5 25t17.5 143.5t11 320.5v441l-244 16v47l244 21v59q0 129 42.5 230.5t112 165.5t166.5 105.5t198 58t214 16.5q52 0 109.5 -9t125 -29t130.5 -61t104 -98
l-278 -246q-42 188 -119.5 288.5t-175.5 100.5q-113 0 -171.5 -134.5t-58.5 -397.5z" />
    <glyph glyph-name="g" unicode="g" horiz-adv-x="2031" 
d="M528 373q0 -51 75 -77.5t194.5 -33.5t264.5 -8.5t290 -10t264.5 -30t194.5 -76t75 -141.5q0 -74 -71.5 -146.5t-192 -129t-292 -91.5t-357.5 -35q-182 0 -352.5 27.5t-307 84.5t-190.5 134l340 201q-136 27 -209.5 74t-73.5 125q0 129 287 200q-252 97 -252 303
q0 91 117 171.5t304 126.5t388 46q381 0 557 -90q144 14 381 99l49 -191l-313 -4q41 -56 41 -133q0 -103 -109 -193.5t-299.5 -145t-412.5 -54.5q-203 0 -340 35q-50 -33 -50 -37zM856 1020q-87 0 -150 -46t-63 -130q0 -393 481 -393q77 0 130 41.5t53 113.5
q0 105 -42 187.5t-109.5 130t-144.5 72t-155 24.5zM1528 -119q0 29 -29 49.5t-84 32t-122 19t-155.5 11.5t-171 6.5t-181 8t-173.5 12.5q-11 -23 -11.5 -49t8.5 -53.5t30 -55t50.5 -53t73 -47.5t94.5 -38t117.5 -25.5t139.5 -9.5q156 0 285 58.5t129 133.5z" />
    <glyph glyph-name="h" unicode="h" horiz-adv-x="2271" 
d="M1634 0q17 73 17 449v34q0 351 -484 351q-282 0 -489 -148v-340q0 -134 12 -220.5t24 -105.5l11 -20h-473q14 46 16 489l2 697q0 61 -9 108t-24 72.5t-27.5 38.5t-25.5 20v9l496 174l-2 -838q105 88 257 167.5t256.5 117t131.5 37.5q737 6 737 -490v-256
q4 -134 15.5 -220.5t21.5 -105.5l10 -20h-473z" />
    <glyph glyph-name="i" unicode="i" horiz-adv-x="935" 
d="M438 1292q-188 0 -188 72q0 53 82 94t200 41q191 0 191 -76q0 -52 -85.5 -91.5t-199.5 -39.5zM258 0q4 5 10 25t16.5 143.5t10.5 320.5l2 195q0 69 -14.5 120.5t-38.5 78.5t-45.5 39.5t-44.5 17.5v10l551 135v-739q0 -84 7 -151t16.5 -101.5t19.5 -57.5t17 -30l7 -6h-514
z" />
    <glyph glyph-name="j" unicode="j" horiz-adv-x="854" 
d="M385 1292q-188 0 -188 72q0 53 82 94t200 41q191 0 191 -76q0 -52 -85.5 -91.5t-199.5 -39.5zM162 913l497 172v-1126q0 -87 -57 -156t-148 -109.5t-195 -61.5t-208 -21q104 11 151.5 107t47.5 323v698q0 85 -27.5 122.5t-60.5 43.5v8z" />
    <glyph glyph-name="k" unicode="k" horiz-adv-x="1978" 
d="M150 1407v14l536 187v-990l805 406h246v-4l-539 -264q43 -44 154 -160.5t177 -184t158 -158t163.5 -151t127.5 -94.5v-8h-620q-69 84 -128.5 153.5t-95.5 111t-87 95t-68 70.5l-75 75l-73 73l-145 -72v-160q0 -84 7 -151t16.5 -101.5t19 -57.5t16.5 -30l7 -6h-514
q2 2 4.5 7.5t9 37.5t11.5 79.5t9 144t4 220.5v584q0 98 -9.5 164t-28 100.5t-38.5 49t-50 20.5z" />
    <glyph glyph-name="l" unicode="l" horiz-adv-x="919" 
d="M154 1421l536 187v-1262q0 -84 7 -151t16.5 -101.5t19 -57.5t16.5 -30l7 -6h-514q4 5 10.5 25t17.5 143.5t11 320.5v584q0 98 -9.5 164t-28.5 100.5t-39 49t-50 20.5v14z" />
    <glyph glyph-name="m" unicode="m" horiz-adv-x="3598" 
d="M2961 0q17 73 17 449v34q0 78 -23 138.5t-76 110t-148.5 76t-231.5 26.5q-108 0 -246 -47t-240 -132q2 -18 2 -53v-256q4 -134 15.5 -220.5t21.5 -105.5l10 -20h-473q17 73 17 449v34q0 62 -14 112.5t-48 96t-87.5 76t-137.5 48.5t-193 18q-275 0 -479 -142v-346
q0 -84 5 -151t11.5 -101.5t13.5 -57.5t12 -30l5 -6h-473q17 46 17 489l2 236q0 58 -5 103t-11.5 69.5t-15 41t-13.5 21t-9 5.5l461 120v-307q80 66 189 128.5t200.5 101t159.5 61.5t86 23q620 6 715 -349q80 76 189 146t200.5 112t160 66.5t87.5 24.5q377 3 565 -123
t188 -367v-256q4 -134 15.5 -220.5t21.5 -105.5l10 -20h-473zM184 965h2h-2z" />
    <glyph glyph-name="n" unicode="n" horiz-adv-x="2228" 
d="M1591 0q17 73 17 449v34q0 62 -13.5 112.5t-47.5 96t-87.5 76t-137 48.5t-192.5 18q-278 0 -483 -146v-342q0 -84 5 -151t11.5 -101.5t13.5 -57.5t12 -30l5 -6h-473q17 46 17 489l2 236q0 58 -5 103t-11.5 69.5t-15 41t-13.5 21t-9 5.5l461 120v-309q104 87 254.5 165
t254 114.5t130.5 36.5q731 6 731 -490v-256q4 -134 15.5 -220.5t21.5 -105.5l10 -20h-473zM184 965h2h-2z" />
    <glyph glyph-name="o" unicode="o" horiz-adv-x="2222" 
d="M981 -41q-251 0 -447.5 63t-303.5 173.5t-107 248.5q0 94 51 188t150.5 177t233 147.5t311 102t372.5 37.5q391 0 624.5 -136.5t233.5 -349.5q0 -94 -51 -188t-150.5 -176.5t-233 -147t-311 -102t-372.5 -37.5zM1264 123q77 0 149.5 18.5t135 54t100 96.5t37.5 138
q1 90 -41 171t-114 140.5t-165.5 103t-198 65.5t-209.5 22q-77 0 -149.5 -18t-134.5 -53.5t-99.5 -96t-37.5 -137.5q0 -86 49.5 -174t139 -162t231 -121t307.5 -47z" />
    <glyph glyph-name="p" unicode="p" horiz-adv-x="2238" 
d="M1329 1077q241 0 415.5 -52.5t273 -164t98.5 -274.5q0 -133 -91 -252t-239.5 -200t-339.5 -128t-389 -47q-192 0 -412 70v-92v-193l-442 -145l-4 6q37 115 37 598v450q0 76 -16 131t-32 75.5t-34 31.5v12l491 172v-313q178 126 379 220.5t305 94.5zM1274 94q75 0 149 23
t135.5 64t99.5 106.5t38 142.5q0 96 -41.5 173t-111 124.5t-155 72t-178.5 23.5q-329 4 -565 -143v-326q95 -114 256.5 -186.5t372.5 -73.5z" />
    <glyph glyph-name="q" unicode="q" horiz-adv-x="2183" 
d="M2003 834v-807q7 -313 33 -402l-4 -6l-439 145v193v317q-178 -126 -379 -220.5t-305 -94.5q-241 0 -415 53t-272.5 164.5t-98.5 274.5q0 133 91 251.5t239.5 199.5t339.5 128t389 47q109 0 256 -28.5t274 -85.5l326 106l2 -4q-37 -83 -37 -231zM1028 213q329 -4 565 143
v326q-95 114 -256 186.5t-372 73.5q-75 0 -149 -23t-135.5 -64t-99.5 -106.5t-38 -142.5q0 -96 41.5 -173t110.5 -124.5t154.5 -72t178.5 -23.5z" />
    <glyph glyph-name="r" unicode="r" horiz-adv-x="1857" 
d="M1276 1073q305 27 500 -49l-127 -412l-17 6q-210 140 -471 141.5t-469 -132.5v-375q0 -30 5 -67t10 -60t16.5 -69l15.5 -62h-497q3 0 12 22t19 81t10 134v431q0 62 -10 110t-24.5 72t-29.5 39t-25 19l-10 3l508 178v-356q162 133 333 236t251 110z" />
    <glyph glyph-name="s" unicode="s" horiz-adv-x="1896" 
d="M1718 948l-186 -291h-8q-46 80 -171.5 165t-290.5 143.5t-304 58.5q-101 0 -147 -27t-46 -84q0 -49 104.5 -95t329.5 -99l131 -31q250 -58 388 -117t186.5 -118t48.5 -142q0 -72 -55.5 -133t-141.5 -100.5t-194.5 -67t-210.5 -39.5t-193 -12q-220 0 -452 49.5t-383 130.5
l113 396h6q151 -210 372 -341t441 -131q117 0 198.5 39.5t81.5 110.5q0 54 -26 86.5t-101 62.5t-229 66l-141 33q-124 29 -215 55t-169.5 57t-127.5 64.5t-76 74.5t-27 89q0 131 194 213t539 82q189 0 410 -38t352 -110z" />
    <glyph glyph-name="t" unicode="t" horiz-adv-x="1708" 
d="M1618 422l4 -2l-111 -324q-185 -137 -503 -137q-332 0 -503 141t-171 422v426l-391 21v47l32 2q209 20 429 118t315 214h24v-273l824 62l-37 -256l-787 43v-324q0 -189 107.5 -280t355.5 -91q107 0 222 46t190 145z" />
    <glyph glyph-name="u" unicode="u" horiz-adv-x="2211" 
d="M1978 330q0 -83 10.5 -139.5t20 -74.5t19.5 -24v-4l-457 -119v310q-104 -87 -252 -165t-249 -114.5t-128 -36.5q-731 -6 -731 490v225q-4 134 -15.5 220.5t-21.5 105.5l-10 20h473q-16 -73 -16 -449v-34q0 -78 22.5 -134t75.5 -99.5t147.5 -65t231.5 -21.5q273 0 473 141
v316q0 84 -5 151t-11.5 101.5t-13.5 57.5t-12 30l-5 6h473q-17 -46 -17 -489z" />
    <glyph glyph-name="v" unicode="v" horiz-adv-x="1701" 
d="M1458 1024h340l-801 -1024h-180l-913 1024l612 -4q17 -142 193 -361l340 -401l282 401q33 47 57 97.5t35.5 81.5t20.5 79t9.5 57.5t4.5 49.5z" />
    <glyph glyph-name="w" unicode="w" horiz-adv-x="2648" 
d="M2454 1024h299l-719 -1026h-181l-507 643l-451 -643h-180l-811 1026h633q7 -56 44 -131t128 -234l223 -387l10 -16l258 403q32 46 55 97l-213 268h633q7 -59 44 -134.5t128 -234.5l224 -387l10 -16l258 403q27 40 48 81.5t32 73t18.5 69.5t9.5 57.5t4.5 51t2.5 36.5z" />
    <glyph glyph-name="x" unicode="x" horiz-adv-x="1976" 
d="M1223 578l733 -578h-756q0 53 -39 110.5t-119 131.5l-208 164l-201 -144q-186 -138 -230 -179q-56 -53 -57 -83h-326l717 483l-688 541h756q0 -40 14 -76t44 -70t52.5 -54.5t63.5 -53.5l145 -115l113 82q149 96 236.5 168t87.5 119h325z" />
    <glyph glyph-name="y" unicode="y" horiz-adv-x="1894" 
d="M1894 1024l-704 -899q-135 -161 -186 -215l-5 -4q-139 -146 -274 -231t-276 -85q-54 0 -106 11t-87.5 27t-63.5 32.5t-42 27.5l-13 11l121 285q33 -22 61.5 -36t94.5 -29t147 -15q189 0 342 108l-903 1012l612 -4q18 -152 193 -361l338 -403l284 403q33 47 57 97.5
t35.5 81.5t20.5 79t9.5 57.5t4.5 49.5h340z" />
    <glyph glyph-name="z" unicode="z" horiz-adv-x="1806" 
d="M59 0l2 8q79 68 220.5 185.5t245.5 205.5t219.5 191t198.5 193t126 161l-772 -41q-141 -29 -203 -72l-4 3l31 204l993 -12h590l-717 -698q-118 -114 -211 -236l486 19q166 11 280 34t148 48l4 -3l-31 -200l-952 10h-654z" />
    <glyph glyph-name="exclamdown" unicode="&#xa1;" 
d="M616 1108q95 0 144 -36t49 -83q0 -71 -84.5 -124.5t-206.5 -53.5q-194 0 -194 119q0 62 83.5 120t208.5 58zM723 649q0 -222 31.5 -496t99.5 -493h-561q117 377 117 989h313z" />
    <glyph glyph-name="cent" unicode="&#xa2;" horiz-adv-x="1984" 
d="M1073 238q213 3 424 67t318 174l10 -8l-43 -272q-88 -79 -284.5 -147t-424.5 -79v-176h-94v174q-238 2 -431 67t-309 190t-116 288q0 121 75 229t197.5 182.5t274 121.5t309.5 57v127h94v-125q111 0 188 -5t184 -22.5t206 -59.5t190 -108l-225 -360h-12
q-78 134 -222 245.5t-309 159.5v-720zM475 680q0 -177 133 -299.5t371 -140.5v741q-65 11 -139 8q-182 0 -273.5 -80t-91.5 -229z" />
    <glyph glyph-name="sterling" unicode="&#xa3;" horiz-adv-x="1978" 
d="M580 98q138 -3 264.5 4.5t268 32t254.5 66t209 114t146 168.5l76 -8l-90 -475h-1642v141q66 -10 170 -20l-170 20q136 63 226.5 119.5t140.5 111.5t70.5 105.5t20.5 110.5q0 53 -20 108h-438v95h389q-21 31 -86.5 108.5t-96 135.5t-30.5 124q0 75 45 137.5t115 102
t157.5 67t169.5 39t154 11.5h90.5t104 -3.5t129 -10t135 -21.5t153.5 -35.5t154 -54t166 -76.5l-115 -402q-149 272 -355 410.5t-448 138.5q-142 0 -202 -44t-60 -138q0 -57 29 -121.5t66.5 -115t88 -123.5t78.5 -129h508v-95h-467q20 -72 20 -137q0 -92 -37 -174
t-123 -157.5t-218 -129.5z" />
    <glyph glyph-name="dieresis" unicode="&#xa8;" 
d="M328 1251q-68 0 -104 26t-36 60q0 51 61 89t148 38q140 0 140 -86q0 -43 -60 -85t-149 -42zM840 1251q-68 0 -104 26t-36 60q0 51 61 89t148 38q140 0 140 -86q0 -43 -60 -85t-149 -42z" />
    <glyph glyph-name="copyright" unicode="&#xa9;" horiz-adv-x="2723" 
d="M1362 -115q-223 0 -415 40.5t-334.5 112.5t-244.5 170.5t-153 217t-51 248.5t51 251.5t153 224t244 179t335 119.5t415 43t415 -43t335 -119.5t244 -179t153 -224t51 -251.5t-51 -248.5t-153 -217t-244.5 -170.5t-334.5 -112.5t-415 -40.5zM1362 -20q311 0 559.5 84.5
t392.5 243.5t144 366t-143.5 373t-394 258t-558.5 92t-558.5 -92t-394 -258t-143.5 -373t144 -366t392.5 -243.5t559.5 -84.5zM1851 690q-93 152 -272 260t-362 101q-152 0 -228 -66.5t-76 -191.5q0 -161 130.5 -264t367.5 -103q167 0 345.5 53.5t268.5 145.5l9 -7l-37 -225
q-77 -70 -258.5 -128t-374.5 -58q-210 0 -377 53t-265.5 156.5t-98.5 240.5q0 108 70 202t182 156t248.5 97t271.5 35q66 0 105.5 -1t104 -5.5t112.5 -15t107 -27.5t114.5 -45.5t107.5 -67.5l-184 -295h-11z" />
    <glyph glyph-name="guillemotleft" unicode="&#xab;" horiz-adv-x="1378" 
d="M35 594l680 -395l-221 395l221 395zM696 594l682 -395l-223 395l223 395z" />
    <glyph glyph-name="registered" unicode="&#xae;" 
d="M614 1552q129 0 239 -64t174.5 -174t64.5 -239q0 -130 -64.5 -240.5t-174.5 -174.5t-239 -64q-97 0 -186 38t-153 102t-102 153t-38 186t38 185t102 152t153 102t186 38zM614 678q163 0 279.5 116.5t116.5 280.5q0 163 -116.5 279t-279.5 116q-164 0 -280.5 -116
t-116.5 -279q0 -164 116.5 -280.5t280.5 -116.5zM698 1061q19 -14 55.5 -44.5t58.5 -48t48.5 -32.5t42.5 -16v-11h-186q0 3 -3.5 10.5t-6.5 8.5q-107 107 -125 116q-52 28 -86 31v-76q0 -32 3.5 -54.5t6.5 -28.5l4 -7h-143q12 18 12 90l2 185q0 37 -4 61t-8 29l-4 6h233
q99 0 154.5 -12.5t74.5 -33.5t19 -56q0 -41 -41.5 -73.5t-106.5 -43.5zM496 1182v-76q64 -31 118 -31q46 0 81.5 21t35.5 57q0 52 -44 76t-116 24q-35 0 -71 -4q-4 -36 -4 -67zM496 1083h2h-2z" />
    <glyph glyph-name="macron" unicode="&#xaf;" 
d="M293 1395h643v-95h-643v95z" />
    <glyph glyph-name="degree" unicode="&#xb0;" horiz-adv-x="651" 
d="M326 899q-122 0 -207.5 85t-85.5 206q0 122 85.5 207.5t207.5 85.5q121 0 206.5 -85.5t85.5 -207.5q0 -121 -85 -206t-207 -85zM326 993q83 0 140.5 58t57.5 141q0 82 -57.5 139.5t-140.5 57.5t-141 -57.5t-58 -139.5q0 -83 58 -141t141 -58z" />
    <glyph glyph-name="acute" unicode="&#xb4;" 
d="M975 1503l-758 -303l-12 17l588 483z" />
    <glyph glyph-name="periodcentered" unicode="&#xb7;" horiz-adv-x="522" 
d="M260 420q-77 0 -132.5 56t-55.5 134t55 133.5t133 55.5t134.5 -56t56.5 -133q0 -78 -56.5 -134t-134.5 -56z" />
    <glyph glyph-name="cedilla" unicode="&#xb8;" 
d="M406 6l83 -18l-102 -121q142 0 227.5 -18.5t117.5 -49t32 -78.5q0 -61 -58 -112.5t-148.5 -83t-174 -50.5t-160.5 -28l-2 39q122 22 197.5 63t75.5 101q0 53 -74.5 71.5t-214.5 18.5z" />
    <glyph glyph-name="guillemotright" unicode="&#xbb;" horiz-adv-x="1378" 
d="M717 594l-682 395l223 -395l-223 -395zM1378 594l-680 395l222 -395l-222 -395z" />
    <glyph glyph-name="questiondown" unicode="&#xbf;" horiz-adv-x="2054" 
d="M1104 1108q-125 0 -209 -58t-84 -120q0 -119 195 -119q122 0 206 53.5t84 124.5q0 47 -48.5 83t-143.5 36zM1845 -156q-392 -231 -880 -231q-169 0 -309 18t-253 56t-176 103.5t-63 154.5q0 59 23.5 109t63.5 85t93 66.5t110.5 54t117 47t113.5 46t98.5 51.5t72 62
t35 78.5t-13.5 100.5h395q20 -84 11.5 -145t-41 -110t-79 -82t-104 -62.5t-115.5 -51.5t-113 -48t-97.5 -52.5t-68.5 -65t-26 -85.5q0 -103 101.5 -168.5t256.5 -71.5q58 0 105 3.5t109.5 16.5t114.5 35t113 63t113 96.5t106.5 138t100.5 186.5z" />
    <glyph glyph-name="Agrave" unicode="&#xc0;" horiz-adv-x="2381" 
d="M578 1849l182 197l588 -483l-13 -17zM61 0q151 137 345 436q95 149 267.5 425.5t239.5 383.5q-148 144 -288 178v11h733l549 -836l100 -156q93 -145 195 -277t159 -165h-741q45 55 -47 244l-115 190h-870l-137 -227q-70 -126 -35 -207h-355zM643 528h758l-277 455
q-66 100 -112 156z" />
    <glyph glyph-name="Aacute" unicode="&#xc1;" horiz-adv-x="2381" 
d="M1565 1878l-758 -303l-12 16l587 484zM61 0q151 137 345 436q95 149 267.5 425.5t239.5 383.5q-148 144 -288 178v11h733l549 -836l100 -156q93 -145 195 -277t159 -165h-741q45 55 -47 244l-115 190h-870l-137 -227q-70 -126 -35 -207h-355zM643 528h758l-277 455
q-66 100 -112 156z" />
    <glyph glyph-name="Acircumflex" unicode="&#xc2;" horiz-adv-x="2381" 
d="M614 1556l453 154l457 -156v21l-457 364l-453 -362v-21zM61 0q151 137 345 436q95 149 267.5 425.5t239.5 383.5q-148 144 -288 178v11h733l549 -836l100 -156q93 -145 195 -277t159 -165h-741q45 55 -47 244l-115 190h-870l-137 -227q-70 -126 -35 -207h-355zM643 528
h758l-277 455q-66 100 -112 156z" />
    <glyph glyph-name="Atilde" unicode="&#xc3;" horiz-adv-x="2381" 
d="M635 1591q21 143 90.5 223t161.5 80q56 0 109 -18t86.5 -39t79.5 -39t91 -18q78 0 140.5 31t85.5 83l6 -16q-21 -143 -90.5 -223t-161.5 -80q-56 0 -109 18t-87 39.5t-80 39.5t-91 18q-77 0 -139.5 -31.5t-85.5 -83.5zM61 0q151 137 345 436q95 149 267.5 425.5
t239.5 383.5q-148 144 -288 178v11h733l549 -836l100 -156q93 -145 195 -277t159 -165h-741q45 55 -47 244l-115 190h-870l-137 -227q-70 -126 -35 -207h-355zM643 528h758l-277 455q-66 100 -112 156z" />
    <glyph glyph-name="Adieresis" unicode="&#xc4;" horiz-adv-x="2381" 
d="M793 1653q-68 0 -104 26t-36 60q0 51 61 89t148 38q139 0 139 -86q0 -43 -60 -85t-148 -42zM1305 1653q-68 0 -104 26t-36 60q0 51 61 89t148 38q139 0 139 -86q0 -43 -60 -85t-148 -42zM61 0q151 137 345 436q95 149 267.5 425.5t239.5 383.5q-148 144 -288 178v11h733
l549 -836l100 -156q93 -145 195 -277t159 -165h-741q45 55 -47 244l-115 190h-870l-137 -227q-70 -126 -35 -207h-355zM643 528h758l-277 455q-66 100 -112 156z" />
    <glyph glyph-name="Aring" unicode="&#xc5;" horiz-adv-x="2463" 
d="M782 1810q0 78 87.5 131.5t215.5 53.5q130 0 217 -53.5t87 -131.5q0 -77 -88 -127.5t-216 -50.5t-215.5 50.5t-87.5 127.5zM926 1831q0 -59 50.5 -108.5t135.5 -49.5q57 0 95 33t38 90q0 59 -50.5 108.5t-135.5 49.5q-57 0 -95 -33t-38 -90zM61 0q151 137 345 436
l507 809q-148 144 -288 178v11h733l549 -836l32 -53l68 -103q254 -384 354 -442h-741q45 55 -47 244l-115 190h-870l-137 -227q-70 -126 -35 -207h-355zM643 528h758l-277 455q-66 100 -112 156z" />
    <glyph glyph-name="AE" unicode="&#xc6;" horiz-adv-x="3655" 
d="M102 4q107 86 275.5 243t283.5 271l115 115l731 737q-5 21 -11.5 37t-10.5 21l-4 6h1798l90 -521l-76 -8q-69 113 -138.5 188.5t-150.5 124.5t-176.5 74t-215.5 36t-269 11.5t-336 -0.5q-20 -106 -20 -254v-280h1218v-94h-1218v-365q0 -146 20 -252q66 0 188 -1
q169 -2 303 -1.5t243 12.5t196.5 37t163 74.5t141.5 124.5t133 186l76 -8l-90 -526l-1880 8q5 7 13 25.5t21.5 107t14.5 213.5v92h-768l-90 -94q-16 -17 -49 -50q-125 -129 -161 -185q-42 -66 -26 -105h-334zM852 532h680l4 555q0 89 -6 154z" />
    <glyph glyph-name="Ccedilla" unicode="&#xc7;" horiz-adv-x="2134" 
d="M2073 463q-26 -45 -67 -95t-98.5 -104.5t-132 -105t-159.5 -93.5t-190.5 -73.5t-215.5 -40.5l-71 -84q142 0 227.5 -18.5t117.5 -49t32 -78.5q0 -61 -58 -112.5t-148.5 -83t-174 -50.5t-160.5 -28l-2 39q272 50 272 164q0 53 -74.5 71.5t-214.5 18.5l156 207h-12
q-150 0 -293.5 35t-262.5 101t-209.5 154t-141 200.5t-50.5 234.5q0 192 87 354.5t236 272t350 170.5t427 61q147 0 285 -22t229 -53t161.5 -62.5t103.5 -53.5l32 -22l-100 -496q-10 12 -27.5 31.5t-76 77t-121 110t-157.5 116t-189.5 109.5t-212.5 77.5t-232 31.5
q-209 0 -350.5 -128t-141.5 -314q0 -113 50.5 -221.5t138 -194t198.5 -150.5t239 -100t253 -35q491 0 711 295z" />
    <glyph glyph-name="Egrave" unicode="&#xc8;" horiz-adv-x="2379" 
d="M1542 1546l-12 -16l-758 303l182 197zM2099 526l76 -8l-90 -526l-1880 8q2 3 5.5 9t11.5 32.5t14.5 61t12 99.5t5.5 144l6 741q0 125 -14 211.5t-28 111.5l-13 24h1798l90 -521l-76 -8q-69 113 -138.5 188.5t-150.5 124.5t-176.5 74t-215.5 36t-269 11.5t-336 -0.5
q-20 -106 -20 -254v-280h1218v-94h-1218v-365q0 -146 20 -252q66 0 188 -1q169 -2 303 -1.5t243 12.5t196.5 37t163 74.5t141.5 124.5t133 186z" />
    <glyph glyph-name="Eacute" unicode="&#xc9;" horiz-adv-x="2379" 
d="M1497 1921l-758 -303l-12 16l588 484zM2099 526l76 -8l-90 -526l-1880 8q2 3 5.5 9t11.5 32.5t14.5 61t12 99.5t5.5 144l6 741q0 125 -14 211.5t-28 111.5l-13 24h1798l90 -521l-76 -8q-69 113 -138.5 188.5t-150.5 124.5t-176.5 74t-215.5 36t-269 11.5t-336 -0.5
q-20 -106 -20 -254v-280h1218v-94h-1218v-365q0 -146 20 -252q66 0 188 -1q169 -2 303 -1.5t243 12.5t196.5 37t163 74.5t141.5 124.5t133 186z" />
    <glyph glyph-name="Ecircumflex" unicode="&#xca;" horiz-adv-x="2379" 
d="M1636 1591l-456 156l-453 -154v21l453 362l456 -364v-21zM2099 526l76 -8l-90 -526l-1880 8q2 3 5.5 9t11.5 32.5t14.5 61t12 99.5t5.5 144l6 741q0 125 -14 211.5t-28 111.5l-13 24h1798l90 -521l-76 -8q-69 113 -138.5 188.5t-150.5 124.5t-176.5 74t-215.5 36
t-269 11.5t-336 -0.5q-20 -106 -20 -254v-280h1218v-94h-1218v-365q0 -146 20 -252q66 0 188 -1q169 -2 303 -1.5t243 12.5t196.5 37t163 74.5t141.5 124.5t133 186z" />
    <glyph glyph-name="Edieresis" unicode="&#xcb;" horiz-adv-x="2379" 
d="M911 1630q-68 0 -103.5 25.5t-35.5 60.5q0 51 61 89t148 38q139 0 139 -86q0 -43 -60 -85t-149 -42zM1423 1630q-68 0 -103.5 25.5t-35.5 60.5q0 51 61 89t148 38q139 0 139 -86q0 -43 -60 -85t-149 -42zM2099 526l76 -8l-90 -526l-1880 8q2 3 5.5 9t11.5 32.5t14.5 61
t12 99.5t5.5 144l6 741q0 125 -14 211.5t-28 111.5l-13 24h1798l90 -521l-76 -8q-69 113 -138.5 188.5t-150.5 124.5t-176.5 74t-215.5 36t-269 11.5t-336 -0.5q-20 -106 -20 -254v-280h1218v-94h-1218v-365q0 -146 20 -252q66 0 188 -1q169 -2 303 -1.5t243 12.5t196.5 37
t163 74.5t141.5 124.5t133 186z" />
    <glyph glyph-name="Igrave" unicode="&#xcc;" horiz-adv-x="1036" 
d="M133 1819l182 196l588 -483l-12 -16zM205 1434h567l-6 -9t-13.5 -32.5t-16.5 -62t-13 -101t-6 -144.5v-739q0 -79 5.5 -143.5t13.5 -100.5t16.5 -60.5t13.5 -33.5l6 -8h-567l6 9t13.5 32.5t16.5 61t13 99.5t6 144l6 741q0 79 -6.5 143.5t-15 100.5t-17.5 61t-15 34z" />
    <glyph glyph-name="Iacute" unicode="&#xcd;" 
d="M940 1853l-758 -303l-12 17l588 483zM205 1434h567l-6 -9t-13.5 -32.5t-16.5 -62t-13 -101t-6 -144.5v-739q0 -79 5.5 -143.5t13.5 -100.5t16.5 -60.5t13.5 -33.5l6 -8h-567l6 9t13.5 32.5t16.5 61t13 99.5t6 144l6 741q0 79 -6.5 143.5t-15 100.5t-17.5 61t-15 34z" />
    <glyph glyph-name="Icircumflex" unicode="&#xce;" horiz-adv-x="991" 
d="M41 1579l453 154l456 -156v20l-456 365l-453 -363v-20zM205 1434h567l-6 -9t-13.5 -32.5t-16.5 -62t-13 -101t-6 -144.5v-739q0 -79 5.5 -143.5t13.5 -100.5t16.5 -60.5t13.5 -33.5l6 -8h-567l6 9t13.5 32.5t16.5 61t13 99.5t6 144l6 741q0 79 -6.5 143.5t-15 100.5
t-17.5 61t-15 34z" />
    <glyph glyph-name="Idieresis" unicode="&#xcf;" horiz-adv-x="991" 
d="M205 1636q-68 0 -103.5 25.5t-35.5 60.5q0 51 60.5 89t147.5 38q140 0 140 -86q0 -43 -60 -85t-149 -42zM717 1636q-68 0 -103.5 25.5t-35.5 60.5q0 51 60.5 89t147.5 38q140 0 140 -86q0 -43 -60 -85t-149 -42zM205 1434h567l-6 -9t-13.5 -32.5t-16.5 -62t-13 -101
t-6 -144.5v-739q0 -79 5.5 -143.5t13.5 -100.5t16.5 -60.5t13.5 -33.5l6 -8h-567l6 9t13.5 32.5t16.5 61t13 99.5t6 144l6 741q0 79 -6.5 143.5t-15 100.5t-17.5 61t-15 34z" />
    <glyph glyph-name="Eth" unicode="&#xd0;" horiz-adv-x="2228" 
d="M1227 1434q161 0 303 -18.5t272 -62.5t223 -111t148 -169.5t55 -232.5q0 -129 -46.5 -251.5t-141 -229.5t-227 -187.5t-317 -127t-398.5 -46.5h-305h-568l6 9t13.5 33t17 62t13.5 100t6 144l2 197h-181v94h181l4 450q0 79 -6.5 143.5t-15.5 100.5t-18 61t-15 34l-7 8h568
h434zM1157 84q152 0 268.5 45t188 127t107.5 191t36 243t-38 243.5t-103.5 184t-155 125t-190 73.5t-211.5 23q-176 4 -307 -39q-15 -96 -15 -215v-448h396v-94h-396v-197q0 -105 8 -162q163 -100 412 -100z" />
    <glyph glyph-name="Ntilde" unicode="&#xd1;" horiz-adv-x="2418" 
d="M1169 1657q-77 0 -139.5 -31.5t-85.5 -83.5l-6 17q21 143 90.5 223t161.5 80q56 0 109 -18t86.5 -39.5t79.5 -39.5t91 -18q77 0 140 31.5t86 83.5l6 -17q-21 -143 -90.5 -223t-161.5 -80q-56 0 -109 18t-87 39.5t-80 39.5t-91 18zM2165 104l110 -104h-69h-273h-317
q-179 174 -591 584.5t-579 572.5q-2 -23 -2 -72v-739q0 -79 6.5 -143.5t15.5 -100.5t18 -60.5t16 -33.5l6 -8h-273q3 3 7 9t14.5 32.5t19 61t15 99.5t6.5 144l6 741q0 120 -16 222q-92 85 -142 125h635l1215 -1164q2 23 2 76l6 741q0 79 -6.5 143.5t-15.5 100.5t-18 61
t-15 34l-7 8h267q-3 -3 -7 -9t-14.5 -32.5t-19 -62t-15 -101t-6.5 -144.5v-739q0 -131 21 -242z" />
    <glyph glyph-name="Ograve" unicode="&#xd2;" horiz-adv-x="2621" 
d="M883 1903l182 196l588 -483l-13 -17zM1266 -55q-308 0 -559.5 95.5t-397 267.5t-145.5 386q0 128 47.5 243.5t131 206t197.5 163.5t248 121.5t281.5 74t298.5 25.5q309 0 551.5 -87.5t380 -251.5t137.5 -378q0 -153 -63.5 -290.5t-175.5 -241t-259.5 -180t-320 -115.5
t-352.5 -39zM1495 119q105 0 191.5 27.5t144.5 74t98 110t58 133t18 144.5q0 114 -37 220.5t-100.5 191t-149.5 154t-183.5 116t-202.5 71.5t-206 25q-137 0 -238 -39t-159 -108t-85.5 -154.5t-27.5 -187.5q0 -61 14.5 -129.5t47 -144.5t80.5 -147.5t120 -136.5
t159.5 -113.5t205.5 -77.5t252 -29z" />
    <glyph glyph-name="Oacute" unicode="&#xd3;" horiz-adv-x="2621" 
d="M1763 1958l-757 -303l-13 16l588 483zM1266 -55q-308 0 -559.5 95.5t-397 267.5t-145.5 386q0 128 47.5 243.5t131 206t197.5 163.5t248 121.5t281.5 74t298.5 25.5q309 0 551.5 -87.5t380 -251.5t137.5 -378q0 -153 -63.5 -290.5t-175.5 -241t-259.5 -180t-320 -115.5
t-352.5 -39zM1495 119q105 0 191.5 27.5t144.5 74t98 110t58 133t18 144.5q0 114 -37 220.5t-100.5 191t-149.5 154t-183.5 116t-202.5 71.5t-206 25q-137 0 -238 -39t-159 -108t-85.5 -154.5t-27.5 -187.5q0 -61 14.5 -129.5t47 -144.5t80.5 -147.5t120 -136.5
t159.5 -113.5t205.5 -77.5t252 -29z" />
    <glyph glyph-name="Ocircumflex" unicode="&#xd4;" horiz-adv-x="2621" 
d="M844 1647l452 153l457 -155v20l-457 365l-452 -363v-20zM1266 -55q-308 0 -559.5 95.5t-397 267.5t-145.5 386q0 128 47.5 243.5t131 206t197.5 163.5t248 121.5t281.5 74t298.5 25.5q309 0 551.5 -87.5t380 -251.5t137.5 -378q0 -153 -63.5 -290.5t-175.5 -241
t-259.5 -180t-320 -115.5t-352.5 -39zM1495 119q105 0 191.5 27.5t144.5 74t98 110t58 133t18 144.5q0 114 -37 220.5t-100.5 191t-149.5 154t-183.5 116t-202.5 71.5t-206 25q-137 0 -238 -39t-159 -108t-85.5 -154.5t-27.5 -187.5q0 -61 14.5 -129.5t47 -144.5
t80.5 -147.5t120 -136.5t159.5 -113.5t205.5 -77.5t252 -29z" />
    <glyph glyph-name="Otilde" unicode="&#xd5;" horiz-adv-x="2621" 
d="M879 1679q21 143 90 223t161 80q56 0 109 -18t87 -39t80 -39t91 -18q77 0 139.5 31t85.5 83l7 -16q-21 -143 -90.5 -223t-161.5 -80q-56 0 -109 18t-87 39.5t-80 39.5t-91 18q-77 0 -139.5 -31.5t-85.5 -83.5zM1266 -55q-308 0 -559.5 95.5t-397 267.5t-145.5 386
q0 128 47.5 243.5t131 206t197.5 163.5t248 121.5t281.5 74t298.5 25.5q309 0 551.5 -87.5t380 -251.5t137.5 -378q0 -153 -63.5 -290.5t-175.5 -241t-259.5 -180t-320 -115.5t-352.5 -39zM1495 119q105 0 191.5 27.5t144.5 74t98 110t58 133t18 144.5q0 114 -37 220.5
t-100.5 191t-149.5 154t-183.5 116t-202.5 71.5t-206 25q-137 0 -238 -39t-159 -108t-85.5 -154.5t-27.5 -187.5q0 -61 14.5 -129.5t47 -144.5t80.5 -147.5t120 -136.5t159.5 -113.5t205.5 -77.5t252 -29z" />
    <glyph glyph-name="Odieresis" unicode="&#xd6;" horiz-adv-x="2621" 
d="M1001 1716q-68 0 -103.5 25.5t-35.5 60.5q0 51 61 89t148 38q139 0 139 -86q0 -43 -60 -85t-149 -42zM1513 1716q-68 0 -103.5 25.5t-35.5 60.5q0 51 61 89t148 38q139 0 139 -86q0 -43 -60 -85t-149 -42zM1266 -55q-308 0 -559.5 95.5t-397 267.5t-145.5 386
q0 128 47.5 243.5t131 206t197.5 163.5t248 121.5t281.5 74t298.5 25.5q309 0 551.5 -87.5t380 -251.5t137.5 -378q0 -153 -63.5 -290.5t-175.5 -241t-259.5 -180t-320 -115.5t-352.5 -39zM1495 119q105 0 191.5 27.5t144.5 74t98 110t58 133t18 144.5q0 114 -37 220.5
t-100.5 191t-149.5 154t-183.5 116t-202.5 71.5t-206 25q-137 0 -238 -39t-159 -108t-85.5 -154.5t-27.5 -187.5q0 -61 14.5 -129.5t47 -144.5t80.5 -147.5t120 -136.5t159.5 -113.5t205.5 -77.5t252 -29z" />
    <glyph glyph-name="multiply" unicode="&#xd7;" 
d="M995 897l-323 -324l323 -323l-65 -66l-324 324l-323 -324l-66 66l324 323l-324 324l66 66l323 -324l324 324z" />
    <glyph glyph-name="Oslash" unicode="&#xd8;" horiz-adv-x="2621" 
d="M2071 1372q175 -95 270.5 -238.5t95.5 -322.5q0 -153 -63.5 -290.5t-175.5 -241t-259.5 -180t-320 -115.5t-352.5 -39q-348 0 -621 121l-133 -121h-121l176 159q-190 103 -296.5 255.5t-106.5 334.5q0 128 47.5 243.5t131 206t197.5 163.5t248 121.5t281.5 74t298.5 25.5
q363 0 625 -119l129 119h121zM616 897q0 -124 58.5 -269t175.5 -263l876 802q-127 104 -285.5 161.5t-314.5 57.5q-137 0 -238 -39t-159 -108t-85.5 -154.5t-27.5 -187.5zM1495 119q105 0 191.5 27.5t144.5 74t98 110t58 133t18 144.5q0 287 -217 504l-877 -803
q230 -190 584 -190z" />
    <glyph glyph-name="Ugrave" unicode="&#xd9;" horiz-adv-x="2207" 
d="M1677 1534l-12 -16l-758 303l183 196zM2032 1192v-107l2 -274q0 -90 -12 -173.5t-40.5 -169t-72.5 -158t-112 -136.5t-154.5 -109t-204.5 -70.5t-258 -25.5q-483 0 -711 194t-219 568l8 354q3 120 -11 207t-26 114.5t-16 27.5h577q-2 -3 -5.5 -10t-13 -35.5t-16.5 -64
t-12.5 -99.5t-5.5 -140l2 -415q0 -566 510 -566q140 0 250 37t183 102t121 158.5t69 200.5t22 234v84l2 167q0 79 -6 143.5t-14 100.5t-16.5 61t-14.5 34l-6 8h254q-5 -6 -12 -19t-21.5 -75t-19.5 -148z" />
    <glyph glyph-name="Uacute" unicode="&#xda;" horiz-adv-x="2207" 
d="M1710 1800l-758 -303l-12 16l588 484zM2032 1192v-107l2 -274q0 -90 -12 -173.5t-40.5 -169t-72.5 -158t-112 -136.5t-154.5 -109t-204.5 -70.5t-258 -25.5q-483 0 -711 194t-219 568l8 354q3 120 -11 207t-26 114.5t-16 27.5h577q-2 -3 -5.5 -10t-13 -35.5t-16.5 -64
t-12.5 -99.5t-5.5 -140l2 -415q0 -566 510 -566q140 0 250 37t183 102t121 158.5t69 200.5t22 234v84l2 167q0 79 -6 143.5t-14 100.5t-16.5 61t-14.5 34l-6 8h254q-5 -6 -12 -19t-21.5 -75t-19.5 -148z" />
    <glyph glyph-name="Ucircumflex" unicode="&#xdb;" horiz-adv-x="2207" 
d="M1755 1589l-457 156l-452 -154v21l452 362l457 -364v-21zM2032 1192v-107l2 -274q0 -90 -12 -173.5t-40.5 -169t-72.5 -158t-112 -136.5t-154.5 -109t-204.5 -70.5t-258 -25.5q-483 0 -711 194t-219 568l8 354q3 120 -11 207t-26 114.5t-16 27.5h577q-2 -3 -5.5 -10
t-13 -35.5t-16.5 -64t-12.5 -99.5t-5.5 -140l2 -415q0 -566 510 -566q140 0 250 37t183 102t121 158.5t69 200.5t22 234v84l2 167q0 79 -6 143.5t-14 100.5t-16.5 61t-14.5 34l-6 8h254q-5 -6 -12 -19t-21.5 -75t-19.5 -148z" />
    <glyph glyph-name="Udieresis" unicode="&#xdc;" horiz-adv-x="2207" 
d="M1024 1606q-68 0 -103.5 25.5t-35.5 60.5q0 51 61 89t148 38q139 0 139 -86q0 -43 -60 -85t-149 -42zM1536 1606q-68 0 -103.5 25.5t-35.5 60.5q0 51 61 89t148 38q139 0 139 -86q0 -43 -60 -85t-149 -42zM2032 1192v-107l2 -274q0 -90 -12 -173.5t-40.5 -169t-72.5 -158
t-112 -136.5t-154.5 -109t-204.5 -70.5t-258 -25.5q-483 0 -711 194t-219 568l8 354q3 120 -11 207t-26 114.5t-16 27.5h577q-2 -3 -5.5 -10t-13 -35.5t-16.5 -64t-12.5 -99.5t-5.5 -140l2 -415q0 -566 510 -566q140 0 250 37t183 102t121 158.5t69 200.5t22 234v84l2 167
q0 79 -6 143.5t-14 100.5t-16.5 61t-14.5 34l-6 8h254q-5 -6 -12 -19t-21.5 -75t-19.5 -148z" />
    <glyph glyph-name="Yacute" unicode="&#xdd;" horiz-adv-x="2144" 
d="M1614 1825l-758 -303l-12 16l588 483zM0 1434h680q16 -76 84 -183.5t182 -226.5l309 -293l310 311q129 129 187 217.5t87 174.5h305q-79 -60 -163 -137.5t-136.5 -131.5t-138.5 -147q-303 -318 -350 -365v-307q0 -125 14 -211.5t28 -110.5l13 -24h-569l6 9t13.5 32.5
t17 61t13.5 99.5t7 144l2 307l-391 355q-116 105 -165.5 149t-151.5 128t-193 149z" />
    <glyph glyph-name="Thorn" unicode="&#xde;" horiz-adv-x="2134" 
d="M205 0l6 9t13.5 32.5t16.5 61t13 99.5t6 144l6 741q0 79 -6.5 143.5t-15 100.5t-17.5 61t-15 34l-7 8h567q-2 -3 -5.5 -8.5t-12.5 -30t-16 -57t-13.5 -92.5t-7.5 -132q190 53 471 53q158 0 301.5 -22t268.5 -67t199.5 -125t74.5 -185q0 -103 -58.5 -188t-149 -138.5
t-205.5 -90.5t-223 -52.5t-206 -15.5q-242 0 -473 82v-19q0 -79 5.5 -143.5t13.5 -100.5t16.5 -60.5t13.5 -33.5l6 -8h-567zM717 492q158 -120 434 -123q213 0 338 85t125 242q0 115 -73 205t-185.5 135t-239.5 45q-239 4 -399 -73v-516z" />
    <glyph glyph-name="germandbls" unicode="&#xdf;" horiz-adv-x="1832" 
d="M143 0q4 5 10.5 25t17.5 143.5t11 320.5v584q0 129 42 230.5t109.5 165t160 105.5t186 58.5t194.5 16.5q266 0 429 -82.5t163 -216.5q0 -56 -15.5 -107t-40 -89t-54 -70.5t-59 -54t-54 -37t-39.5 -22.5l-16 -7q8 -44 40.5 -83.5t77 -71t97 -63.5t103 -68.5t92 -78t67 -99
t25.5 -124.5q0 -149 -108 -260.5t-290 -146t-422 31.5v309q115 -206 243 -246q89 -28 150 31q48 47 48 121q0 45 -26.5 84t-69 69.5t-94 61t-103 64.5t-94 72.5t-69 93.5t-26.5 120q12 12 31 33.5t68.5 84.5t87.5 122.5t69 136t31 137.5q0 79 -22 140.5t-57 94.5t-71.5 49.5
t-72.5 16.5q-169 0 -240 -129.5t-71 -402.5v-717q0 -84 6.5 -151t16 -101.5t19.5 -57.5t16 -30l7 -6h-504z" />
    <glyph glyph-name="agrave" unicode="&#xe0;" horiz-adv-x="2150" 
d="M1419 1217l-12 -17l-758 303l182 197zM1929 340q0 -234 58 -285v-6l-467 -67v309q-178 -113 -424.5 -222.5t-360.5 -109.5q-164 0 -283.5 21t-184.5 58.5t-94.5 81.5t-29.5 97q0 107 113.5 190t296 125.5t397.5 42.5q120 0 307.5 -6.5t262.5 -15.5v59q0 62 -60 114
t-159 81t-214 29q-106 0 -210.5 -21t-194 -58.5t-149.5 -68t-128 -72t-79 -47.5h-9l-67 297q151 99 415.5 167.5t487.5 68.5q181 0 317 -24t222.5 -66t140 -106t75 -137t21.5 -167v-262zM827 203q159 0 326.5 29.5t366.5 117.5v144q-283 0 -468 -11t-284.5 -35t-137.5 -54.5
t-38 -76.5q0 -41 70 -77.5t165 -36.5z" />
    <glyph glyph-name="aacute" unicode="&#xe1;" horiz-adv-x="2150" 
d="M1538 1503l-758 -303l-12 17l588 483zM1929 340q0 -234 58 -285v-6l-467 -67v309q-178 -113 -424.5 -222.5t-360.5 -109.5q-164 0 -283.5 21t-184.5 58.5t-94.5 81.5t-29.5 97q0 107 113.5 190t296 125.5t397.5 42.5q120 0 307.5 -6.5t262.5 -15.5v59q0 62 -60 114
t-159 81t-214 29q-106 0 -210.5 -21t-194 -58.5t-149.5 -68t-128 -72t-79 -47.5h-9l-67 297q151 99 415.5 167.5t487.5 68.5q181 0 317 -24t222.5 -66t140 -106t75 -137t21.5 -167v-262zM827 203q159 0 326.5 29.5t366.5 117.5v144q-283 0 -468 -11t-284.5 -35t-137.5 -54.5
t-38 -76.5q0 -41 70 -77.5t165 -36.5z" />
    <glyph glyph-name="acircumflex" unicode="&#xe2;" horiz-adv-x="2150" 
d="M1583 1212l-457 156l-452 -154v21l452 362l457 -364v-21zM1929 340q0 -234 58 -285v-6l-467 -67v309q-178 -113 -424.5 -222.5t-360.5 -109.5q-164 0 -283.5 21t-184.5 58.5t-94.5 81.5t-29.5 97q0 107 113.5 190t296 125.5t397.5 42.5q120 0 307.5 -6.5t262.5 -15.5v59
q0 62 -60 114t-159 81t-214 29q-106 0 -210.5 -21t-194 -58.5t-149.5 -68t-128 -72t-79 -47.5h-9l-67 297q151 99 415.5 167.5t487.5 68.5q181 0 317 -24t222.5 -66t140 -106t75 -137t21.5 -167v-262zM827 203q159 0 326.5 29.5t366.5 117.5v144q-283 0 -468 -11t-284.5 -35
t-137.5 -54.5t-38 -76.5q0 -41 70 -77.5t165 -36.5z" />
    <glyph glyph-name="atilde" unicode="&#xe3;" horiz-adv-x="2150" 
d="M862 1391q-77 0 -139.5 -31.5t-85.5 -83.5l-6 16q21 143 90.5 223t161.5 80q56 0 109 -18t86.5 -39t79.5 -39t91 -18q78 0 140.5 31t85.5 83l6 -16q-21 -143 -90.5 -223t-161.5 -80q-56 0 -109 18t-87 39.5t-80 39.5t-91 18zM1929 340q0 -234 58 -285v-6l-467 -67v309
q-178 -113 -424.5 -222.5t-360.5 -109.5q-164 0 -283.5 21t-184.5 58.5t-94.5 81.5t-29.5 97q0 107 113.5 190t296 125.5t397.5 42.5q120 0 307.5 -6.5t262.5 -15.5v59q0 62 -60 114t-159 81t-214 29q-106 0 -210.5 -21t-194 -58.5t-149.5 -68t-128 -72t-79 -47.5h-9
l-67 297q151 99 415.5 167.5t487.5 68.5q181 0 317 -24t222.5 -66t140 -106t75 -137t21.5 -167v-262zM827 203q159 0 326.5 29.5t366.5 117.5v144q-283 0 -468 -11t-284.5 -35t-137.5 -54.5t-38 -76.5q0 -41 70 -77.5t165 -36.5z" />
    <glyph glyph-name="adieresis" unicode="&#xe4;" horiz-adv-x="2150" 
d="M836 1251q-68 0 -104 26t-36 60q0 51 61 89t148 38q139 0 139 -86q0 -43 -60 -85t-148 -42zM1348 1251q-68 0 -104 26t-36 60q0 51 61 89t148 38q139 0 139 -86q0 -43 -60 -85t-148 -42zM1929 340q0 -234 58 -285v-6l-467 -67v309q-178 -113 -424.5 -222.5t-360.5 -109.5
q-164 0 -283.5 21t-184.5 58.5t-94.5 81.5t-29.5 97q0 107 113.5 190t296 125.5t397.5 42.5q120 0 307.5 -6.5t262.5 -15.5v59q0 62 -60 114t-159 81t-214 29q-106 0 -210.5 -21t-194 -58.5t-149.5 -68t-128 -72t-79 -47.5h-9l-67 297q151 99 415.5 167.5t487.5 68.5
q181 0 317 -24t222.5 -66t140 -106t75 -137t21.5 -167v-262zM827 203q159 0 326.5 29.5t366.5 117.5v144q-283 0 -468 -11t-284.5 -35t-137.5 -54.5t-38 -76.5q0 -41 70 -77.5t165 -36.5z" />
    <glyph glyph-name="aring" unicode="&#xe5;" horiz-adv-x="2150" 
d="M1085 1276q-128 0 -215.5 50.5t-87.5 127.5q0 78 87.5 131t215.5 53q130 0 217 -53t87 -131q0 -77 -88 -127.5t-216 -50.5zM1059 1597q-58 0 -95.5 -32.5t-37.5 -89.5q0 -59 50.5 -108.5t135.5 -49.5q57 0 95 33t38 90q0 58 -50.5 107.5t-135.5 49.5zM1929 340
q0 -234 58 -285v-6l-467 -67v309q-178 -113 -424.5 -222.5t-360.5 -109.5q-164 0 -283.5 21t-184.5 58.5t-94.5 81.5t-29.5 97q0 107 113.5 190t296 125.5t397.5 42.5q120 0 307.5 -6.5t262.5 -15.5v59q0 62 -60 114t-159 81t-214 29q-106 0 -210.5 -21t-194 -58.5
t-149.5 -68t-128 -72t-79 -47.5h-9l-67 297q151 99 415.5 167.5t487.5 68.5q181 0 317 -24t222.5 -66t140 -106t75 -137t21.5 -167v-262zM827 203q159 0 326.5 29.5t366.5 117.5v144q-283 0 -468 -11t-284.5 -35t-137.5 -54.5t-38 -76.5q0 -41 70 -77.5t165 -36.5z" />
    <glyph glyph-name="ae" unicode="&#xe6;" horiz-adv-x="3397" 
d="M2488 238q187 0 412 56t346 150l8 -10l-149 -235q-141 -103 -341 -165.5t-405 -62.5q-180 0 -340 33t-292.5 106t-196.5 179q-184 -113 -434 -221.5t-361 -108.5q-164 0 -283.5 21t-184.5 58.5t-94.5 81.5t-29.5 97q0 107 113.5 190t296 125.5t397.5 42.5q70 0 570 13v24
q0 62 -60 114t-159 81t-214 29q-106 0 -210.5 -21t-194 -58.5t-149.5 -68t-128 -72t-79 -47.5h-9l-67 297q151 99 415.5 167.5t487.5 68.5q457 0 637 -156q142 77 334.5 119.5t380.5 42.5q167 0 303.5 -32.5t242.5 -99.5t165 -179.5t59 -261.5h-1346q0 -65 36.5 -117.5
t93.5 -85.5t132.5 -54.5t149 -30.5t147.5 -9zM1929 618l-1 1q0 -13 1 -21l920 49q-20 71 -60 129t-88 95.5t-103.5 63.5t-106 37t-95.5 11q-118 0 -211 -33t-147 -87t-81.5 -116.5t-27.5 -128.5zM592 317q0 -41 70 -77.5t165 -36.5q356 0 693 143v180q-236 -7 -406.5 -22
t-270 -33.5t-157 -44.5t-76 -51t-18.5 -58z" />
    <glyph glyph-name="ccedilla" unicode="&#xe7;" horiz-adv-x="2004" 
d="M1053 238q217 0 434.5 64t327.5 177l10 -8l-43 -272q-94 -85 -309.5 -155t-458.5 -73l-88 -104q142 0 227.5 -18.5t117.5 -49t32 -78.5q0 -61 -58 -112.5t-148.5 -83t-174 -50.5t-160.5 -28l-2 39q272 50 272 164q0 53 -74.5 71.5t-214.5 18.5l177 233q-224 10 -403 76.5
t-286.5 188t-107.5 278.5q0 129 85 242.5t220 188.5t300.5 118t330.5 43q92 0 150.5 -2t151 -12.5t163 -30t156.5 -57.5t161 -93l-225 -360h-12q-52 88 -134.5 168.5t-182 142t-217 96t-230.5 29.5q-182 0 -273.5 -80t-91.5 -229q0 -93 38.5 -173t110 -140t182.5 -94.5
t247 -34.5z" />
    <glyph glyph-name="egrave" unicode="&#xe8;" horiz-adv-x="1966" 
d="M1362 1217l-12 -17l-758 303l182 197zM1057 238q187 0 412 56t346 150l8 -10l-150 -235q-142 -104 -341.5 -166.5t-403.5 -61.5q-168 0 -312.5 35t-255 102t-174 172t-63.5 236q0 117 78 226.5t207.5 189.5t304.5 128t360 48q167 0 303.5 -32.5t242.5 -99.5t165 -179.5
t59 -261.5h-1339q58 -139 214.5 -218t338.5 -79zM842 983q-182 0 -274.5 -79.5t-92.5 -223.5q0 -22 4 -62l938 50q-25 89 -83.5 152.5t-139.5 98t-167 49.5t-185 15z" />
    <glyph glyph-name="eacute" unicode="&#xe9;" horiz-adv-x="1966" 
d="M1532 1503l-758 -303l-12 17l588 483zM1057 238q187 0 412 56t346 150l8 -10l-150 -235q-142 -104 -341.5 -166.5t-403.5 -61.5q-168 0 -312.5 35t-255 102t-174 172t-63.5 236q0 117 78 226.5t207.5 189.5t304.5 128t360 48q167 0 303.5 -32.5t242.5 -99.5t165 -179.5
t59 -261.5h-1339q58 -139 214.5 -218t338.5 -79zM842 983q-182 0 -274.5 -79.5t-92.5 -223.5q0 -22 4 -62l938 50q-25 89 -83.5 152.5t-139.5 98t-167 49.5t-185 15z" />
    <glyph glyph-name="ecircumflex" unicode="&#xea;" horiz-adv-x="1966" 
d="M1507 1212l-456 156l-453 -154v21l453 362l456 -364v-21zM1057 238q187 0 412 56t346 150l8 -10l-150 -235q-142 -104 -341.5 -166.5t-403.5 -61.5q-168 0 -312.5 35t-255 102t-174 172t-63.5 236q0 117 78 226.5t207.5 189.5t304.5 128t360 48q167 0 303.5 -32.5
t242.5 -99.5t165 -179.5t59 -261.5h-1339q58 -139 214.5 -218t338.5 -79zM842 983q-182 0 -274.5 -79.5t-92.5 -223.5q0 -22 4 -62l938 50q-25 89 -83.5 152.5t-139.5 98t-167 49.5t-185 15z" />
    <glyph glyph-name="edieresis" unicode="&#xeb;" horiz-adv-x="1966" 
d="M733 1251q-68 0 -103.5 25.5t-35.5 60.5q0 51 61 89t148 38q139 0 139 -86q0 -43 -60 -85t-149 -42zM1245 1251q-68 0 -103.5 25.5t-35.5 60.5q0 51 61 89t148 38q139 0 139 -86q0 -43 -60 -85t-149 -42zM1057 238q187 0 412 56t346 150l8 -10l-150 -235
q-142 -104 -341.5 -166.5t-403.5 -61.5q-168 0 -312.5 35t-255 102t-174 172t-63.5 236q0 117 78 226.5t207.5 189.5t304.5 128t360 48q167 0 303.5 -32.5t242.5 -99.5t165 -179.5t59 -261.5h-1339q58 -139 214.5 -218t338.5 -79zM842 983q-182 0 -274.5 -79.5t-92.5 -223.5
q0 -22 4 -62l938 50q-25 89 -83.5 152.5t-139.5 98t-167 49.5t-185 15z" />
    <glyph glyph-name="igrave" unicode="&#xec;" horiz-adv-x="899" 
d="M209 1700l588 -483l-13 -17l-757 303zM700 346q0 -84 7 -151t17 -101.5t20 -57.5t17 -30l7 -6h-514q4 5 10 25t16.5 143.5t10.5 320.5l2 195q0 69 -14.5 120.5t-38.5 78.5t-45.5 39.5t-44.5 17.5v10l550 135v-739z" />
    <glyph glyph-name="iacute" unicode="&#xed;" 
d="M696 1700l183 -197l-758 -303l-12 17zM700 346q0 -84 7 -151t17 -101.5t20 -57.5t17 -30l7 -6h-514q4 5 10 25t16.5 143.5t10.5 320.5l2 195q0 69 -14.5 120.5t-38.5 78.5t-45.5 39.5t-44.5 17.5v10l550 135v-739z" />
    <glyph glyph-name="icircumflex" unicode="&#xee;" horiz-adv-x="942" 
d="M469 1597l457 -364v-21l-457 156l-453 -154v21zM700 346q0 -84 7 -151t17 -101.5t20 -57.5t17 -30l7 -6h-514q4 5 10 25t16.5 143.5t10.5 320.5l2 195q0 69 -14.5 120.5t-38.5 78.5t-45.5 39.5t-44.5 17.5v10l550 135v-739z" />
    <glyph glyph-name="idieresis" unicode="&#xef;" horiz-adv-x="978" 
d="M406 1378q0 -43 -60 -85t-149 -42q-68 0 -104 26t-36 60q0 51 61 89t148 38q140 0 140 -86zM778 1464q140 0 140 -86q0 -43 -60 -85t-149 -42q-68 0 -104 26t-36 60q0 51 61 89t148 38zM700 346q0 -84 7 -151t17 -101.5t20 -57.5t17 -30l7 -6h-514q4 5 10 25t16.5 143.5
t10.5 320.5l2 195q0 69 -14.5 120.5t-38.5 78.5t-45.5 39.5t-44.5 17.5v10l550 135v-739z" />
    <glyph glyph-name="eth" unicode="&#xf0;" horiz-adv-x="2437" 
d="M2253 612v-10q-9 -171 -162 -316.5t-407.5 -230t-548.5 -84.5q-130 0 -261 19.5t-256 62.5t-221 103t-154.5 147.5t-58.5 190.5q0 115 68 200t192 133.5t280 71.5t349 23q167 0 323.5 -43t251.5 -97t144 -108q-25 106 -92.5 189t-168 138t-216.5 90t-256 54l-133 -121
h-121l145 133q-220 22 -477 12l305 306q270 0 479 -37l132 121h120l-151 -140q190 -40 343.5 -108.5t253 -148.5t167.5 -175t98 -184.5t33 -179.5v-11zM1149 66q103 0 197.5 17t182 56.5t150.5 97.5t97 147t26 198q-96 81 -208.5 133.5t-220 70.5t-213 14.5t-193.5 -33.5
t-156 -76t-106.5 -111.5t-38.5 -139.5q0 -179 133.5 -276.5t349.5 -97.5z" />
    <glyph glyph-name="ntilde" unicode="&#xf1;" horiz-adv-x="2228" 
d="M1004 1376q-78 0 -140.5 -31t-85.5 -83l-6 16q21 143 90.5 223t161.5 80q56 0 109 -18t87 -39.5t80 -39.5t91 -18q77 0 139.5 31.5t85.5 83.5l6 -16q-21 -143 -90.5 -223t-161.5 -80q-56 0 -109 18t-86.5 39t-79.5 39t-91 18zM1591 0q17 73 17 449v34q0 62 -13.5 112.5
t-47.5 96t-87.5 76t-137 48.5t-192.5 18q-278 0 -483 -146v-342q0 -84 5 -151t11.5 -101.5t13.5 -57.5t12 -30l5 -6h-473q17 46 17 489l2 236q0 58 -5 103t-11.5 69.5t-15 41t-13.5 21t-9 5.5l461 120v-309q104 87 254.5 165t254 114.5t130.5 36.5q731 6 731 -490v-256
q4 -134 15.5 -220.5t21.5 -105.5l10 -20h-473zM184 965h2h-2z" />
    <glyph glyph-name="ograve" unicode="&#xf2;" horiz-adv-x="2222" 
d="M668 1503l182 197l588 -483l-13 -17zM981 -41q-251 0 -447.5 63t-303.5 173.5t-107 248.5q0 94 51 188t150.5 177t233 147.5t311 102t372.5 37.5q391 0 624.5 -136.5t233.5 -349.5q0 -94 -51 -188t-150.5 -176.5t-233 -147t-311 -102t-372.5 -37.5zM1264 123
q77 0 149.5 18.5t135 54t100 96.5t37.5 138q1 90 -41 171t-114 140.5t-165.5 103t-198 65.5t-209.5 22q-77 0 -149.5 -18t-134.5 -53.5t-99.5 -96t-37.5 -137.5q0 -86 49.5 -174t139 -162t231 -121t307.5 -47z" />
    <glyph glyph-name="oacute" unicode="&#xf3;" horiz-adv-x="2222" 
d="M1546 1503l-758 -303l-12 17l588 483zM981 -41q-251 0 -447.5 63t-303.5 173.5t-107 248.5q0 94 51 188t150.5 177t233 147.5t311 102t372.5 37.5q391 0 624.5 -136.5t233.5 -349.5q0 -94 -51 -188t-150.5 -176.5t-233 -147t-311 -102t-372.5 -37.5zM1264 123
q77 0 149.5 18.5t135 54t100 96.5t37.5 138q1 90 -41 171t-114 140.5t-165.5 103t-198 65.5t-209.5 22q-77 0 -149.5 -18t-134.5 -53.5t-99.5 -96t-37.5 -137.5q0 -86 49.5 -174t139 -162t231 -121t307.5 -47z" />
    <glyph glyph-name="ocircumflex" unicode="&#xf4;" horiz-adv-x="2263" 
d="M643 1214l453 154l456 -156v21l-456 364l-453 -362v-21zM981 -41q-251 0 -447.5 63t-303.5 173.5t-107 248.5q0 94 51 188t150.5 177t233 147.5t311 102t372.5 37.5q391 0 624.5 -136.5t233.5 -349.5q0 -94 -51 -188t-150.5 -176.5t-233 -147t-311 -102t-372.5 -37.5z
M1264 123q77 0 149.5 18.5t135 54t100 96.5t37.5 138q1 90 -41 171t-114 140.5t-165.5 103t-198 65.5t-209.5 22q-77 0 -149.5 -18t-134.5 -53.5t-99.5 -96t-37.5 -137.5q0 -86 49.5 -174t139 -162t231 -121t307.5 -47z" />
    <glyph glyph-name="otilde" unicode="&#xf5;" horiz-adv-x="2222" 
d="M610 1257q21 143 90.5 223.5t161.5 80.5q56 0 109 -18t87 -39.5t80 -39.5t91 -18q77 0 139.5 31.5t85.5 83.5l6 -17q-21 -143 -90.5 -223t-161.5 -80q-56 0 -109 18t-86.5 39.5t-79.5 39.5t-91 18q-77 0 -140 -31.5t-86 -83.5zM981 -41q-251 0 -447.5 63t-303.5 173.5
t-107 248.5q0 94 51 188t150.5 177t233 147.5t311 102t372.5 37.5q391 0 624.5 -136.5t233.5 -349.5q0 -94 -51 -188t-150.5 -176.5t-233 -147t-311 -102t-372.5 -37.5zM1264 123q77 0 149.5 18.5t135 54t100 96.5t37.5 138q1 90 -41 171t-114 140.5t-165.5 103t-198 65.5
t-209.5 22q-77 0 -149.5 -18t-134.5 -53.5t-99.5 -96t-37.5 -137.5q0 -86 49.5 -174t139 -162t231 -121t307.5 -47z" />
    <glyph glyph-name="odieresis" unicode="&#xf6;" horiz-adv-x="2222" 
d="M809 1251q-68 0 -103.5 25.5t-35.5 60.5q0 51 61 89t148 38q139 0 139 -86q0 -43 -60 -85t-149 -42zM1321 1251q-68 0 -103.5 25.5t-35.5 60.5q0 51 61 89t148 38q139 0 139 -86q0 -43 -60 -85t-149 -42zM981 -41q-251 0 -447.5 63t-303.5 173.5t-107 248.5q0 94 51 188
t150.5 177t233 147.5t311 102t372.5 37.5q391 0 624.5 -136.5t233.5 -349.5q0 -94 -51 -188t-150.5 -176.5t-233 -147t-311 -102t-372.5 -37.5zM1264 123q77 0 149.5 18.5t135 54t100 96.5t37.5 138q1 90 -41 171t-114 140.5t-165.5 103t-198 65.5t-209.5 22
q-77 0 -149.5 -18t-134.5 -53.5t-99.5 -96t-37.5 -137.5q0 -86 49.5 -174t139 -162t231 -121t307.5 -47z" />
    <glyph glyph-name="divide" unicode="&#xf7;" horiz-adv-x="1224" 
d="M563 840q-95 0 -143.5 35.5t-48.5 82.5q0 71 84.5 125t206.5 54q194 0 194 -119q0 -62 -84 -120t-209 -58zM1184 643v-94h-1143v94h1143zM563 55q-95 0 -143.5 36t-48.5 83q0 71 84.5 124.5t206.5 53.5q194 0 194 -119q0 -62 -84 -120t-209 -58z" />
    <glyph glyph-name="oslash" unicode="&#xf8;" horiz-adv-x="2222" 
d="M1810 989q139 -67 214 -164t75 -215q0 -94 -51 -188t-150.5 -176.5t-233 -147t-311 -102t-372.5 -37.5q-262 0 -475 72l-98 -72h-121l141 104q-146 65 -225.5 163.5t-79.5 217.5q0 94 51 188t150.5 177t233 147.5t311 102t372.5 37.5q286 0 492 -76l102 76h121zM537 627
q0 -88 50 -178t144 -162l709 518q-102 61 -228.5 94t-253.5 33q-77 0 -149.5 -18t-134.5 -53.5t-99.5 -96t-37.5 -137.5zM1686 430q0 98 -48.5 183.5t-134.5 150.5l-708 -520q195 -121 469 -121q77 0 149.5 18.5t135 54t100 96.5t37.5 138z" />
    <glyph glyph-name="ugrave" unicode="&#xf9;" horiz-adv-x="2211" 
d="M1393 1217l-13 -17l-757 303l182 197zM1978 330q0 -83 10.5 -139.5t20 -74.5t19.5 -24v-4l-457 -119v310q-104 -87 -252 -165t-249 -114.5t-128 -36.5q-731 -6 -731 490v225q-4 134 -15.5 220.5t-21.5 105.5l-10 20h473q-16 -73 -16 -449v-34q0 -78 22.5 -134t75.5 -99.5
t147.5 -65t231.5 -21.5q273 0 473 141v316q0 84 -5 151t-11.5 101.5t-13.5 57.5t-12 30l-5 6h473q-17 -46 -17 -489z" />
    <glyph glyph-name="uacute" unicode="&#xfa;" horiz-adv-x="2211" 
d="M1530 1503l-758 -303l-12 17l588 483zM1978 330q0 -83 10.5 -139.5t20 -74.5t19.5 -24v-4l-457 -119v310q-104 -87 -252 -165t-249 -114.5t-128 -36.5q-731 -6 -731 490v225q-4 134 -15.5 220.5t-21.5 105.5l-10 20h473q-16 -73 -16 -449v-34q0 -78 22.5 -134t75.5 -99.5
t147.5 -65t231.5 -21.5q273 0 473 141v316q0 84 -5 151t-11.5 101.5t-13.5 57.5t-12 30l-5 6h473q-17 -46 -17 -489z" />
    <glyph glyph-name="ucircumflex" unicode="&#xfb;" horiz-adv-x="2211" 
d="M1561 1212l-457 156l-453 -154v21l453 362l457 -364v-21zM1978 330q0 -83 10.5 -139.5t20 -74.5t19.5 -24v-4l-457 -119v310q-104 -87 -252 -165t-249 -114.5t-128 -36.5q-731 -6 -731 490v225q-4 134 -15.5 220.5t-21.5 105.5l-10 20h473q-16 -73 -16 -449v-34
q0 -78 22.5 -134t75.5 -99.5t147.5 -65t231.5 -21.5q273 0 473 141v316q0 84 -5 151t-11.5 101.5t-13.5 57.5t-12 30l-5 6h473q-17 -46 -17 -489z" />
    <glyph glyph-name="udieresis" unicode="&#xfc;" horiz-adv-x="2211" 
d="M801 1251q-68 0 -103.5 25.5t-35.5 60.5q0 51 60.5 89t147.5 38q140 0 140 -86q0 -43 -60 -85t-149 -42zM1313 1251q-68 0 -103.5 25.5t-35.5 60.5q0 51 60.5 89t147.5 38q140 0 140 -86q0 -43 -60 -85t-149 -42zM1978 330q0 -83 10.5 -139.5t20 -74.5t19.5 -24v-4
l-457 -119v310q-104 -87 -252 -165t-249 -114.5t-128 -36.5q-731 -6 -731 490v225q-4 134 -15.5 220.5t-21.5 105.5l-10 20h473q-16 -73 -16 -449v-34q0 -78 22.5 -134t75.5 -99.5t147.5 -65t231.5 -21.5q273 0 473 141v316q0 84 -5 151t-11.5 101.5t-13.5 57.5t-12 30l-5 6
h473q-17 -46 -17 -489z" />
    <glyph glyph-name="yacute" unicode="&#xfd;" horiz-adv-x="1894" 
d="M1530 1503l-758 -303l-12 17l588 483zM1894 1024l-704 -899q-135 -161 -186 -215l-5 -4q-139 -146 -274 -231t-276 -85q-54 0 -106 11t-87.5 27t-63.5 32.5t-42 27.5l-13 11l121 285q33 -22 61.5 -36t94.5 -29t147 -15q189 0 342 108l-903 1012l612 -4q18 -152 193 -361
l338 -403l284 403q33 47 57 97.5t35.5 81.5t20.5 79t9.5 57.5t4.5 49.5h340z" />
    <glyph glyph-name="thorn" unicode="&#xfe;" horiz-adv-x="2238" 
d="M150 1425v9l495 174v-846q178 126 379 220.5t305 94.5q241 0 415.5 -52.5t273 -164t98.5 -274.5q0 -133 -91 -252t-239.5 -200t-339.5 -128t-389 -47q-192 0 -412 70v-285l-442 -145l-4 6q37 115 37 598v983q0 61 -9 108t-24 72.5t-27.5 38.5t-25.5 20zM645 680v-326
q95 -114 256.5 -186.5t372.5 -73.5q75 0 149 23t135.5 64t99.5 106.5t38 142.5q0 96 -41.5 173t-111 124.5t-155 72t-178.5 23.5q-329 4 -565 -143z" />
    <glyph glyph-name="ydieresis" unicode="&#xff;" horiz-adv-x="1894" 
d="M801 1251q-68 0 -103.5 25.5t-35.5 60.5q0 51 60.5 89t147.5 38q140 0 140 -86q0 -43 -60 -85t-149 -42zM1313 1251q-68 0 -103.5 25.5t-35.5 60.5q0 51 60.5 89t147.5 38q140 0 140 -86q0 -43 -60 -85t-149 -42zM1894 1024l-704 -899q-135 -161 -186 -215l-5 -4
q-139 -146 -274 -231t-276 -85q-54 0 -106 11t-87.5 27t-63.5 32.5t-42 27.5l-13 11l121 285q33 -22 61.5 -36t94.5 -29t147 -15q189 0 342 108l-903 1012l612 -4q18 -152 193 -361l338 -403l284 403q33 47 57 97.5t35.5 81.5t20.5 79t9.5 57.5t4.5 49.5h340z" />
    <glyph glyph-name="Amacron" unicode="&#x100;" horiz-adv-x="2381" 
d="M735 1698h643v-94h-643v94zM61 0q151 137 345 436q95 149 267.5 425.5t239.5 383.5q-148 144 -288 178v11h733l549 -836l100 -156q93 -145 195 -277t159 -165h-741q45 55 -47 244l-115 190h-870l-137 -227q-70 -126 -35 -207h-355zM643 528h758l-277 455
q-66 100 -112 156z" />
    <glyph glyph-name="amacron" unicode="&#x101;" horiz-adv-x="2150" 
d="M1411 1425v-94h-643v94h643zM1929 340q0 -234 58 -285v-6l-467 -67v309q-178 -113 -424.5 -222.5t-360.5 -109.5q-164 0 -283.5 21t-184.5 58.5t-94.5 81.5t-29.5 97q0 107 113.5 190t296 125.5t397.5 42.5q120 0 307.5 -6.5t262.5 -15.5v59q0 62 -60 114t-159 81
t-214 29q-106 0 -210.5 -21t-194 -58.5t-149.5 -68t-128 -72t-79 -47.5h-9l-67 297q151 99 415.5 167.5t487.5 68.5q181 0 317 -24t222.5 -66t140 -106t75 -137t21.5 -167v-262zM827 203q159 0 326.5 29.5t366.5 117.5v144q-283 0 -468 -11t-284.5 -35t-137.5 -54.5
t-38 -76.5q0 -41 70 -77.5t165 -36.5z" />
    <glyph glyph-name="Abreve" unicode="&#x102;" horiz-adv-x="2381" 
d="M1069 1804q150 0 245.5 37t121.5 96h26q-3 -35 -17 -76t-44.5 -88.5t-73 -85.5t-110.5 -63t-150 -25q-81 1 -148.5 26t-110 63t-72.5 85t-43 88t-15 76h27q24 -60 118.5 -96.5t245.5 -36.5zM61 0q151 137 345 436q95 149 267.5 425.5t239.5 383.5q-148 144 -288 178v11
h733l549 -836l100 -156q93 -145 195 -277t159 -165h-741q45 55 -47 244l-115 190h-870l-137 -227q-70 -126 -35 -207h-355zM643 528h758l-277 455q-66 100 -112 156z" />
    <glyph glyph-name="abreve" unicode="&#x103;" horiz-adv-x="2150" 
d="M1104 1270q-81 1 -148.5 26t-110 63t-72.5 85t-43 88t-15 76h26q24 -60 119 -96.5t246 -36.5q150 0 245.5 37t121.5 96h26q-3 -35 -17 -76t-44.5 -88.5t-73 -85.5t-110.5 -63t-150 -25zM1929 340q0 -234 58 -285v-6l-467 -67v309q-178 -113 -424.5 -222.5t-360.5 -109.5
q-164 0 -283.5 21t-184.5 58.5t-94.5 81.5t-29.5 97q0 107 113.5 190t296 125.5t397.5 42.5q120 0 307.5 -6.5t262.5 -15.5v59q0 62 -60 114t-159 81t-214 29q-106 0 -210.5 -21t-194 -58.5t-149.5 -68t-128 -72t-79 -47.5h-9l-67 297q151 99 415.5 167.5t487.5 68.5
q181 0 317 -24t222.5 -66t140 -106t75 -137t21.5 -167v-262zM827 203q159 0 326.5 29.5t366.5 117.5v144q-283 0 -468 -11t-284.5 -35t-137.5 -54.5t-38 -76.5q0 -41 70 -77.5t165 -36.5z" />
    <glyph glyph-name="Aogonek" unicode="&#x104;" horiz-adv-x="2381" 
d="M1634 -293q57 0 111.5 26t91.5 74l29 -75q-5 -19 -24 -45.5t-51.5 -56t-88 -50t-121.5 -20.5q-125 0 -188.5 61t-63.5 139q0 55 30.5 104.5t76.5 81.5t97.5 51t94.5 19h2q24 62 -57 228l-115 190h-870l-137 -227q-70 -126 -35 -207h-355q151 137 345 436
q95 149 267.5 425.5t239.5 383.5q-148 144 -288 178v11h733l549 -836l100 -156q93 -145 195 -277t159 -165h-659h-2h-8q-19 -3 -50.5 -17t-66.5 -35.5t-59.5 -53t-24.5 -64.5q0 -64 34.5 -93.5t108.5 -29.5zM643 528h758l-277 455q-66 100 -112 156z" />
    <glyph glyph-name="aogonek" unicode="&#x105;" horiz-adv-x="2150" 
d="M1929 340q0 -234 58 -285v-6l-467 -67v309q-134 -84 -321 -174.5t-325 -130.5q-45 -42 -45 -88q0 -64 35 -93.5t109 -29.5q57 0 111.5 26t91.5 74l28 -76q-5 -20 -23.5 -46t-51.5 -55.5t-88 -50t-121 -20.5q-125 0 -188.5 61.5t-63.5 139.5q0 68 49 131q-128 1 -228 16
t-164.5 39t-106 57t-58.5 69t-17 77q0 107 113.5 190t296 125.5t397.5 42.5q120 0 307.5 -6.5t262.5 -15.5v59q0 62 -60 114t-159 81t-214 29q-106 0 -210.5 -21t-194 -58.5t-149.5 -68t-128 -72t-79 -47.5h-9l-67 297q151 99 415.5 167.5t487.5 68.5q181 0 317 -24
t222.5 -66t140 -106t75 -137t21.5 -167v-262zM827 203q159 0 326.5 29.5t366.5 117.5v144q-283 0 -468 -11t-284.5 -35t-137.5 -54.5t-38 -76.5q0 -41 70 -77.5t165 -36.5zM1038 68h2h-2z" />
    <glyph glyph-name="Cacute" unicode="&#x106;" horiz-adv-x="2134" 
d="M1726 1931l-757 -303l-13 17l588 483zM2073 463q-34 -60 -91.5 -125.5t-148.5 -136.5t-197 -126.5t-247 -91.5t-289 -36q-150 0 -293.5 35t-262.5 101t-209.5 154t-141 200.5t-50.5 234.5q0 192 87 354.5t236 272t350 170.5t427 61q147 0 285 -22t229 -53t161.5 -62.5
t103.5 -53.5l32 -22l-100 -496q-10 12 -27.5 31.5t-76 77t-121 110t-157.5 116t-189.5 109.5t-212.5 77.5t-232 31.5q-209 0 -350.5 -128t-141.5 -314q0 -113 50.5 -221.5t138 -194t198.5 -150.5t239 -100t253 -35q491 0 711 295z" />
    <glyph glyph-name="cacute" unicode="&#x107;" horiz-adv-x="1984" 
d="M1528 1503l-758 -303l-12 17l588 483zM1604 553q-52 88 -134.5 168.5t-182 142t-217 96t-230.5 29.5q-182 0 -273.5 -80t-91.5 -229q0 -93 38.5 -173t110 -140t182.5 -94.5t247 -34.5q217 0 434.5 64t327.5 177l10 -8l-43 -272q-96 -87 -318 -157.5t-471 -70.5
q-180 0 -338 38t-276.5 106.5t-187 172.5t-68.5 228q0 129 85 242.5t220 188.5t300.5 118t330.5 43q92 0 150.5 -2t151 -12.5t163 -30t156.5 -57.5t161 -93l-225 -360h-12z" />
    <glyph glyph-name="Cdotaccent" unicode="&#x10a;" horiz-adv-x="2134" 
d="M1104 1698q-68 0 -103.5 25.5t-35.5 60.5q0 51 61 89t148 38q139 0 139 -86q0 -43 -60 -85t-149 -42zM2073 463q-34 -60 -91.5 -125.5t-148.5 -136.5t-197 -126.5t-247 -91.5t-289 -36q-150 0 -293.5 35t-262.5 101t-209.5 154t-141 200.5t-50.5 234.5q0 192 87 354.5
t236 272t350 170.5t427 61q147 0 285 -22t229 -53t161.5 -62.5t103.5 -53.5l32 -22l-100 -496q-10 12 -27.5 31.5t-76 77t-121 110t-157.5 116t-189.5 109.5t-212.5 77.5t-232 31.5q-209 0 -350.5 -128t-141.5 -314q0 -113 50.5 -221.5t138 -194t198.5 -150.5t239 -100
t253 -35q491 0 711 295z" />
    <glyph glyph-name="cdotaccent" unicode="&#x10b;" horiz-adv-x="2004" 
d="M977 1251q-68 0 -103.5 25.5t-35.5 60.5q0 51 61 89t148 38q139 0 139 -86q0 -43 -60 -85t-149 -42zM1604 553q-52 88 -134.5 168.5t-182 142t-217 96t-230.5 29.5q-182 0 -273.5 -80t-91.5 -229q0 -93 38.5 -173t110 -140t182.5 -94.5t247 -34.5q217 0 434.5 64
t327.5 177l10 -8l-43 -272q-96 -87 -318 -157.5t-471 -70.5q-180 0 -338 38t-276.5 106.5t-187 172.5t-68.5 228q0 129 85 242.5t220 188.5t300.5 118t330.5 43q92 0 150.5 -2t151 -12.5t163 -30t156.5 -57.5t161 -93l-225 -360h-12z" />
    <glyph glyph-name="Ccaron" unicode="&#x10c;" horiz-adv-x="2134" 
d="M674 2021v-20l452 -363l457 365v20l-457 -155zM2073 463q-34 -60 -91.5 -125.5t-148.5 -136.5t-197 -126.5t-247 -91.5t-289 -36q-150 0 -293.5 35t-262.5 101t-209.5 154t-141 200.5t-50.5 234.5q0 192 87 354.5t236 272t350 170.5t427 61q147 0 285 -22t229 -53
t161.5 -62.5t103.5 -53.5l32 -22l-100 -496q-10 12 -27.5 31.5t-76 77t-121 110t-157.5 116t-189.5 109.5t-212.5 77.5t-232 31.5q-209 0 -350.5 -128t-141.5 -314q0 -113 50.5 -221.5t138 -194t198.5 -150.5t239 -100t253 -35q491 0 711 295z" />
    <glyph glyph-name="ccaron" unicode="&#x10d;" horiz-adv-x="2004" 
d="M588 1595v-20l452 -363l457 365v20l-457 -155zM1604 553q-52 88 -134.5 168.5t-182 142t-217 96t-230.5 29.5q-182 0 -273.5 -80t-91.5 -229q0 -93 38.5 -173t110 -140t182.5 -94.5t247 -34.5q217 0 434.5 64t327.5 177l10 -8l-43 -272q-96 -87 -318 -157.5t-471 -70.5
q-180 0 -338 38t-276.5 106.5t-187 172.5t-68.5 228q0 129 85 242.5t220 188.5t300.5 118t330.5 43q92 0 150.5 -2t151 -12.5t163 -30t156.5 -57.5t161 -93l-225 -360h-12z" />
    <glyph glyph-name="Dcaron" unicode="&#x10e;" horiz-adv-x="2228" 
d="M1546 1966l-456 -364l-453 362v21l453 -154l456 156v-21zM1227 1434q161 0 303 -18.5t272 -62.5t223 -111t148 -169.5t55 -232.5q0 -129 -46.5 -251.5t-141 -229.5t-227 -187.5t-317 -127t-398.5 -46.5h-305h-568l6 9t13.5 33t17 62t13.5 100t6 144l6 741
q0 79 -6.5 143.5t-15.5 100.5t-18 61t-15 34l-7 8h568h434zM1157 84q152 0 268.5 45t188 127t107.5 191t36 243t-38 243.5t-103.5 184t-155 125t-190 73.5t-211.5 23q-176 4 -307 -39q-15 -96 -15 -215v-739q0 -105 8 -162q163 -100 412 -100z" />
    <glyph glyph-name="dcaron" unicode="&#x10f;" horiz-adv-x="2256" 
d="M2056 369q0 -229 58 -287v-6l-467 -107v344q-183 -137 -404 -245.5t-334 -108.5q-241 0 -415 53t-272.5 164.5t-98.5 274.5q0 133 91 251.5t239.5 199.5t339.5 128t389 47q93 0 220 -22.5t245 -65.5v197q0 109 -25.5 165.5t-56.5 73.5v11l491 172v-1239zM1444 1556
l-457 -364l-452 362v21l452 -154l457 156v-21zM1028 213q370 -4 619 180v209q-76 143 -254.5 240t-427.5 100q-75 0 -149 -23t-135.5 -64t-99.5 -106.5t-38 -142.5q0 -96 41.5 -173t110.5 -124.5t154.5 -72t178.5 -23.5z" />
    <glyph glyph-name="Dcroat" unicode="&#x110;" horiz-adv-x="2228" 
d="M1227 1434q161 0 303 -18.5t272 -62.5t223 -111t148 -169.5t55 -232.5q0 -129 -46.5 -251.5t-141 -229.5t-227 -187.5t-317 -127t-398.5 -46.5h-305h-568l6 9t13.5 33t17 62t13.5 100t6 144l2 197h-181v94h181l4 450q0 79 -6.5 143.5t-15.5 100.5t-18 61t-15 34l-7 8h568
h434zM1157 84q152 0 268.5 45t188 127t107.5 191t36 243t-38 243.5t-103.5 184t-155 125t-190 73.5t-211.5 23q-176 4 -307 -39q-15 -96 -15 -215v-448h396v-94h-396v-197q0 -105 8 -162q163 -100 412 -100z" />
    <glyph glyph-name="dcroat" unicode="&#x111;" horiz-adv-x="2256" 
d="M2056 369q0 -229 58 -287v-6l-467 -107v344q-183 -137 -404 -245.5t-334 -108.5q-241 0 -415 53t-272.5 164.5t-98.5 274.5v2h-156v94h168q40 153 198.5 275.5t382.5 188.5t466 66q93 0 220 -22.5t245 -65.5v197q0 109 -25.5 165.5t-56.5 73.5v11l491 172v-1239z
M1028 213q370 -4 619 180v209q-76 143 -254.5 240t-427.5 100q-75 0 -149 -23t-135.5 -64t-99.5 -106.5t-38 -142.5q0 -23 4 -59h450v-94h-424q36 -78 109 -134t161.5 -81.5t184.5 -24.5z" />
    <glyph glyph-name="Emacron" unicode="&#x112;" horiz-adv-x="2379" 
d="M1473 1757v-94h-644v94h644zM2099 526l76 -8l-90 -526l-1880 8q2 3 5.5 9t11.5 32.5t14.5 61t12 99.5t5.5 144l6 741q0 125 -14 211.5t-28 111.5l-13 24h1798l90 -521l-76 -8q-69 113 -138.5 188.5t-150.5 124.5t-176.5 74t-215.5 36t-269 11.5t-336 -0.5
q-20 -106 -20 -254v-280h1218v-94h-1218v-365q0 -146 20 -252q66 0 188 -1q169 -2 303 -1.5t243 12.5t196.5 37t163 74.5t141.5 124.5t133 186z" />
    <glyph glyph-name="emacron" unicode="&#x113;" horiz-adv-x="1966" 
d="M1282 1419v-94h-643v94h643zM1057 238q187 0 412 56t346 150l8 -10l-150 -235q-142 -104 -341.5 -166.5t-403.5 -61.5q-168 0 -312.5 35t-255 102t-174 172t-63.5 236q0 117 78 226.5t207.5 189.5t304.5 128t360 48q167 0 303.5 -32.5t242.5 -99.5t165 -179.5t59 -261.5
h-1339q58 -139 214.5 -218t338.5 -79zM842 983q-182 0 -274.5 -79.5t-92.5 -223.5q0 -22 4 -62l938 50q-25 89 -83.5 152.5t-139.5 98t-167 49.5t-185 15z" />
    <glyph glyph-name="Edotaccent" unicode="&#x116;" horiz-adv-x="2379" 
d="M1139 1593q-68 0 -104 26t-36 60q0 51 61 89t148 38q140 0 140 -86q0 -43 -60 -85t-149 -42zM2099 526l76 -8l-90 -526l-1880 8q2 3 5.5 9t11.5 32.5t14.5 61t12 99.5t5.5 144l6 741q0 125 -14 211.5t-28 111.5l-13 24h1798l90 -521l-76 -8q-69 113 -138.5 188.5
t-150.5 124.5t-176.5 74t-215.5 36t-269 11.5t-336 -0.5q-20 -106 -20 -254v-280h1218v-94h-1218v-365q0 -146 20 -252q66 0 188 -1q169 -2 303 -1.5t243 12.5t196.5 37t163 74.5t141.5 124.5t133 186z" />
    <glyph glyph-name="edotaccent" unicode="&#x117;" horiz-adv-x="1966" 
d="M967 1251q-68 0 -104 26t-36 60q0 51 61 89t148 38q140 0 140 -86q0 -43 -60 -85t-149 -42zM1057 238q187 0 412 56t346 150l8 -10l-150 -235q-142 -104 -341.5 -166.5t-403.5 -61.5q-168 0 -312.5 35t-255 102t-174 172t-63.5 236q0 117 78 226.5t207.5 189.5t304.5 128
t360 48q167 0 303.5 -32.5t242.5 -99.5t165 -179.5t59 -261.5h-1339q58 -139 214.5 -218t338.5 -79zM842 983q-182 0 -274.5 -79.5t-92.5 -223.5q0 -22 4 -62l938 50q-25 89 -83.5 152.5t-139.5 98t-167 49.5t-185 15z" />
    <glyph glyph-name="Eogonek" unicode="&#x118;" horiz-adv-x="2379" 
d="M2152 -193l29 -75q-5 -19 -24 -45.5t-51.5 -56t-88 -50t-121.5 -20.5q-125 0 -188 61t-63 139t56 140t136 94l-1632 6q2 3 5.5 9t11.5 32.5t14.5 61t12 99.5t5.5 144l6 741q0 125 -14 211.5t-28 111.5l-13 24h1798l90 -521l-76 -8q-69 113 -138.5 188.5t-150.5 124.5
t-176.5 74t-215.5 36t-269 11.5t-336 -0.5q-20 -106 -20 -254v-280h1218v-94h-1218v-365q0 -146 20 -252q66 0 188 -1q169 -2 303 -1.5t243 12.5t196.5 37t163 74.5t141.5 124.5t133 186l76 -8l-90 -526h-107q-35 -12 -72 -33t-68.5 -56.5t-31.5 -72.5q0 -64 35 -93.5
t109 -29.5q57 0 111 26t91 74zM2015 0h2h-2z" />
    <glyph glyph-name="eogonek" unicode="&#x119;" horiz-adv-x="1966" 
d="M1057 238q187 0 412 56t346 150l8 -10l-150 -235q-129 -94 -308.5 -155.5t-365.5 -70.5q-139 -66 -139 -149q0 -64 35 -93.5t109 -29.5q57 0 111 26t91 74l29 -75q-5 -19 -24 -45.5t-51.5 -56t-88 -50t-121.5 -20.5q-125 0 -188.5 61t-63.5 139q0 69 46 126.5t116 92.5
q-157 7 -289.5 45t-233 104.5t-157.5 167.5t-57 226q0 117 78 226.5t207.5 189.5t304.5 128t360 48q167 0 303.5 -32.5t242.5 -99.5t165 -179.5t59 -261.5h-1339q58 -139 214.5 -218t338.5 -79zM842 983q-182 0 -274.5 -79.5t-92.5 -223.5q0 -22 4 -62l938 50
q-25 89 -83.5 152.5t-139.5 98t-167 49.5t-185 15zM1069 -6h2h-2z" />
    <glyph glyph-name="Ecaron" unicode="&#x11a;" horiz-adv-x="2379" 
d="M1618 1931l-457 -364l-452 362v21l452 -154l457 156v-21zM2099 526l76 -8l-90 -526l-1880 8q2 3 5.5 9t11.5 32.5t14.5 61t12 99.5t5.5 144l6 741q0 125 -14 211.5t-28 111.5l-13 24h1798l90 -521l-76 -8q-69 113 -138.5 188.5t-150.5 124.5t-176.5 74t-215.5 36
t-269 11.5t-336 -0.5q-20 -106 -20 -254v-280h1218v-94h-1218v-365q0 -146 20 -252q66 0 188 -1q169 -2 303 -1.5t243 12.5t196.5 37t163 74.5t141.5 124.5t133 186z" />
    <glyph glyph-name="ecaron" unicode="&#x11b;" horiz-adv-x="1966" 
d="M1466 1597l-456 -364l-453 362v21l453 -154l456 156v-21zM1057 238q187 0 412 56t346 150l8 -10l-150 -235q-142 -104 -341.5 -166.5t-403.5 -61.5q-168 0 -312.5 35t-255 102t-174 172t-63.5 236q0 117 78 226.5t207.5 189.5t304.5 128t360 48q167 0 303.5 -32.5
t242.5 -99.5t165 -179.5t59 -261.5h-1339q58 -139 214.5 -218t338.5 -79zM842 983q-182 0 -274.5 -79.5t-92.5 -223.5q0 -22 4 -62l938 50q-25 89 -83.5 152.5t-139.5 98t-167 49.5t-185 15z" />
    <glyph glyph-name="Gbreve" unicode="&#x11e;" horiz-adv-x="2242" 
d="M1120 1704q-81 1 -148.5 26t-110 63t-72.5 85t-43 88t-15 76h27q24 -60 118.5 -96.5t245.5 -36.5q150 0 245.5 37t121.5 96h27q-3 -35 -17 -76t-44.5 -88.5t-73.5 -85.5t-111 -63t-150 -25zM1339 700h740l-51 -700l-68 -2l-43 315q-66 -70 -149 -131.5t-190.5 -116
t-242 -86.5t-276.5 -32q-187 0 -356 55.5t-292 150.5t-195.5 230.5t-72.5 288.5q0 193 80.5 354.5t221.5 271.5t336 171t421 61q147 0 285 -22t229 -53t161.5 -62.5t102.5 -53.5l33 -22l-100 -455q-10 11 -27.5 29.5t-76 71.5t-121 101.5t-157.5 107.5t-189.5 101.5
t-212.5 71.5t-232 29q-137 0 -250 -58.5t-177 -160t-64 -223.5q0 -142 58 -269t159 -220.5t245.5 -150.5t309.5 -61q332 5 466 107q82 63 57 136q-23 69 -126 108q-100 38 -236 30v88z" />
    <glyph glyph-name="gbreve" unicode="&#x11f;" horiz-adv-x="2031" 
d="M989 1229q-81 1 -148.5 26t-110 63t-72.5 85t-43 88t-15 76h27q24 -60 118.5 -96.5t245.5 -36.5q150 0 245.5 37t121.5 96h26q-3 -35 -17 -76t-44.5 -88.5t-73 -85.5t-110.5 -63t-150 -25zM528 373q0 -51 75 -77.5t194.5 -33.5t264.5 -8.5t290 -10t264.5 -30t194.5 -76
t75 -141.5q0 -74 -71.5 -146.5t-192 -129t-292 -91.5t-357.5 -35q-182 0 -352.5 27.5t-307 84.5t-190.5 134l340 201q-136 27 -209.5 74t-73.5 125q0 129 287 200q-252 97 -252 303q0 91 117 171.5t304 126.5t388 46q381 0 557 -90q144 14 381 99l49 -191l-313 -4
q41 -56 41 -133q0 -103 -109 -193.5t-299.5 -145t-412.5 -54.5q-203 0 -340 35q-50 -33 -50 -37zM856 1020q-87 0 -150 -46t-63 -130q0 -393 481 -393q77 0 130 41.5t53 113.5q0 105 -42 187.5t-109.5 130t-144.5 72t-155 24.5zM1528 -119q0 29 -29 49.5t-84 32t-122 19
t-155.5 11.5t-171 6.5t-181 8t-173.5 12.5q-11 -23 -11.5 -49t8.5 -53.5t30 -55t50.5 -53t73 -47.5t94.5 -38t117.5 -25.5t139.5 -9.5q156 0 285 58.5t129 133.5z" />
    <glyph glyph-name="Gdotaccent" unicode="&#x120;" horiz-adv-x="2242" 
d="M1092 1686q-68 0 -104 26t-36 60q0 51 60.5 88.5t148.5 37.5q139 0 139 -86q0 -43 -59.5 -84.5t-148.5 -41.5zM1339 700h740l-51 -700l-68 -2l-43 315q-66 -70 -149 -131.5t-190.5 -116t-242 -86.5t-276.5 -32q-187 0 -356 55.5t-292 150.5t-195.5 230.5t-72.5 288.5
q0 193 80.5 354.5t221.5 271.5t336 171t421 61q147 0 285 -22t229 -53t161.5 -62.5t102.5 -53.5l33 -22l-100 -455q-10 11 -27.5 29.5t-76 71.5t-121 101.5t-157.5 107.5t-189.5 101.5t-212.5 71.5t-232 29q-137 0 -250 -58.5t-177 -160t-64 -223.5q0 -142 58 -269
t159 -220.5t245.5 -150.5t309.5 -61q332 5 466 107q82 63 57 136q-23 69 -126 108q-100 38 -236 30v88z" />
    <glyph glyph-name="gdotaccent" unicode="&#x121;" horiz-adv-x="2031" 
d="M903 1251q-68 0 -103.5 25.5t-35.5 60.5q0 51 61 89t148 38q139 0 139 -86q0 -43 -60 -85t-149 -42zM528 373q0 -51 75 -77.5t194.5 -33.5t264.5 -8.5t290 -10t264.5 -30t194.5 -76t75 -141.5q0 -74 -71.5 -146.5t-192 -129t-292 -91.5t-357.5 -35q-182 0 -352.5 27.5
t-307 84.5t-190.5 134l340 201q-136 27 -209.5 74t-73.5 125q0 129 287 200q-252 97 -252 303q0 91 117 171.5t304 126.5t388 46q381 0 557 -90q144 14 381 99l49 -191l-313 -4q41 -56 41 -133q0 -103 -109 -193.5t-299.5 -145t-412.5 -54.5q-203 0 -340 35q-50 -33 -50 -37
zM856 1020q-87 0 -150 -46t-63 -130q0 -393 481 -393q77 0 130 41.5t53 113.5q0 105 -42 187.5t-109.5 130t-144.5 72t-155 24.5zM1528 -119q0 29 -29 49.5t-84 32t-122 19t-155.5 11.5t-171 6.5t-181 8t-173.5 12.5q-11 -23 -11.5 -49t8.5 -53.5t30 -55t50.5 -53t73 -47.5
t94.5 -38t117.5 -25.5t139.5 -9.5q156 0 285 58.5t129 133.5z" />
    <glyph glyph-name="Gcommaaccent" unicode="&#x122;" horiz-adv-x="2242" 
d="M1339 700h740l-51 -700l-68 -2l-43 315q-66 -70 -149 -131.5t-190.5 -116t-242 -86.5t-276.5 -32q-187 0 -356 55.5t-292 150.5t-195.5 230.5t-72.5 288.5q0 193 80.5 354.5t221.5 271.5t336 171t421 61q147 0 285 -22t229 -53t161.5 -62.5t102.5 -53.5l33 -22l-100 -455
q-10 11 -27.5 29.5t-76 71.5t-121 101.5t-157.5 107.5t-189.5 101.5t-212.5 71.5t-232 29q-137 0 -250 -58.5t-177 -160t-64 -223.5q0 -142 58 -269t159 -220.5t245.5 -150.5t309.5 -61q332 5 466 107q82 63 57 136q-23 69 -126 108q-100 38 -236 30v88z" />
    <glyph glyph-name="Imacron" unicode="&#x12a;" horiz-adv-x="978" 
d="M168 1724h643v-94h-643v94zM205 1434h567l-6 -9t-13.5 -32.5t-16.5 -62t-13 -101t-6 -144.5v-739q0 -79 5.5 -143.5t13.5 -100.5t16.5 -60.5t13.5 -33.5l6 -8h-567l6 9t13.5 32.5t16.5 61t13 99.5t6 144l6 741q0 79 -6.5 143.5t-15 100.5t-17.5 61t-15 34z" />
    <glyph glyph-name="imacron" unicode="&#x12b;" horiz-adv-x="931" 
d="M125 1395h643v-95h-643v95zM700 346q0 -84 7 -151t17 -101.5t20 -57.5t17 -30l7 -6h-514q4 5 10 25t16.5 143.5t10.5 320.5l2 195q0 69 -14.5 120.5t-38.5 78.5t-45.5 39.5t-44.5 17.5v10l550 135v-739z" />
    <glyph glyph-name="Iogonek" unicode="&#x12e;" 
d="M842 -193l28 -75q-5 -20 -23.5 -46t-51.5 -55.5t-88 -50t-121 -20.5q-125 0 -188.5 61t-63.5 139q0 82 63 146.5t148 93.5h-340l6 9t13.5 32.5t16.5 61t13 99.5t6 144l6 741q0 79 -6.5 143.5t-15 100.5t-17.5 61t-15 34l-7 8h567l-6 -9t-13.5 -32.5t-16.5 -62t-13 -101
t-6 -144.5v-739q0 -79 5.5 -143.5t13.5 -100.5t16.5 -60.5t13.5 -33.5l6 -8h-65h-2h-9q-28 -5 -72 -26t-86 -61t-42 -83q0 -64 34.5 -93.5t108.5 -29.5q57 0 111.5 26t91.5 74z" />
    <glyph glyph-name="iogonek" unicode="&#x12f;" horiz-adv-x="1013" 
d="M426 1251q-68 0 -103.5 25.5t-35.5 60.5q0 51 61 89t148 38q139 0 139 -86q0 -43 -60 -85t-149 -42zM821 -193l29 -75q-5 -19 -24 -45.5t-51.5 -56t-88 -50t-121.5 -20.5q-125 0 -188.5 61t-63.5 139q0 82 63 146.5t148 93.5h-270q4 5 10 25t16.5 143.5t10.5 320.5l2 195
q0 69 -14.5 120.5t-38.5 78.5t-45.5 39.5t-44.5 17.5v10l550 135v-739q0 -84 7 -151t17 -101.5t20 -57.5t17 -30l7 -6h-82h-2h-8q-19 -3 -50.5 -17t-66.5 -35.5t-59.5 -53t-24.5 -64.5q0 -64 34.5 -93.5t108.5 -29.5q57 0 111.5 26t91.5 74z" />
    <glyph glyph-name="Idotaccent" unicode="&#x130;" horiz-adv-x="976" 
d="M446 1630q-68 0 -103.5 25.5t-35.5 60.5q0 51 61 89t148 38q139 0 139 -86q0 -43 -60 -85t-149 -42zM205 1434h567l-6 -9t-13.5 -32.5t-16.5 -62t-13 -101t-6 -144.5v-739q0 -79 5.5 -143.5t13.5 -100.5t16.5 -60.5t13.5 -33.5l6 -8h-567l6 9t13.5 32.5t16.5 61t13 99.5
t6 144l6 741q0 79 -6.5 143.5t-15 100.5t-17.5 61t-15 34z" />
    <glyph glyph-name="dotlessi" unicode="&#x131;" horiz-adv-x="931" 
d="M254 0q4 5 10 25t16.5 143.5t10.5 320.5l2 195q0 69 -14.5 120.5t-38.5 78.5t-45.5 39.5t-44.5 17.5v10l550 135v-739q0 -84 7 -151t17 -101.5t20 -57.5t17 -30l7 -6h-514z" />
    <glyph glyph-name="Kcommaaccent" unicode="&#x136;" horiz-adv-x="2430" 
d="M1233 903q115 -111 202.5 -194.5t239 -220t262.5 -226t222.5 -160t169.5 -73.5v-33l-787 -2q0 20 -57 94.5t-149 171.5t-194.5 191.5t-208 164.5t-175.5 80v-329q0 -125 14 -216.5t28 -120.5l13 -30h-567l6 9t13.5 32.5t16.5 61t13 99.5t6 144l6 741q0 125 -15.5 211.5
t-30.5 111.5l-15 24h567l-6 -9t-13.5 -32.5t-16.5 -62t-13 -101t-6 -144.5v-303q172 83 448 246t466 284l190 122l340 4v-33q-60 0 -147 -32t-209 -99.5t-233.5 -135t-282.5 -174.5q-64 -41 -97 -61z" />
    <glyph glyph-name="kcommaaccent" unicode="&#x137;" 
d="M150 1407v14l536 187v-990l805 406h246v-4l-539 -264q43 -44 154 -160.5t177 -184t158 -158t163.5 -151t127.5 -94.5v-8h-620q-69 84 -128.5 153.5t-95.5 111t-87 95t-68 70.5l-75 75l-73 73l-145 -72v-160q0 -84 7 -151t16.5 -101.5t19 -57.5t16.5 -30l7 -6h-514
q2 2 4.5 7.5t9 37.5t11.5 79.5t9 144t4 220.5v584q0 98 -9.5 164t-28 100.5t-38.5 49t-50 20.5z" />
    <glyph glyph-name="Lacute" unicode="&#x139;" horiz-adv-x="1918" 
d="M975 1833l-758 -303l-12 16l588 484zM1839 500l39 -33l-90 -475l-1583 8l6 9t13.5 32.5t16.5 61t13 99.5t6 144l6 741q0 79 -6.5 143.5t-15 100.5t-17.5 61t-15 34l-7 8h567l-6 -9t-13.5 -32.5t-16.5 -62t-13 -101t-6 -144.5v-739q0 -144 20 -250q171 6 324 28.5
t305.5 67t275.5 123t197 185.5z" />
    <glyph glyph-name="lacute" unicode="&#x13a;" 
d="M930 1987l-758 -304l-12 17l588 483zM154 1421l536 187v-1262q0 -84 7 -151t16.5 -101.5t19 -57.5t16.5 -30l7 -6h-514q4 5 10.5 25t17.5 143.5t11 320.5v584q0 98 -9.5 164t-28.5 100.5t-39 49t-50 20.5v14z" />
    <glyph glyph-name="Lcommaaccent" unicode="&#x13b;" horiz-adv-x="1918" 
d="M1839 500l39 -33l-90 -475l-1583 8l6 9t13.5 32.5t16.5 61t13 99.5t6 144l6 741q0 79 -6.5 143.5t-15 100.5t-17.5 61t-15 34l-7 8h567l-6 -9t-13.5 -32.5t-16.5 -62t-13 -101t-6 -144.5v-739q0 -144 20 -250q171 6 324 28.5t305.5 67t275.5 123t197 185.5z" />
    <glyph glyph-name="lcommaaccent" unicode="&#x13c;" 
d="M154 1421l536 187v-1262q0 -84 7 -151t16.5 -101.5t19 -57.5t16.5 -30l7 -6h-514q4 5 10.5 25t17.5 143.5t11 320.5v584q0 98 -9.5 164t-28.5 100.5t-39 49t-50 20.5v14z" />
    <glyph glyph-name="Lcaron" unicode="&#x13d;" horiz-adv-x="1918" 
d="M938 1931l-457 -364l-452 362v21l452 -154l457 156v-21zM1839 500l39 -33l-90 -475l-1583 8l6 9t13.5 32.5t16.5 61t13 99.5t6 144l6 741q0 79 -6.5 143.5t-15 100.5t-17.5 61t-15 34l-7 8h567l-6 -9t-13.5 -32.5t-16.5 -62t-13 -101t-6 -144.5v-739q0 -144 20 -250
q171 6 324 28.5t305.5 67t275.5 123t197 185.5z" />
    <glyph glyph-name="lcaron" unicode="&#x13e;" 
d="M-2 2077v-21l453 -362l456 364v21l-456 -156zM154 1421l536 187v-1262q0 -84 7 -151t16.5 -101.5t19 -57.5t16.5 -30l7 -6h-514q4 5 10.5 25t17.5 143.5t11 320.5v584q0 98 -9.5 164t-28.5 100.5t-39 49t-50 20.5v14z" />
    <glyph glyph-name="Lslash" unicode="&#x141;" horiz-adv-x="1918" 
d="M1839 500l39 -33l-90 -475l-1583 8l6 9t13.5 32.5t16.5 61t13 99.5t6 144v41l-184 -205h-101l287 318l4 587q0 79 -6.5 143.5t-15 100.5t-17.5 61t-15 34l-7 8h567l-6 -9t-13.5 -32.5t-16.5 -62t-13 -101t-6 -144.5v-79l235 262h99l-334 -371v-551q0 -144 20 -250
q171 6 324 28.5t305.5 67t275.5 123t197 185.5z" />
    <glyph glyph-name="lslash" unicode="&#x142;" 
d="M690 346q0 -84 7 -151t16.5 -101.5t19 -57.5t16.5 -30l7 -6h-514q2 2 4.5 7t8.5 33.5t11.5 72t9.5 130.5t5 199l-224 -247h-100l324 360v518q0 98 -9.5 164t-28.5 100.5t-39 49t-50 20.5v14l536 187v-598l244 270h98l-342 -381v-553z" />
    <glyph glyph-name="Nacute" unicode="&#x143;" horiz-adv-x="2275" 
d="M1772 1792l-758 -303l-13 16l588 484zM2165 104l110 -104h-69h-273h-317q-179 174 -591 584.5t-579 572.5q-2 -23 -2 -72v-739q0 -79 6.5 -143.5t15.5 -100.5t18 -60.5t16 -33.5l6 -8h-273q3 3 7 9t14.5 32.5t19 61t15 99.5t6.5 144l6 741q0 120 -16 222q-92 85 -142 125
h635l1215 -1164q2 23 2 76l6 741q0 79 -6.5 143.5t-15.5 100.5t-18 61t-15 34l-7 8h267q-3 -3 -7 -9t-14.5 -32.5t-19 -62t-15 -101t-6.5 -144.5v-739q0 -131 21 -242z" />
    <glyph glyph-name="nacute" unicode="&#x144;" horiz-adv-x="2228" 
d="M1620 1503l-758 -303l-12 17l588 483zM1591 0q17 73 17 449v34q0 62 -13.5 112.5t-47.5 96t-87.5 76t-137 48.5t-192.5 18q-278 0 -483 -146v-342q0 -84 5 -151t11.5 -101.5t13.5 -57.5t12 -30l5 -6h-473q17 46 17 489l2 236q0 58 -5 103t-11.5 69.5t-15 41t-13.5 21
t-9 5.5l461 120v-309q104 87 254.5 165t254 114.5t130.5 36.5q731 6 731 -490v-256q4 -134 15.5 -220.5t21.5 -105.5l10 -20h-473zM184 965h2h-2z" />
    <glyph glyph-name="Ncommaaccent" unicode="&#x145;" horiz-adv-x="2418" 
d="M2165 104l110 -104h-69h-273h-317q-179 174 -591 584.5t-579 572.5q-2 -23 -2 -72v-739q0 -79 6.5 -143.5t15.5 -100.5t18 -60.5t16 -33.5l6 -8h-273q3 3 7 9t14.5 32.5t19 61t15 99.5t6.5 144l6 741q0 120 -16 222q-92 85 -142 125h635l1215 -1164q2 23 2 76l6 741
q0 79 -6.5 143.5t-15.5 100.5t-18 61t-15 34l-7 8h267q-3 -3 -7 -9t-14.5 -32.5t-19 -62t-15 -101t-6.5 -144.5v-739q0 -131 21 -242z" />
    <glyph glyph-name="ncommaaccent" unicode="&#x146;" horiz-adv-x="2228" 
d="M1591 0q17 73 17 449v34q0 62 -13.5 112.5t-47.5 96t-87.5 76t-137 48.5t-192.5 18q-278 0 -483 -146v-342q0 -84 5 -151t11.5 -101.5t13.5 -57.5t12 -30l5 -6h-473q17 46 17 489l2 236q0 58 -5 103t-11.5 69.5t-15 41t-13.5 21t-9 5.5l461 120v-309q104 87 254.5 165
t254 114.5t130.5 36.5q731 6 731 -490v-256q4 -134 15.5 -220.5t21.5 -105.5l10 -20h-473zM184 965h2h-2z" />
    <glyph glyph-name="Ncaron" unicode="&#x147;" horiz-adv-x="2418" 
d="M1700 1872l-457 -365l-452 363v20l452 -153l457 155v-20zM2165 104l110 -104h-69h-273h-317q-179 174 -591 584.5t-579 572.5q-2 -23 -2 -72v-739q0 -79 6.5 -143.5t15.5 -100.5t18 -60.5t16 -33.5l6 -8h-273q3 3 7 9t14.5 32.5t19 61t15 99.5t6.5 144l6 741
q0 120 -16 222q-92 85 -142 125h635l1215 -1164q2 23 2 76l6 741q0 79 -6.5 143.5t-15.5 100.5t-18 61t-15 34l-7 8h267q-3 -3 -7 -9t-14.5 -32.5t-19 -62t-15 -101t-6.5 -144.5v-739q0 -131 21 -242z" />
    <glyph glyph-name="ncaron" unicode="&#x148;" horiz-adv-x="2228" 
d="M1608 1618l-457 -365l-453 363v20l453 -153l457 155v-20zM1591 0q17 73 17 449v34q0 62 -13.5 112.5t-47.5 96t-87.5 76t-137 48.5t-192.5 18q-278 0 -483 -146v-342q0 -84 5 -151t11.5 -101.5t13.5 -57.5t12 -30l5 -6h-473q17 46 17 489l2 236q0 58 -5 103t-11.5 69.5
t-15 41t-13.5 21t-9 5.5l461 120v-309q104 87 254.5 165t254 114.5t130.5 36.5q731 6 731 -490v-256q4 -134 15.5 -220.5t21.5 -105.5l10 -20h-473zM184 965h2h-2z" />
    <glyph glyph-name="Omacron" unicode="&#x14c;" horiz-adv-x="2600" 
d="M954 1817h643v-95h-643v95zM1266 -55q-308 0 -559.5 95.5t-397 267.5t-145.5 386q0 128 47.5 243.5t131 206t197.5 163.5t248 121.5t281.5 74t298.5 25.5q309 0 551.5 -87.5t380 -251.5t137.5 -378q0 -153 -63.5 -290.5t-175.5 -241t-259.5 -180t-320 -115.5t-352.5 -39z
M1495 119q105 0 191.5 27.5t144.5 74t98 110t58 133t18 144.5q0 114 -37 220.5t-100.5 191t-149.5 154t-183.5 116t-202.5 71.5t-206 25q-137 0 -238 -39t-159 -108t-85.5 -154.5t-27.5 -187.5q0 -61 14.5 -129.5t47 -144.5t80.5 -147.5t120 -136.5t159.5 -113.5
t205.5 -77.5t252 -29z" />
    <glyph glyph-name="omacron" unicode="&#x14d;" horiz-adv-x="2222" 
d="M756 1395h643v-95h-643v95zM981 -41q-251 0 -447.5 63t-303.5 173.5t-107 248.5q0 94 51 188t150.5 177t233 147.5t311 102t372.5 37.5q391 0 624.5 -136.5t233.5 -349.5q0 -94 -51 -188t-150.5 -176.5t-233 -147t-311 -102t-372.5 -37.5zM1264 123q77 0 149.5 18.5
t135 54t100 96.5t37.5 138q1 90 -41 171t-114 140.5t-165.5 103t-198 65.5t-209.5 22q-77 0 -149.5 -18t-134.5 -53.5t-99.5 -96t-37.5 -137.5q0 -86 49.5 -174t139 -162t231 -121t307.5 -47z" />
    <glyph glyph-name="Ohungarumlaut" unicode="&#x150;" horiz-adv-x="2621" 
d="M1266 -55q-308 0 -559.5 95.5t-397 267.5t-145.5 386q0 128 47.5 243.5t131 206t197.5 163.5t248 121.5t281.5 74t298.5 25.5q309 0 551.5 -87.5t380 -251.5t137.5 -378q0 -153 -63.5 -290.5t-175.5 -241t-259.5 -180t-320 -115.5t-352.5 -39zM1495 119q105 0 191.5 27.5
t144.5 74t98 110t58 133t18 144.5q0 114 -37 220.5t-100.5 191t-149.5 154t-183.5 116t-202.5 71.5t-206 25q-137 0 -238 -39t-159 -108t-85.5 -154.5t-27.5 -187.5q0 -61 14.5 -129.5t47 -144.5t80.5 -147.5t120 -136.5t159.5 -113.5t205.5 -77.5t252 -29z" />
    <glyph glyph-name="ohungarumlaut" unicode="&#x151;" horiz-adv-x="2222" 
d="M981 -41q-251 0 -447.5 63t-303.5 173.5t-107 248.5q0 94 51 188t150.5 177t233 147.5t311 102t372.5 37.5q391 0 624.5 -136.5t233.5 -349.5q0 -94 -51 -188t-150.5 -176.5t-233 -147t-311 -102t-372.5 -37.5zM1264 123q77 0 149.5 18.5t135 54t100 96.5t37.5 138
q1 90 -41 171t-114 140.5t-165.5 103t-198 65.5t-209.5 22q-77 0 -149.5 -18t-134.5 -53.5t-99.5 -96t-37.5 -137.5q0 -86 49.5 -174t139 -162t231 -121t307.5 -47z" />
    <glyph glyph-name="OE" unicode="&#x152;" horiz-adv-x="4083" 
d="M3803 526l76 -8l-90 -526l-1880 8q16 22 30 98q-308 -153 -673 -153q-308 0 -559.5 95.5t-397 267.5t-145.5 386q0 128 47.5 243.5t131 206t197.5 163.5t248 121.5t281.5 74t298.5 25.5q323 0 578 -98q-7 36 -16.5 62.5t-15.5 35.5l-5 8h1798l90 -520l-76 -8
q-69 113 -138.5 188.5t-150.5 124.5t-176.5 74t-215.5 36t-269 11.5t-336 -0.5q-20 -106 -20 -254v-342h1218v-94h-1218v-406q0 -146 20 -252q66 0 188 -1q169 -2 303 -1.5t243 12.5t196.5 37t163 74.5t141.5 124.5t133 186zM1495 119q176 0 292 77t171 203l4 467
q-46 119 -137 219t-204.5 165t-241.5 100.5t-253 35.5q-137 0 -238 -39t-159 -108t-85.5 -154.5t-27.5 -187.5q0 -61 14.5 -129.5t47 -144.5t80.5 -147.5t120 -136.5t159.5 -113.5t205.5 -77.5t252 -29z" />
    <glyph glyph-name="oe" unicode="&#x153;" horiz-adv-x="3586" 
d="M2677 238q187 0 411.5 56t345.5 150l9 -10l-150 -235q-142 -104 -341.5 -166.5t-403.5 -61.5q-226 0 -408.5 62t-286.5 180q-155 -112 -376 -178t-486 -66q-251 0 -447.5 63t-303.5 174t-107 249q0 94 51 188t150.5 176.5t233 147t311 102t372.5 37.5q228 0 410.5 -56.5
t292.5 -168.5q136 105 330.5 166t408.5 61q167 0 303.5 -32.5t242.5 -99.5t165 -179.5t59 -261.5h-1339q58 -139 214.5 -218t338.5 -79zM2462 983q-159 0 -263 -82.5t-104 -220.5q0 -22 4 -62l938 50q-25 89 -83.5 152.5t-139.5 98t-167 49.5t-185 15zM1716 440
q1 90 -43 171t-119 140.5t-171 103t-202.5 65.5t-211.5 22q-77 0 -149.5 -18t-135 -53.5t-100 -96t-37.5 -137.5q0 -86 49.5 -174t139 -162t231 -121t307.5 -47q77 0 152.5 18.5t141.5 54t107 96.5t41 138z" />
    <glyph glyph-name="Racute" unicode="&#x154;" horiz-adv-x="2473" 
d="M1485 1849l-758 -303l-12 17l588 483zM1542 594q32 -27 107 -91t114 -97.5t108.5 -90t112 -88.5t102 -73t101 -63t86 -39t78.5 -19v-33h-747q0 10 -12.5 31t-24.5 35q-305 349 -498 462q-207 119 -338 125v-307q0 -79 5.5 -143.5t13.5 -100.5t16.5 -60.5t13.5 -33.5l6 -8
h-567q2 3 5.5 9t13 32.5t16.5 61t13 99.5t7 144l7 741q1 90 -7 161t-19 108t-22.5 61t-19.5 31l-8 6h928q239 0 413.5 -18t284.5 -50.5t175 -84t89.5 -110t24.5 -138.5q0 -163 -161 -288.5t-417 -170.5zM731 1065v-289q97 -56 207.5 -88.5t267.5 -32.5q85 0 164.5 19.5
t144.5 56t104.5 95.5t39.5 132q0 104 -49.5 182.5t-137.5 125.5t-199 70.5t-243 23.5q-160 0 -282 -21q-17 -157 -17 -274z" />
    <glyph glyph-name="racute" unicode="&#x155;" horiz-adv-x="1857" 
d="M1663 1503l-758 -303l-12 17l588 483zM1276 1073q305 27 500 -49l-127 -412l-17 6q-210 140 -471 141.5t-469 -132.5v-375q0 -30 5 -67t10 -60t16.5 -69l15.5 -62h-497q3 0 12 22t19 81t10 134v431q0 62 -10 110t-24.5 72t-29.5 39t-25 19l-10 3l508 178v-356
q162 133 333 236t251 110z" />
    <glyph glyph-name="Rcommaaccent" unicode="&#x156;" horiz-adv-x="2473" 
d="M1542 594q32 -27 107 -91t114 -97.5t108.5 -90t112 -88.5t102 -73t101 -63t86 -39t78.5 -19v-33h-747q0 10 -12.5 31t-24.5 35q-305 349 -498 462q-207 119 -338 125v-307q0 -79 5.5 -143.5t13.5 -100.5t16.5 -60.5t13.5 -33.5l6 -8h-567q2 3 5.5 9t13 32.5t16.5 61
t13 99.5t7 144l7 741q1 90 -7 161t-19 108t-22.5 61t-19.5 31l-8 6h928q239 0 413.5 -18t284.5 -50.5t175 -84t89.5 -110t24.5 -138.5q0 -163 -161 -288.5t-417 -170.5zM731 1065v-289q97 -56 207.5 -88.5t267.5 -32.5q85 0 164.5 19.5t144.5 56t104.5 95.5t39.5 132
q0 104 -49.5 182.5t-137.5 125.5t-199 70.5t-243 23.5q-160 0 -282 -21q-17 -157 -17 -274z" />
    <glyph glyph-name="rcommaaccent" unicode="&#x157;" 
d="M1276 1073q305 27 500 -49l-127 -412l-17 6q-210 140 -471 141.5t-469 -132.5v-375q0 -30 5 -67t10 -60t16.5 -69l15.5 -62h-497q3 0 12 22t19 81t10 134v431q0 62 -10 110t-24.5 72t-29.5 39t-25 19l-10 3l508 178v-356q162 133 333 236t251 110z" />
    <glyph glyph-name="Rcaron" unicode="&#x158;" horiz-adv-x="2473" 
d="M1587 1952l-457 -365l-452 363v20l452 -153l457 155v-20zM1542 594q32 -27 107 -91t114 -97.5t108.5 -90t112 -88.5t102 -73t101 -63t86 -39t78.5 -19v-33h-747q0 10 -12.5 31t-24.5 35q-305 349 -498 462q-207 119 -338 125v-307q0 -79 5.5 -143.5t13.5 -100.5
t16.5 -60.5t13.5 -33.5l6 -8h-567q2 3 5.5 9t13 32.5t16.5 61t13 99.5t7 144l7 741q1 90 -7 161t-19 108t-22.5 61t-19.5 31l-8 6h928q239 0 413.5 -18t284.5 -50.5t175 -84t89.5 -110t24.5 -138.5q0 -163 -161 -288.5t-417 -170.5zM731 1065v-289q97 -56 207.5 -88.5
t267.5 -32.5q85 0 164.5 19.5t144.5 56t104.5 95.5t39.5 132q0 104 -49.5 182.5t-137.5 125.5t-199 70.5t-243 23.5q-160 0 -282 -21q-17 -157 -17 -274z" />
    <glyph glyph-name="rcaron" unicode="&#x159;" horiz-adv-x="1857" 
d="M1421 1556l-456 -364l-453 362v21l453 -154l456 156v-21zM1276 1073q305 27 500 -49l-127 -412l-17 6q-210 140 -471 141.5t-469 -132.5v-375q0 -30 5 -67t10 -60t16.5 -69l15.5 -62h-497q3 0 12 22t19 81t10 134v431q0 62 -10 110t-24.5 72t-29.5 39t-25 19l-10 3
l508 178v-356q162 133 333 236t251 110z" />
    <glyph glyph-name="Sacute" unicode="&#x15a;" horiz-adv-x="2437" 
d="M1704 1892l-758 -303l-12 17l588 483zM301 1051q0 67 33.5 132.5t103.5 125.5t167.5 106t236.5 73.5t301 27.5q279 0 521.5 -49t485.5 -152l-114 -402q-96 126 -213.5 221.5t-220.5 147.5t-212.5 84t-181.5 41.5t-135 9.5q-88 -3 -156.5 -18.5t-109.5 -37t-67.5 -49.5
t-36 -53.5t-9.5 -52.5q0 -106 160 -174q107 -46 389 -105h1h1h1l1 -1h1h1l1 -1h1h1h1h1l1 -1h1h1h1h1l1 -1h1h1h1h1l1 -1h1h1h1l1 -1h1h1h1h1l1 -1h1h1h1h1l1 -1h1h1h1h1l2 -1h1q49 -11 147 -32q94 -20 140.5 -30t129.5 -30t126.5 -34.5t109.5 -38t100.5 -45.5t77.5 -53
t64 -64t36 -75t15 -90q0 -91 -56.5 -170t-151.5 -135t-217.5 -96.5t-255.5 -60t-265 -19.5q-295 0 -576.5 67.5t-504.5 198.5l131 420q72 -138 192.5 -249t263.5 -181t298.5 -107t306.5 -37q183 0 296 57t113 138q0 28 -8 51t-29 43.5t-44.5 36.5t-67.5 33t-85 30t-109.5 30
t-128 30t-152.5 33q-97 22 -161 37t-144 35t-132 37t-113 38.5t-100 42.5t-80.5 47.5t-66 55t-45.5 62.5t-30 73t-9 84z" />
    <glyph glyph-name="sacute" unicode="&#x15b;" horiz-adv-x="1875" 
d="M1409 1503l-758 -303l-12 17l588 483zM1718 948l-186 -291h-8q-46 80 -171.5 165t-290.5 143.5t-304 58.5q-101 0 -147 -27t-46 -84q0 -49 104.5 -95t329.5 -99l131 -31q250 -58 388 -117t186.5 -118t48.5 -142q0 -72 -55.5 -133t-141.5 -100.5t-194.5 -67t-210.5 -39.5
t-193 -12q-220 0 -452 49.5t-383 130.5l113 396h6q151 -210 372 -341t441 -131q117 0 198.5 39.5t81.5 110.5q0 54 -26 86.5t-101 62.5t-229 66l-141 33q-124 29 -215 55t-169.5 57t-127.5 64.5t-76 74.5t-27 89q0 131 194 213t539 82q189 0 410 -38t352 -110z" />
    <glyph glyph-name="Scedilla" unicode="&#x15e;" horiz-adv-x="2437" 
d="M1286 -55h-20l-66 -78q142 0 227.5 -18.5t117.5 -49t32 -78.5q0 -61 -58 -112.5t-148.5 -83t-174 -50.5t-160.5 -28l-2 39q122 22 197.5 63t75.5 101q0 53 -74.5 71.5t-214.5 18.5l156 207q-268 12 -518 78.5t-451 185.5l131 420q72 -138 192.5 -249t263.5 -181
t298.5 -107t306.5 -37q183 0 296 57t113 138q0 28 -8 51t-29 43.5t-44.5 36.5t-67.5 33t-85 30t-109.5 30t-128 30t-152.5 33q-97 22 -161 37t-144 35t-132 37t-113 38.5t-100 42.5t-80.5 47.5t-66 55t-45.5 62.5t-30 73t-9 84q0 67 33.5 132.5t103.5 125.5t167.5 106
t236.5 73.5t301 27.5q279 0 521.5 -49t485.5 -152l-114 -402q-96 126 -213.5 221.5t-220.5 147.5t-212.5 84t-181.5 41.5t-135 9.5q-88 -3 -156.5 -18.5t-109.5 -37t-67.5 -49.5t-36 -53.5t-9.5 -52.5q0 -106 160 -174q107 -46 389 -105h1h1h1l1 -1h1h1l1 -1h1h1h1h1l1 -1h1
h1h1h1l1 -1h1h1h1h1l1 -1h1h1h1l1 -1h1h1h1h1l1 -1h1h1h1h1l1 -1h1h1h1h1l2 -1h1q49 -11 147 -32q94 -20 140.5 -30t129.5 -30t126.5 -34.5t109.5 -38t100.5 -45.5t77.5 -53t64 -64t36 -75t15 -90q0 -91 -56.5 -170t-151.5 -135t-217.5 -96.5t-255.5 -60t-265 -19.5z" />
    <glyph glyph-name="scedilla" unicode="&#x15f;" horiz-adv-x="1875" 
d="M1753 311q0 -87 -77 -156t-197.5 -109t-246 -62t-243.5 -25l-78 -92q142 0 227.5 -18.5t117.5 -49t32 -78.5q0 -50 -40 -93.5t-99 -72.5t-135.5 -52.5t-141 -36t-124.5 -19.5l-3 39q122 22 197.5 63t75.5 101q0 53 -74.5 71.5t-214.5 18.5l166 221q-208 6 -420 54.5
t-352 123.5l113 396h6q151 -210 372 -341t441 -131q117 0 198.5 39.5t81.5 110.5q0 54 -26 86.5t-101 62.5t-229 66l-141 33q-124 29 -215 55t-169.5 57t-127.5 64.5t-76 74.5t-27 89q0 131 194 213t539 82q189 0 410 -38t352 -110l-186 -291h-8q-46 80 -171.5 165
t-290.5 143.5t-304 58.5q-101 0 -147 -27t-46 -84q0 -49 104.5 -95t329.5 -99l131 -31q250 -58 388 -117t186.5 -118t48.5 -142z" />
    <glyph glyph-name="Scaron" unicode="&#x160;" horiz-adv-x="2437" 
d="M786 2003v-21l453 -362l457 365v20l-457 -156zM301 1051q0 67 33.5 132.5t103.5 125.5t167.5 106t236.5 73.5t301 27.5q279 0 521.5 -49t485.5 -152l-114 -402q-96 126 -213.5 221.5t-220.5 147.5t-212.5 84t-181.5 41.5t-135 9.5q-88 -3 -156.5 -18.5t-109.5 -37
t-67.5 -49.5t-36 -53.5t-9.5 -52.5q0 -106 160 -174q107 -46 389 -105h1h1h1l1 -1h1h1l1 -1h1h1h1h1l1 -1h1h1h1h1l1 -1h1h1h1h1l1 -1h1h1h1l1 -1h1h1h1h1l1 -1h1h1h1h1l1 -1h1h1h1h1l2 -1h1q49 -11 147 -32q94 -20 140.5 -30t129.5 -30t126.5 -34.5t109.5 -38t100.5 -45.5
t77.5 -53t64 -64t36 -75t15 -90q0 -91 -56.5 -170t-151.5 -135t-217.5 -96.5t-255.5 -60t-265 -19.5q-295 0 -576.5 67.5t-504.5 198.5l131 420q72 -138 192.5 -249t263.5 -181t298.5 -107t306.5 -37q183 0 296 57t113 138q0 28 -8 51t-29 43.5t-44.5 36.5t-67.5 33t-85 30
t-109.5 30t-128 30t-152.5 33q-97 22 -161 37t-144 35t-132 37t-113 38.5t-100 42.5t-80.5 47.5t-66 55t-45.5 62.5t-30 73t-9 84z" />
    <glyph glyph-name="scaron" unicode="&#x161;" horiz-adv-x="1875" 
d="M492 1575v-21l452 -362l457 364v21l-457 -156zM1718 948l-186 -291h-8q-46 80 -171.5 165t-290.5 143.5t-304 58.5q-101 0 -147 -27t-46 -84q0 -49 104.5 -95t329.5 -99l131 -31q250 -58 388 -117t186.5 -118t48.5 -142q0 -72 -55.5 -133t-141.5 -100.5t-194.5 -67
t-210.5 -39.5t-193 -12q-220 0 -452 49.5t-383 130.5l113 396h6q151 -210 372 -341t441 -131q117 0 198.5 39.5t81.5 110.5q0 54 -26 86.5t-101 62.5t-229 66l-141 33q-124 29 -215 55t-169.5 57t-127.5 64.5t-76 74.5t-27 89q0 131 194 213t539 82q189 0 410 -38t352 -110z
" />
    <glyph glyph-name="uni0162" unicode="&#x162;" horiz-adv-x="2338" 
d="M2167 1440l90 -527l-35 -8q-79 128 -155 209t-169.5 129.5t-194.5 69t-247 26.5q-20 -106 -20 -254v-739q0 -125 14 -211.5t28 -110.5l13 -24h-221l-86 -102q142 0 227.5 -18.5t117.5 -49t32 -78.5q0 -61 -58 -112.5t-148.5 -83t-174 -50.5t-160.5 -28l-2 39
q272 50 272 164q0 53 -74.5 71.5t-214.5 18.5l173 229h-244q2 3 5.5 9t11.5 32.5t14.5 61t12 99.5t5.5 144l6 741q0 146 -20 252q-147 -6 -248 -26.5t-194.5 -69t-169 -129.5t-154.5 -209l-35 8l90 527l956 -6z" />
    <glyph glyph-name="uni0163" unicode="&#x163;" horiz-adv-x="1708" 
d="M1008 -41q-49 0 -72 2l-80 -94q142 0 227.5 -18.5t117.5 -49t32 -78.5q0 -61 -58 -112.5t-148.5 -83t-174 -50.5t-160.5 -28l-2 39q122 22 197.5 63t75.5 101q0 53 -74.5 71.5t-214.5 18.5l172 229q-253 31 -382.5 169.5t-129.5 383.5v426l-391 21v47l32 2
q209 20 429 118t315 214h24v-273l824 62l-37 -256l-787 43v-324q0 -189 107.5 -280t355.5 -91q107 0 222 46t190 145l4 -2l-111 -324q-185 -137 -503 -137z" />
    <glyph glyph-name="Tcaron" unicode="&#x164;" horiz-adv-x="2338" 
d="M1663 1905l-457 -365l-452 363v20l452 -154l457 156v-20zM2167 1440l90 -527l-35 -8q-79 128 -155 209t-169.5 129.5t-194.5 69t-247 26.5q-20 -106 -20 -254v-739q0 -125 14 -211.5t28 -110.5l13 -24h-561q2 3 5.5 9t11.5 32.5t14.5 61t12 99.5t5.5 144l6 741
q0 146 -20 252q-147 -6 -248 -26.5t-194.5 -69t-169 -129.5t-154.5 -209l-35 8l90 527l956 -6z" />
    <glyph glyph-name="tcaron" unicode="&#x165;" 
d="M1378 1800l-456 -364l-453 362v21l453 -154l456 156v-21zM1618 422l4 -2l-111 -324q-185 -137 -503 -137q-332 0 -503 141t-171 422v426l-391 21v47l32 2q209 20 429 118t315 214h24v-273l824 62l-37 -256l-787 43v-324q0 -189 107.5 -280t355.5 -91q107 0 222 46
t190 145z" />
    <glyph glyph-name="Umacron" unicode="&#x16a;" horiz-adv-x="2207" 
d="M1630 1704v-94h-643v94h643zM2032 1192v-107l2 -274q0 -90 -12 -173.5t-40.5 -169t-72.5 -158t-112 -136.5t-154.5 -109t-204.5 -70.5t-258 -25.5q-483 0 -711 194t-219 568l8 354q3 120 -11 207t-26 114.5t-16 27.5h577q-2 -3 -5.5 -10t-13 -35.5t-16.5 -64t-12.5 -99.5
t-5.5 -140l2 -415q0 -566 510 -566q140 0 250 37t183 102t121 158.5t69 200.5t22 234v84l2 167q0 79 -6 143.5t-14 100.5t-16.5 61t-14.5 34l-6 8h254q-5 -6 -12 -19t-21.5 -75t-19.5 -148z" />
    <glyph glyph-name="umacron" unicode="&#x16b;" horiz-adv-x="2211" 
d="M1407 1395v-95h-643v95h643zM1978 330q0 -83 10.5 -139.5t20 -74.5t19.5 -24v-4l-457 -119v310q-104 -87 -252 -165t-249 -114.5t-128 -36.5q-731 -6 -731 490v225q-4 134 -15.5 220.5t-21.5 105.5l-10 20h473q-16 -73 -16 -449v-34q0 -78 22.5 -134t75.5 -99.5
t147.5 -65t231.5 -21.5q273 0 473 141v316q0 84 -5 151t-11.5 101.5t-13.5 57.5t-12 30l-5 6h473q-17 -46 -17 -489z" />
    <glyph glyph-name="Uring" unicode="&#x16e;" horiz-adv-x="2207" 
d="M1311 1542q-128 0 -215.5 50.5t-87.5 127.5q0 78 87.5 131.5t215.5 53.5q130 0 216.5 -53.5t86.5 -131.5q0 -77 -87.5 -127.5t-215.5 -50.5zM1284 1864q-57 0 -95 -33t-38 -90q0 -59 50.5 -108.5t135.5 -49.5q57 0 95 33t38 90q0 59 -50.5 108.5t-135.5 49.5zM2032 1192
v-107l2 -274q0 -90 -12 -173.5t-40.5 -169t-72.5 -158t-112 -136.5t-154.5 -109t-204.5 -70.5t-258 -25.5q-483 0 -711 194t-219 568l8 354q3 120 -11 207t-26 114.5t-16 27.5h577q-2 -3 -5.5 -10t-13 -35.5t-16.5 -64t-12.5 -99.5t-5.5 -140l2 -415q0 -566 510 -566
q140 0 250 37t183 102t121 158.5t69 200.5t22 234v84l2 167q0 79 -6 143.5t-14 100.5t-16.5 61t-14.5 34l-6 8h254q-5 -6 -12 -19t-21.5 -75t-19.5 -148z" />
    <glyph glyph-name="uring" unicode="&#x16f;" horiz-adv-x="2211" 
d="M1065 1214q-127 0 -215 51t-88 128q0 78 87.5 131t215.5 53q130 0 216.5 -53t86.5 -131q0 -77 -88 -128t-215 -51zM1038 1536q-57 0 -95 -33t-38 -90q0 -58 51 -108t136 -50q57 0 95 33t38 90q0 58 -51 108t-136 50zM1978 330q0 -83 10.5 -139.5t20 -74.5t19.5 -24v-4
l-457 -119v310q-104 -87 -252 -165t-249 -114.5t-128 -36.5q-731 -6 -731 490v225q-4 134 -15.5 220.5t-21.5 105.5l-10 20h473q-16 -73 -16 -449v-34q0 -78 22.5 -134t75.5 -99.5t147.5 -65t231.5 -21.5q273 0 473 141v316q0 84 -5 151t-11.5 101.5t-13.5 57.5t-12 30l-5 6
h473q-17 -46 -17 -489z" />
    <glyph glyph-name="Uhungarumlaut" unicode="&#x170;" horiz-adv-x="2207" 
d="M2032 1192v-107l2 -274q0 -90 -12 -173.5t-40.5 -169t-72.5 -158t-112 -136.5t-154.5 -109t-204.5 -70.5t-258 -25.5q-483 0 -711 194t-219 568l8 354q3 120 -11 207t-26 114.5t-16 27.5h577q-2 -3 -5.5 -10t-13 -35.5t-16.5 -64t-12.5 -99.5t-5.5 -140l2 -415
q0 -566 510 -566q140 0 250 37t183 102t121 158.5t69 200.5t22 234v84l2 167q0 79 -6 143.5t-14 100.5t-16.5 61t-14.5 34l-6 8h254q-5 -6 -12 -19t-21.5 -75t-19.5 -148z" />
    <glyph glyph-name="uhungarumlaut" unicode="&#x171;" horiz-adv-x="2211" 
d="M1978 330q0 -83 10.5 -139.5t20 -74.5t19.5 -24v-4l-457 -119v310q-104 -87 -252 -165t-249 -114.5t-128 -36.5q-731 -6 -731 490v225q-4 134 -15.5 220.5t-21.5 105.5l-10 20h473q-16 -73 -16 -449v-34q0 -78 22.5 -134t75.5 -99.5t147.5 -65t231.5 -21.5q273 0 473 141
v316q0 84 -5 151t-11.5 101.5t-13.5 57.5t-12 30l-5 6h473q-17 -46 -17 -489z" />
    <glyph glyph-name="Uogonek" unicode="&#x172;" horiz-adv-x="2207" 
d="M2032 1192v-107l2 -274q0 -125 -22.5 -237t-80.5 -222.5t-147 -191t-232.5 -133t-326.5 -58.5q-36 -15 -68.5 -35t-60 -53t-27.5 -67q0 -64 34.5 -93.5t108.5 -29.5q57 0 111.5 26t91.5 74l29 -76q-5 -19 -24 -45.5t-51.5 -56t-88 -50t-121.5 -20.5q-125 0 -188.5 61.5
t-63.5 139.5q0 73 51.5 133t126.5 94q-434 18 -639 211.5t-196 548.5l8 354q3 120 -11 207t-26 114.5t-16 27.5h577q-2 -3 -5.5 -10t-13 -35.5t-16.5 -64t-12.5 -99.5t-5.5 -140l2 -415q0 -566 510 -566q140 0 250 37t183 102t121 158.5t69 200.5t22 234v84l2 167
q0 79 -6 143.5t-14 100.5t-16.5 61t-14.5 34l-6 8h254q-5 -6 -12 -19t-21.5 -75t-19.5 -148zM1278 -16h2h-2z" />
    <glyph glyph-name="uogonek" unicode="&#x173;" horiz-adv-x="2211" 
d="M1978 330q0 -83 10.5 -139.5t20 -74.5t19.5 -24v-4l-457 -119v310q-90 -76 -217.5 -146t-219 -107t-155.5 -55q-123 -65 -123 -141q0 -64 34.5 -93.5t108.5 -29.5q57 0 111.5 26t91.5 74l29 -75q-5 -19 -24 -45.5t-51.5 -56t-88 -50t-121.5 -20.5q-125 0 -188.5 61
t-63.5 139q0 63 38 116t99 89q-318 17 -469 140.5t-151 347.5v225q-4 134 -15.5 220.5t-21.5 105.5l-10 20h473q-16 -73 -16 -449v-34q0 -78 22.5 -134t75.5 -99.5t147.5 -65t231.5 -21.5q273 0 473 141v316q0 84 -5 151t-11.5 101.5t-13.5 57.5t-12 30l-5 6h473
q-17 -46 -17 -489zM1065 0h2h-2z" />
    <glyph glyph-name="Wcircumflex" unicode="&#x174;" horiz-adv-x="3350" 
d="M2187 1581l-456 156l-453 -154v21l453 362l456 -364v-21zM3019 1434h311q-70 -93 -145 -220l-639 -1214h-363l-495 922q-4 6 -11 20l-495 -942h-363l-495 922q-12 22 -64.5 122t-80 150t-74 123t-85.5 117h639q-2 0 7 -42t39.5 -131t76.5 -184l389 -782l418 813
q-118 227 -205 326h639q-2 0 7 -42t39.5 -131t76.5 -184l389 -782l347 676q45 103 75.5 188.5t42 134t17 82.5t3.5 46z" />
    <glyph glyph-name="wcircumflex" unicode="&#x175;" horiz-adv-x="2648" 
d="M1827 1192l-457 156l-452 -154v20l452 363l457 -365v-20zM2454 1024h299l-719 -1026h-181l-507 643l-451 -643h-180l-811 1026h633q7 -56 44 -131t128 -234l223 -387l10 -16l258 403q32 46 55 97l-213 268h633q7 -59 44 -134.5t128 -234.5l224 -387l10 -16l258 403
q27 40 48 81.5t32 73t18.5 69.5t9.5 57.5t4.5 51t2.5 36.5z" />
    <glyph glyph-name="Ycircumflex" unicode="&#x176;" horiz-adv-x="2144" 
d="M786 1550l453 154l457 -156v21l-457 364l-453 -362v-21zM0 1434h680q16 -76 84 -183.5t182 -226.5l309 -293l310 311q129 129 187 217.5t87 174.5h305q-79 -60 -163 -137.5t-136.5 -131.5t-138.5 -147q-303 -318 -350 -365v-307q0 -125 14 -211.5t28 -110.5l13 -24h-569
l6 9t13.5 32.5t17 61t13.5 99.5t7 144l2 307l-391 355q-116 105 -165.5 149t-151.5 128t-193 149z" />
    <glyph glyph-name="ycircumflex" unicode="&#x177;" horiz-adv-x="1894" 
d="M1511 1229l-456 155l-453 -153v20l453 363l456 -365v-20zM1894 1024l-704 -899q-135 -161 -186 -215l-5 -4q-139 -146 -274 -231t-276 -85q-54 0 -106 11t-87.5 27t-63.5 32.5t-42 27.5l-13 11l121 285q33 -22 61.5 -36t94.5 -29t147 -15q189 0 342 108l-903 1012l612 -4
q18 -152 193 -361l338 -403l284 403q33 47 57 97.5t35.5 81.5t20.5 79t9.5 57.5t4.5 49.5h340z" />
    <glyph glyph-name="Ydieresis" unicode="&#x178;" horiz-adv-x="2144" 
d="M961 1618q-68 0 -104 26t-36 60q0 51 61 89t148 38q139 0 139 -86q0 -43 -60 -85t-148 -42zM1473 1618q-68 0 -104 26t-36 60q0 51 61 89t148 38q139 0 139 -86q0 -43 -60 -85t-148 -42zM0 1434h680q16 -76 84 -183.5t182 -226.5l309 -293l310 311q129 129 187 217.5
t87 174.5h305q-79 -60 -163 -137.5t-136.5 -131.5t-138.5 -147q-303 -318 -350 -365v-307q0 -125 14 -211.5t28 -110.5l13 -24h-569l6 9t13.5 32.5t17 61t13.5 99.5t7 144l2 307l-391 355q-116 105 -165.5 149t-151.5 128t-193 149z" />
    <glyph glyph-name="Zacute" unicode="&#x179;" horiz-adv-x="2310" 
d="M1642 1851l-757 -303l-13 17l588 483zM2030 483l75 -8l-90 -475h-1239h-110h-461l1286 1364q-102 2 -199.5 -2.5t-215 -18t-222 -44t-203 -75t-177.5 -115.5t-126 -161l-76 8l90 480h1739l-1261 -1368q80 -1 168.5 -2t189 9.5t197.5 26t193.5 48.5t178.5 76t151.5 109.5
t111.5 147.5z" />
    <glyph glyph-name="zacute" unicode="&#x17a;" horiz-adv-x="1806" 
d="M1346 1503l-758 -303l-13 17l588 483zM59 0l2 8q79 68 220.5 185.5t245.5 205.5t219.5 191t198.5 193t126 161l-772 -41q-141 -29 -203 -72l-4 3l31 204l993 -12h590l-717 -698q-118 -114 -211 -236l486 19q166 11 280 34t148 48l4 -3l-31 -200l-952 10h-654z" />
    <glyph glyph-name="Zdotaccent" unicode="&#x17b;" horiz-adv-x="2310" 
d="M1180 1731q-68 0 -104 26t-36 60q0 51 61 89t148 38q140 0 140 -86q0 -43 -60 -85t-149 -42zM2030 483l75 -8l-90 -475h-1239h-110h-461l1286 1364q-102 2 -199.5 -2.5t-215 -18t-222 -44t-203 -75t-177.5 -115.5t-126 -161l-76 8l90 480h1739l-1261 -1368
q80 -1 168.5 -2t189 9.5t197.5 26t193.5 48.5t178.5 76t151.5 109.5t111.5 147.5z" />
    <glyph glyph-name="zdotaccent" unicode="&#x17c;" horiz-adv-x="1806" 
d="M821 1251q-68 0 -103.5 25.5t-35.5 60.5q0 51 61 89t148 38q139 0 139 -86q0 -43 -60 -85t-149 -42zM59 0l2 8q79 68 220.5 185.5t245.5 205.5t219.5 191t198.5 193t126 161l-772 -41q-141 -29 -203 -72l-4 3l31 204l993 -12h590l-717 -698q-118 -114 -211 -236l486 19
q166 11 280 34t148 48l4 -3l-31 -200l-952 10h-654z" />
    <glyph glyph-name="Zcaron" unicode="&#x17d;" horiz-adv-x="2310" 
d="M1657 1944l-457 -365l-452 363v20l452 -154l457 156v-20zM2030 483l75 -8l-90 -475h-1239h-110h-461l1286 1364q-102 2 -199.5 -2.5t-215 -18t-222 -44t-203 -75t-177.5 -115.5t-126 -161l-76 8l90 480h1739l-1261 -1368q80 -1 168.5 -2t189 9.5t197.5 26t193.5 48.5
t178.5 76t151.5 109.5t111.5 147.5z" />
    <glyph glyph-name="zcaron" unicode="&#x17e;" horiz-adv-x="1806" 
d="M426 1575v-21l453 -362l456 364v21l-456 -156zM59 0l2 8q79 68 220.5 185.5t245.5 205.5t219.5 191t198.5 193t126 161l-772 -41q-141 -29 -203 -72l-4 3l31 204l993 -12h590l-717 -698q-118 -114 -211 -236l486 19q166 11 280 34t148 48l4 -3l-31 -200l-952 10h-654z
" />
    <glyph glyph-name="Scommaaccent" unicode="&#x218;" horiz-adv-x="2437" 
d="M301 1051q0 67 33.5 132.5t103.5 125.5t167.5 106t236.5 73.5t301 27.5q279 0 521.5 -49t485.5 -152l-114 -402q-96 126 -213.5 221.5t-220.5 147.5t-212.5 84t-181.5 41.5t-135 9.5q-88 -3 -156.5 -18.5t-109.5 -37t-67.5 -49.5t-36 -53.5t-9.5 -52.5q0 -106 160 -174
q107 -46 389 -105h1h1h1l1 -1h1h1l1 -1h1h1h1h1l1 -1h1h1h1h1l1 -1h1h1h1h1l1 -1h1h1h1l1 -1h1h1h1h1l1 -1h1h1h1h1l1 -1h1h1h1h1l2 -1h1q49 -11 147 -32q94 -20 140.5 -30t129.5 -30t126.5 -34.5t109.5 -38t100.5 -45.5t77.5 -53t64 -64t36 -75t15 -90q0 -91 -56.5 -170
t-151.5 -135t-217.5 -96.5t-255.5 -60t-265 -19.5q-295 0 -576.5 67.5t-504.5 198.5l131 420q72 -138 192.5 -249t263.5 -181t298.5 -107t306.5 -37q183 0 296 57t113 138q0 28 -8 51t-29 43.5t-44.5 36.5t-67.5 33t-85 30t-109.5 30t-128 30t-152.5 33q-97 22 -161 37
t-144 35t-132 37t-113 38.5t-100 42.5t-80.5 47.5t-66 55t-45.5 62.5t-30 73t-9 84z" />
    <glyph glyph-name="scommaaccent" unicode="&#x219;" 
d="M1718 948l-186 -291h-8q-46 80 -171.5 165t-290.5 143.5t-304 58.5q-101 0 -147 -27t-46 -84q0 -49 104.5 -95t329.5 -99l131 -31q250 -58 388 -117t186.5 -118t48.5 -142q0 -72 -55.5 -133t-141.5 -100.5t-194.5 -67t-210.5 -39.5t-193 -12q-220 0 -452 49.5t-383 130.5
l113 396h6q151 -210 372 -341t441 -131q117 0 198.5 39.5t81.5 110.5q0 54 -26 86.5t-101 62.5t-229 66l-141 33q-124 29 -215 55t-169.5 57t-127.5 64.5t-76 74.5t-27 89q0 131 194 213t539 82q189 0 410 -38t352 -110z" />
    <glyph glyph-name="uni021A" unicode="&#x21a;" horiz-adv-x="2338" 
d="M2167 1440l90 -527l-35 -8q-79 128 -155 209t-169.5 129.5t-194.5 69t-247 26.5q-20 -106 -20 -254v-739q0 -125 14 -211.5t28 -110.5l13 -24h-561q2 3 5.5 9t11.5 32.5t14.5 61t12 99.5t5.5 144l6 741q0 146 -20 252q-147 -6 -248 -26.5t-194.5 -69t-169 -129.5
t-154.5 -209l-35 8l90 527l956 -6z" />
    <glyph glyph-name="uni021B" unicode="&#x21b;" 
d="M1618 422l4 -2l-111 -324q-185 -137 -503 -137q-332 0 -503 141t-171 422v426l-391 21v47l32 2q209 20 429 118t315 214h24v-273l824 62l-37 -256l-787 43v-324q0 -189 107.5 -280t355.5 -91q107 0 222 46t190 145z" />
    <glyph glyph-name="circumflex" unicode="&#x2c6;" 
d="M168 1214l453 154l456 -156v21l-456 364l-453 -362v-21z" />
    <glyph glyph-name="caron" unicode="&#x2c7;" 
d="M168 1575v-21l453 -362l456 364v21l-456 -156z" />
    <glyph glyph-name="breve" unicode="&#x2d8;" horiz-adv-x="1193" 
d="M596 1434q150 0 245.5 37t121.5 96h26q-3 -35 -17 -76t-44.5 -88.5t-73 -85.5t-110.5 -63t-150 -25q-81 1 -148.5 26t-110 63t-72.5 85t-43 88t-15 76h26q24 -60 119 -96.5t246 -36.5z" />
    <glyph glyph-name="dotaccent" unicode="&#x2d9;" horiz-adv-x="716" 
d="M324 1251q-68 0 -104 26t-36 60q0 51 61 89t148 38q139 0 139 -86q0 -43 -60 -85t-148 -42z" />
    <glyph glyph-name="ring" unicode="&#x2da;" 
d="M205 1454q0 78 87.5 131t215.5 53q130 0 216.5 -53t86.5 -131q0 -77 -87.5 -127.5t-215.5 -50.5t-215.5 50.5t-87.5 127.5zM348 1475q0 -58 51 -108t136 -50q57 0 95 33t38 90q0 58 -51 107.5t-136 49.5q-58 0 -95.5 -32.5t-37.5 -89.5z" />
    <glyph glyph-name="ogonek" unicode="&#x2db;" horiz-adv-x="1001" 
d="M592 29q-68 -42 -112 -108.5t-44 -139.5q0 -69 41.5 -109.5t122.5 -40.5q90 0 176 115l21 -16q-38 -103 -127.5 -170.5t-200.5 -67.5q-125 0 -194.5 55t-69.5 152q0 185 315 330h72z" />
    <glyph glyph-name="tilde" unicode="&#x2dc;" 
d="M205 1237q21 143 90.5 223t161.5 80q56 0 109 -18t86.5 -39.5t79.5 -39.5t91 -18q77 0 140 31.5t86 83.5l6 -16q-21 -143 -90.5 -223t-161.5 -80q-56 0 -109 18t-87 39t-80 39t-91 18q-77 0 -139.5 -31t-85.5 -83z" />
    <glyph glyph-name="hungarumlaut" unicode="&#x2dd;" 
d="M221 1040q45 140 64 381l299 -96q-106 -179 -164 -350zM618 1042q42 91 113 371l281 -135q-143 -197 -205 -324z" />
    <glyph glyph-name="gravecomb" unicode="&#x300;" horiz-adv-x="0" 
d="M-975 1503l182 197l588 -483l-12 -17z" />
    <glyph glyph-name="acutecomb" unicode="&#x301;" horiz-adv-x="0" 
d="M-205 1503l-758 -303l-12 17l588 483z" />
    <glyph glyph-name="uni0302" unicode="&#x302;" horiz-adv-x="0" 
d="M-1077 1214l452 154l457 -156v21l-457 364l-452 -362v-21z" />
    <glyph glyph-name="tildecomb" unicode="&#x303;" horiz-adv-x="0" 
d="M-1055 1237q21 143 90.5 223t161.5 80q56 0 109 -18t87 -39.5t80 -39.5t91 -18q77 0 139.5 31.5t85.5 83.5l6 -16q-21 -143 -90.5 -223t-161.5 -80q-56 0 -109 18t-86.5 39t-79.5 39t-91 18q-78 0 -140.5 -31t-85.5 -83z" />
    <glyph glyph-name="uni0304" unicode="&#x304;" horiz-adv-x="0" 
d="M-936 1395h643v-95h-643v95z" />
    <glyph glyph-name="uni0306" unicode="&#x306;" horiz-adv-x="0" 
d="M-598 1434q150 0 245.5 37t121.5 96h26q-3 -35 -17 -76t-44.5 -88.5t-73 -85.5t-110.5 -63t-150 -25q-81 1 -148.5 26t-110 63t-72.5 85t-43 88t-15 76h26q24 -60 119 -96.5t246 -36.5z" />
    <glyph glyph-name="uni0307" unicode="&#x307;" horiz-adv-x="0" 
d="M-393 1251q-68 0 -103.5 25.5t-35.5 60.5q0 51 60.5 89t147.5 38q140 0 140 -86q0 -43 -60 -85t-149 -42z" />
    <glyph glyph-name="uni0308" unicode="&#x308;" horiz-adv-x="0" 
d="M-901 1251q-68 0 -103.5 25.5t-35.5 60.5q0 51 61 89t148 38q139 0 139 -86q0 -43 -60 -85t-149 -42zM-389 1251q-68 0 -103.5 25.5t-35.5 60.5q0 51 61 89t148 38q139 0 139 -86q0 -43 -60 -85t-149 -42z" />
    <glyph glyph-name="uni030A" unicode="&#x30a;" horiz-adv-x="0" 
d="M-811 1454q0 78 87.5 131t215.5 53q130 0 216.5 -53t86.5 -131q0 -77 -87.5 -127.5t-215.5 -50.5t-215.5 50.5t-87.5 127.5zM-668 1475q0 -58 51 -108t136 -50q57 0 95 33t38 90q0 58 -51 107.5t-136 49.5q-58 0 -95.5 -32.5t-37.5 -89.5z" />
    <glyph glyph-name="uni030B" unicode="&#x30b;" horiz-adv-x="0" 
 />
    <glyph glyph-name="uni030C" unicode="&#x30c;" horiz-adv-x="0" 
d="M-1073 1575v-21l452 -362l457 364v21l-457 -156z" />
    <glyph glyph-name="uni0312" unicode="&#x312;" horiz-adv-x="0" 
 />
    <glyph glyph-name="uni0326" unicode="&#x326;" horiz-adv-x="0" 
 />
    <glyph glyph-name="uni0327" unicode="&#x327;" horiz-adv-x="0" 
d="M-563 6l84 -18l-103 -121q142 0 227.5 -18.5t117.5 -49t32 -78.5q0 -50 -40 -93.5t-99 -72.5t-135.5 -52.5t-141 -36t-124.5 -19.5l-3 39q122 22 197.5 63t75.5 101q0 53 -74.5 71.5t-214.5 18.5z" />
    <glyph glyph-name="uni0328" unicode="&#x328;" horiz-adv-x="0" 
d="M-305 -193l29 -75q-5 -19 -24 -45.5t-51.5 -56t-88 -50t-121.5 -20.5q-125 0 -188.5 61t-63.5 139q0 55 30.5 104.5t76.5 81.5t97.5 51t94.5 19l72 -16q-18 2 -66.5 -19t-95.5 -63.5t-47 -87.5q0 -64 34.5 -93.5t108.5 -29.5q57 0 111.5 26t91.5 74zM-442 0h2h-2z" />
    <glyph glyph-name="uni0335" unicode="&#x335;" horiz-adv-x="0" 
d="M-1126 637h1030v-94h-1030v94z" />
    <glyph glyph-name="uni0336" unicode="&#x336;" horiz-adv-x="0" 
d="M-1516 637h1414v-94h-1414v94z" />
    <glyph glyph-name="uni0337" unicode="&#x337;" horiz-adv-x="0" 
d="M-201 1085h99l-975 -1085h-101z" />
    <glyph glyph-name="uni0338" unicode="&#x338;" horiz-adv-x="0" 
d="M-197 1434h95l-1594 -1434h-94z" />
    <glyph glyph-name="Wgrave" unicode="&#x1e80;" horiz-adv-x="3350" 
d="M2054 1622l-12 -16l-758 303l182 196zM3019 1434h311q-70 -93 -145 -220l-639 -1214h-363l-495 922q-4 6 -11 20l-495 -942h-363l-495 922q-12 22 -64.5 122t-80 150t-74 123t-85.5 117h639q-2 0 7 -42t39.5 -131t76.5 -184l389 -782l418 813q-118 227 -205 326h639
q-2 0 7 -42t39.5 -131t76.5 -184l389 -782l347 676q45 103 75.5 188.5t42 134t17 82.5t3.5 46z" />
    <glyph glyph-name="wgrave" unicode="&#x1e81;" horiz-adv-x="2648" 
d="M1702 1217l-12 -17l-758 303l182 197zM2454 1024h299l-719 -1026h-181l-507 643l-451 -643h-180l-811 1026h633q7 -56 44 -131t128 -234l223 -387l10 -16l258 403q32 46 55 97l-213 268h633q7 -59 44 -134.5t128 -234.5l224 -387l10 -16l258 403q27 40 48 81.5t32 73
t18.5 69.5t9.5 57.5t4.5 51t2.5 36.5z" />
    <glyph glyph-name="Wacute" unicode="&#x1e82;" horiz-adv-x="3350" 
d="M2089 1860l-758 -304l-12 17l588 483zM3019 1434h311q-70 -93 -145 -220l-639 -1214h-363l-495 922q-4 6 -11 20l-495 -942h-363l-495 922q-12 22 -64.5 122t-80 150t-74 123t-85.5 117h639q-2 0 7 -42t39.5 -131t76.5 -184l389 -782l418 813q-118 227 -205 326h639
q-2 0 7 -42t39.5 -131t76.5 -184l389 -782l347 676q45 103 75.5 188.5t42 134t17 82.5t3.5 46z" />
    <glyph glyph-name="wacute" unicode="&#x1e83;" horiz-adv-x="2648" 
d="M1810 1554l-757 -303l-13 17l588 483zM2454 1024h299l-719 -1026h-181l-507 643l-451 -643h-180l-811 1026h633q7 -56 44 -131t128 -234l223 -387l10 -16l258 403q32 46 55 97l-213 268h633q7 -59 44 -134.5t128 -234.5l224 -387l10 -16l258 403q27 40 48 81.5t32 73
t18.5 69.5t9.5 57.5t4.5 51t2.5 36.5z" />
    <glyph glyph-name="Wdieresis" unicode="&#x1e84;" horiz-adv-x="3350" 
d="M1405 1636q-68 0 -103.5 25.5t-35.5 60.5q0 51 61 89t148 38q139 0 139 -86q0 -43 -60 -85t-149 -42zM1917 1636q-68 0 -103.5 25.5t-35.5 60.5q0 51 61 89t148 38q139 0 139 -86q0 -43 -60 -85t-149 -42zM3019 1434h311q-70 -93 -145 -220l-639 -1214h-363l-495 922
q-4 6 -11 20l-495 -942h-363l-495 922q-12 22 -64.5 122t-80 150t-74 123t-85.5 117h639q-2 0 7 -42t39.5 -131t76.5 -184l389 -782l418 813q-118 227 -205 326h639q-2 0 7 -42t39.5 -131t76.5 -184l389 -782l347 676q45 103 75.5 188.5t42 134t17 82.5t3.5 46z" />
    <glyph glyph-name="wdieresis" unicode="&#x1e85;" horiz-adv-x="2648" 
d="M1077 1251q-68 0 -103.5 25.5t-35.5 60.5q0 51 61 89t148 38q139 0 139 -86q0 -43 -60 -85t-149 -42zM1589 1251q-68 0 -103.5 25.5t-35.5 60.5q0 51 61 89t148 38q139 0 139 -86q0 -43 -60 -85t-149 -42zM2454 1024h299l-719 -1026h-181l-507 643l-451 -643h-180
l-811 1026h633q7 -56 44 -131t128 -234l223 -387l10 -16l258 403q32 46 55 97l-213 268h633q7 -59 44 -134.5t128 -234.5l224 -387l10 -16l258 403q27 40 48 81.5t32 73t18.5 69.5t9.5 57.5t4.5 51t2.5 36.5z" />
    <glyph glyph-name="Ygrave" unicode="&#x1ef2;" horiz-adv-x="2144" 
d="M793 1815l182 196l588 -483l-13 -17zM0 1434h680q16 -76 84 -183.5t182 -226.5l309 -293l310 311q129 129 187 217.5t87 174.5h305q-79 -60 -163 -137.5t-136.5 -131.5t-138.5 -147q-303 -318 -350 -365v-307q0 -125 14 -211.5t28 -110.5l13 -24h-569l6 9t13.5 32.5
t17 61t13.5 99.5t7 144l2 307l-391 355q-116 105 -165.5 149t-151.5 128t-193 149z" />
    <glyph glyph-name="ygrave" unicode="&#x1ef3;" horiz-adv-x="1894" 
d="M1411 1217l-12 -17l-758 303l182 197zM1894 1024l-704 -899q-135 -161 -186 -215l-5 -4q-139 -146 -274 -231t-276 -85q-54 0 -106 11t-87.5 27t-63.5 32.5t-42 27.5l-13 11l121 285q33 -22 61.5 -36t94.5 -29t147 -15q189 0 342 108l-903 1012l612 -4q18 -152 193 -361
l338 -403l284 403q33 47 57 97.5t35.5 81.5t20.5 79t9.5 57.5t4.5 49.5h340z" />
    <glyph glyph-name="endash" unicode="&#x2013;" horiz-adv-x="2086" 
d="M104 637h1881v-94h-1881v94z" />
    <glyph glyph-name="emdash" unicode="&#x2014;" horiz-adv-x="2048" 
d="M0 637l2048 -2v-92h-2048v94z" />
    <glyph glyph-name="quoteleft" unicode="&#x2018;" horiz-adv-x="608" 
d="M354 1206q95 0 144 -36t49 -83q0 -70 -81.5 -124t-189.5 -54q-112 0 -163.5 40t-51.5 100v4q3 54 40 109.5t89.5 99t114.5 81.5t115.5 62t93.5 35q-36 -29 -58 -49.5t-51 -53t-43.5 -65.5t-13.5 -66h6z" />
    <glyph glyph-name="quoteright" unicode="&#x2019;" horiz-adv-x="608" 
d="M547 1335v-4q-3 -54 -40 -109.5t-89.5 -99t-114.5 -81.5t-115.5 -62t-93.5 -35q36 29 58 49.5t51 53t43.5 65.5t13.5 66h-6q-95 0 -144 35.5t-49 82.5q0 70 81.5 124.5t189.5 54.5q112 0 163.5 -40t51.5 -100z" />
    <glyph glyph-name="quotesinglbase" unicode="&#x201a;" 
d="M485 141v-4q-3 -54 -39.5 -109.5t-89 -99t-115 -81.5t-115.5 -62t-93 -35q36 29 58 49.5t51 53t43.5 65.5t13.5 66h-6q-95 0 -144 35.5t-49 82.5q0 70 81 124.5t189 54.5q112 0 163.5 -40t51.5 -100z" />
    <glyph glyph-name="quotedblleft" unicode="&#x201c;" horiz-adv-x="1308" 
d="M416 1206q95 0 143.5 -36t48.5 -83q0 -70 -81 -124t-189 -54q-112 0 -163.5 40t-51.5 100v4q3 54 39.5 109.5t89 99t115 81.5t115.5 62t93 35q-35 -29 -57.5 -49.5t-51 -52.5t-43 -65.5t-13.5 -66.5h6zM993 1206q95 0 144 -36t49 -83q0 -70 -81.5 -124t-189.5 -54
q-112 0 -163.5 40t-51.5 100v4q3 54 40 109.5t89.5 99t114.5 81.5t115.5 62t93.5 35q-36 -29 -58 -49.5t-51 -53t-43.5 -65.5t-13.5 -66h6z" />
    <glyph glyph-name="quotedblright" unicode="&#x201d;" 
d="M410 1475q112 0 163.5 -40t51.5 -100v-4q-3 -54 -40 -109.5t-89.5 -99t-114.5 -81.5t-115.5 -62t-93.5 -35q36 29 58 49.5t51 53t43.5 65.5t13.5 66h-6q-95 0 -144 35.5t-49 82.5q0 70 81.5 124.5t189.5 54.5zM1202 1335v-4q-3 -54 -39.5 -109.5t-89 -99t-115 -81.5
t-115.5 -62t-93 -35q35 29 57.5 49.5t51 52.5t43 65.5t13.5 66.5h-6q-95 0 -143.5 35.5t-48.5 82.5q0 70 81 124.5t189 54.5q112 0 163.5 -40t51.5 -100z" />
    <glyph glyph-name="quotedblbase" unicode="&#x201e;" 
d="M485 141v-4q-3 -54 -39.5 -109.5t-89 -99t-115 -81.5t-115.5 -62t-93 -35q36 29 58 49.5t51 53t43.5 65.5t13.5 66h-6q-95 0 -144 35.5t-49 82.5q0 70 81 124.5t189 54.5q112 0 163.5 -40t51.5 -100z" />
    <glyph glyph-name="bullet" unicode="&#x2022;" horiz-adv-x="638" 
d="M319 356q-95 0 -161 68t-66 160q0 98 65 164.5t162 66.5q93 0 160.5 -67t67.5 -164q0 -91 -68 -159.5t-160 -68.5z" />
    <glyph glyph-name="ellipsis" unicode="&#x2026;" horiz-adv-x="1998" 
d="M309 -16q-95 0 -143.5 35.5t-48.5 82.5q0 71 84.5 125t206.5 54q194 0 194 -119q0 -62 -84 -120t-209 -58zM942 -16q-95 0 -143.5 35.5t-48.5 82.5q0 71 84 125t206 54q195 0 195 -119q0 -62 -84 -120t-209 -58zM1589 -16q-95 0 -143.5 35.5t-48.5 82.5q0 71 84.5 125
t206.5 54q194 0 194 -119q0 -62 -84 -120t-209 -58z" />
    <glyph glyph-name="guilsinglleft" unicode="&#x2039;" horiz-adv-x="716" 
d="M35 594l682 -395l-223 395l223 395z" />
    <glyph glyph-name="guilsinglright" unicode="&#x203a;" horiz-adv-x="716" 
d="M717 594l-682 395l223 -395l-223 -395z" />
    <glyph glyph-name="Euro" unicode="&#x20ac;" horiz-adv-x="2359" 
d="M2159 524l36 -63q-29 -60 -76 -124.5t-125 -135.5t-170.5 -126.5t-219.5 -91.5t-265 -36q-327 0 -563.5 163t-292.5 422h-319v95h307q-2 14 -2 45q0 75 16 157h-321v95h346q63 184 213 323t348 211t416 72q113 0 225.5 -22t192 -53t143 -62.5t95.5 -53.5l32 -22
l-100 -496q-7 12 -19.5 31.5t-56 77t-92.5 110t-126 116t-158 109.5t-188.5 77.5t-217.5 31.5q-117 0 -216.5 -53t-162.5 -157t-66 -240h825v-95h-821q11 -107 58 -202h763v-95h-704q107 -140 283.5 -210t371.5 -70q190 0 357.5 70.5t253.5 201.5z" />
    <glyph glyph-name="trademark" unicode="&#x2122;" horiz-adv-x="1820" 
d="M442 524l351 2l32 -192l-12 -2q-55 90 -114.5 122t-163.5 35q-9 -45 -9 -92v-270q0 -45 5 -77t11 -41l5 -9h-207q18 25 18 127l2 270q0 52 -8 92q-105 -3 -164 -34.5t-114 -122.5l-15 2l33 192zM1710 199q56 -147 96 -199h-217q0 39 -28 121l-70 201q-6 18 -18 46t-17 40
l-166 -408h-20l-29 51l-151 275q-14 27 -52 84l-86 -291q-22 -88 -16 -119h-94q21 37 55 143l102 322q-17 22 -51 61h207q8 -21 24.5 -54.5t18.5 -39.5l119 -219l115 246q-20 42 -39 67h206q15 -62 35 -125z" />
    <glyph glyph-name="minus" unicode="&#x2212;" 
d="M158 614h915v-94h-915v94z" />
    <glyph glyph-name="OE.001" horiz-adv-x="4083" 
d="M3803 526l76 -8l-90 -526l-1880 8q16 22 30 98q-308 -153 -673 -153q-308 0 -559.5 95.5t-397 267.5t-145.5 386q0 128 47.5 243.5t131 206t197.5 163.5t248 121.5t281.5 74t298.5 25.5q323 0 578 -98q-7 36 -16.5 62.5t-15.5 35.5l-5 8h1798l90 -520l-76 -8
q-69 113 -138.5 188.5t-150.5 124.5t-176.5 74t-215.5 36t-269 11.5t-336 -0.5q-20 -106 -20 -254v-342h1218v-94h-1218v-406q0 -146 20 -252q66 0 188 -1q169 -2 303 -1.5t243 12.5t196.5 37t163 74.5t141.5 124.5t133 186zM1495 119q176 0 292 77t171 203l4 467
q-46 119 -137 219t-204.5 165t-241.5 100.5t-253 35.5q-137 0 -238 -39t-159 -108t-85.5 -154.5t-27.5 -187.5q0 -61 14.5 -129.5t47 -144.5t80.5 -147.5t120 -136.5t159.5 -113.5t205.5 -77.5t252 -29z" />
    <glyph glyph-name="i.loclTRK" horiz-adv-x="931" 
d="M446 1251q-68 0 -103.5 25.5t-35.5 60.5q0 51 61 89t148 38q139 0 139 -86q0 -43 -60 -85t-149 -42zM254 0q4 5 10 25t16.5 143.5t10.5 320.5l2 195q0 69 -14.5 120.5t-38.5 78.5t-45.5 39.5t-44.5 17.5v10l550 135v-739q0 -84 7 -151t17 -101.5t20 -57.5t17 -30l7 -6
h-514z" />
    <glyph glyph-name="NuovoGlifo" 
 />
    <glyph glyph-name="NuovoGlifo.001" 
 />
    <glyph glyph-name="NuovoGlifo.002" 
 />
    <glyph glyph-name="NuovoGlifo.003" 
 />
    <glyph glyph-name="NuovoGlifo.004" 
 />
    </font>
</defs>
</svg>
